<svg xmlns="http://www.w3.org/2000/svg" viewBox="0 0 920 430" role="img">
<title>Authority Distribution</title>
<rect width="100%" height="100%" fill="#ffffff"/>
<text x="30.00" y="34.00" font-family="system-ui, sans-serif" font-size="22" fill="#1f2937" text-anchor="start">Authority Distribution</text>
<line x1="80" y1="340" x2="840" y2="340" stroke="#475467"/><line x1="80" y1="70" x2="80" y2="340" stroke="#475467"/><text x="460.00" y="386.00" font-family="system-ui, sans-serif" font-size="12" fill="#667085" text-anchor="middle">log10(Authority)</text>
<rect x="81.00" y="324.12" width="29.67" height="15.88" fill="#0f766e"/>
<rect x="112.67" y="340.00" width="29.67" height="0.00" fill="#b45309"/>
<rect x="144.33" y="308.24" width="29.67" height="31.76" fill="#1d4ed8"/>
<rect x="176.00" y="324.12" width="29.67" height="15.88" fill="#be123c"/>
<rect x="207.67" y="324.12" width="29.67" height="15.88" fill="#6d28d9"/>
<rect x="239.33" y="292.35" width="29.67" height="47.65" fill="#15803d"/>
<rect x="271.00" y="260.59" width="29.67" height="79.41" fill="#c2410c"/>
<rect x="302.67" y="117.65" width="29.67" height="222.35" fill="#0369a1"/>
<rect x="334.33" y="244.71" width="29.67" height="95.29" fill="#7c2d12"/>
<rect x="366.00" y="260.59" width="29.67" height="79.41" fill="#4338ca"/>
<rect x="397.67" y="260.59" width="29.67" height="79.41" fill="#0f766e"/>
<rect x="429.33" y="260.59" width="29.67" height="79.41" fill="#b45309"/>
<rect x="461.00" y="197.06" width="29.67" height="142.94" fill="#1d4ed8"/>
<rect x="492.67" y="212.94" width="29.67" height="127.06" fill="#be123c"/>
<rect x="524.33" y="149.41" width="29.67" height="190.59" fill="#6d28d9"/>
<rect x="556.00" y="101.76" width="29.67" height="238.24" fill="#15803d"/>
<rect x="587.67" y="85.88" width="29.67" height="254.12" fill="#c2410c"/>
<rect x="619.33" y="70.00" width="29.67" height="270.00" fill="#0369a1"/>
<rect x="651.00" y="70.00" width="29.67" height="270.00" fill="#7c2d12"/>
<rect x="682.67" y="149.41" width="29.67" height="190.59" fill="#4338ca"/>
<rect x="714.33" y="276.47" width="29.67" height="63.53" fill="#0f766e"/>
<rect x="746.00" y="260.59" width="29.67" height="79.41" fill="#b45309"/>
<rect x="777.67" y="197.06" width="29.67" height="142.94" fill="#1d4ed8"/>
<rect x="809.33" y="260.59" width="29.67" height="79.41" fill="#be123c"/>
</svg>