<svg xmlns="http://www.w3.org/2000/svg" viewBox="0 0 920 520" role="img">
<title>Category Mixing</title>
<rect width="100%" height="100%" fill="#ffffff"/>
<text x="30.00" y="34.00" font-family="system-ui, sans-serif" font-size="22" fill="#1f2937" text-anchor="start">Category Mixing</text>
<text x="180.00" y="98.00" font-family="system-ui, sans-serif" font-size="11" fill="#344054" text-anchor="end">Arts</text>
<text x="204.00" y="70.00" font-family="system-ui, sans-serif" font-size="10" fill="#344054" text-anchor="middle">Arts</text>
<rect x="190.00" y="80.00" width="26.00" height="26.00" fill="rgba(15,118,110,0.102)"/>
<rect x="218.00" y="80.00" width="26.00" height="26.00" fill="rgba(15,118,110,0.080)"/>
<rect x="246.00" y="80.00" width="26.00" height="26.00" fill="rgba(15,118,110,0.083)"/>
<rect x="274.00" y="80.00" width="26.00" height="26.00" fill="rgba(15,118,110,0.080)"/>
<rect x="302.00" y="80.00" width="26.00" height="26.00" fill="rgba(15,118,110,0.081)"/>
<rect x="330.00" y="80.00" width="26.00" height="26.00" fill="rgba(15,118,110,0.080)"/>
<rect x="358.00" y="80.00" width="26.00" height="26.00" fill="rgba(15,118,110,0.080)"/>
<rect x="386.00" y="80.00" width="26.00" height="26.00" fill="rgba(15,118,110,0.080)"/>
<rect x="414.00" y="80.00" width="26.00" height="26.00" fill="rgba(15,118,110,0.080)"/>
<rect x="442.00" y="80.00" width="26.00" height="26.00" fill="rgba(15,118,110,0.080)"/>
<text x="180.00" y="126.00" font-family="system-ui, sans-serif" font-size="11" fill="#344054" text-anchor="end">Business</text>
<text x="232.00" y="70.00" font-family="system-ui, sans-serif" font-size="10" fill="#344054" text-anchor="middle">Business</text>
<rect x="190.00" y="108.00" width="26.00" height="26.00" fill="rgba(15,118,110,0.081)"/>
<rect x="218.00" y="108.00" width="26.00" height="26.00" fill="rgba(15,118,110,0.138)"/>
<rect x="246.00" y="108.00" width="26.00" height="26.00" fill="rgba(15,118,110,0.083)"/>
<rect x="274.00" y="108.00" width="26.00" height="26.00" fill="rgba(15,118,110,0.082)"/>
<rect x="302.00" y="108.00" width="26.00" height="26.00" fill="rgba(15,118,110,0.083)"/>
<rect x="330.00" y="108.00" width="26.00" height="26.00" fill="rgba(15,118,110,0.080)"/>
<rect x="358.00" y="108.00" width="26.00" height="26.00" fill="rgba(15,118,110,0.082)"/>
<rect x="386.00" y="108.00" width="26.00" height="26.00" fill="rgba(15,118,110,0.080)"/>
<rect x="414.00" y="108.00" width="26.00" height="26.00" fill="rgba(15,118,110,0.080)"/>
<rect x="442.00" y="108.00" width="26.00" height="26.00" fill="rgba(15,118,110,0.081)"/>
<text x="180.00" y="154.00" font-family="system-ui, sans-serif" font-size="11" fill="#344054" text-anchor="end">Comedy</text>
<text x="260.00" y="70.00" font-family="system-ui, sans-serif" font-size="10" fill="#344054" text-anchor="middle">Comedy</text>
<rect x="190.00" y="136.00" width="26.00" height="26.00" fill="rgba(15,118,110,0.088)"/>
<rect x="218.00" y="136.00" width="26.00" height="26.00" fill="rgba(15,118,110,0.084)"/>
<rect x="246.00" y="136.00" width="26.00" height="26.00" fill="rgba(15,118,110,1.000)"/>
<rect x="274.00" y="136.00" width="26.00" height="26.00" fill="rgba(15,118,110,0.081)"/>
<rect x="302.00" y="136.00" width="26.00" height="26.00" fill="rgba(15,118,110,0.088)"/>
<rect x="330.00" y="136.00" width="26.00" height="26.00" fill="rgba(15,118,110,0.082)"/>
<rect x="358.00" y="136.00" width="26.00" height="26.00" fill="rgba(15,118,110,0.095)"/>
<rect x="386.00" y="136.00" width="26.00" height="26.00" fill="rgba(15,118,110,0.081)"/>
<rect x="414.00" y="136.00" width="26.00" height="26.00" fill="rgba(15,118,110,0.083)"/>
<rect x="442.00" y="136.00" width="26.00" height="26.00" fill="rgba(15,118,110,0.083)"/>
<text x="180.00" y="182.00" font-family="system-ui, sans-serif" font-size="11" fill="#344054" text-anchor="end">Education</text>
<text x="288.00" y="70.00" font-family="system-ui, sans-serif" font-size="10" fill="#344054" text-anchor="middle">Education</text>
<rect x="190.00" y="164.00" width="26.00" height="26.00" fill="rgba(15,118,110,0.080)"/>
<rect x="218.00" y="164.00" width="26.00" height="26.00" fill="rgba(15,118,110,0.081)"/>
<rect x="246.00" y="164.00" width="26.00" height="26.00" fill="rgba(15,118,110,0.080)"/>
<rect x="274.00" y="164.00" width="26.00" height="26.00" fill="rgba(15,118,110,0.131)"/>
<rect x="302.00" y="164.00" width="26.00" height="26.00" fill="rgba(15,118,110,0.080)"/>
<rect x="330.00" y="164.00" width="26.00" height="26.00" fill="rgba(15,118,110,0.080)"/>
<rect x="358.00" y="164.00" width="26.00" height="26.00" fill="rgba(15,118,110,0.080)"/>
<rect x="386.00" y="164.00" width="26.00" height="26.00" fill="rgba(15,118,110,0.080)"/>
<rect x="414.00" y="164.00" width="26.00" height="26.00" fill="rgba(15,118,110,0.080)"/>
<rect x="442.00" y="164.00" width="26.00" height="26.00" fill="rgba(15,118,110,0.081)"/>
<text x="180.00" y="210.00" font-family="system-ui, sans-serif" font-size="11" fill="#344054" text-anchor="end">Health</text>
<text x="316.00" y="70.00" font-family="system-ui, sans-serif" font-size="10" fill="#344054" text-anchor="middle">Health</text>
<rect x="190.00" y="192.00" width="26.00" height="26.00" fill="rgba(15,118,110,0.081)"/>
<rect x="218.00" y="192.00" width="26.00" height="26.00" fill="rgba(15,118,110,0.082)"/>
<rect x="246.00" y="192.00" width="26.00" height="26.00" fill="rgba(15,118,110,0.086)"/>
<rect x="274.00" y="192.00" width="26.00" height="26.00" fill="rgba(15,118,110,0.080)"/>
<rect x="302.00" y="192.00" width="26.00" height="26.00" fill="rgba(15,118,110,0.136)"/>
<rect x="330.00" y="192.00" width="26.00" height="26.00" fill="rgba(15,118,110,0.080)"/>
<rect x="358.00" y="192.00" width="26.00" height="26.00" fill="rgba(15,118,110,0.081)"/>
<rect x="386.00" y="192.00" width="26.00" height="26.00" fill="rgba(15,118,110,0.080)"/>
<rect x="414.00" y="192.00" width="26.00" height="26.00" fill="rgba(15,118,110,0.080)"/>
<rect x="442.00" y="192.00" width="26.00" height="26.00" fill="rgba(15,118,110,0.081)"/>
<text x="180.00" y="238.00" font-family="system-ui, sans-serif" font-size="11" fill="#344054" text-anchor="end">Music</text>
<text x="344.00" y="70.00" font-family="system-ui, sans-serif" font-size="10" fill="#344054" text-anchor="middle">Music</text>
<rect x="190.00" y="220.00" width="26.00" height="26.00" fill="rgba(15,118,110,0.080)"/>
<rect x="218.00" y="220.00" width="26.00" height="26.00" fill="rgba(15,118,110,0.080)"/>
<rect x="246.00" y="220.00" width="26.00" height="26.00" fill="rgba(15,118,110,0.081)"/>
<rect x="274.00" y="220.00" width="26.00" height="26.00" fill="rgba(15,118,110,0.080)"/>
<rect x="302.00" y="220.00" width="26.00" height="26.00" fill="rgba(15,118,110,0.080)"/>
<rect x="330.00" y="220.00" width="26.00" height="26.00" fill="rgba(15,118,110,0.086)"/>
<rect x="358.00" y="220.00" width="26.00" height="26.00" fill="rgba(15,118,110,0.080)"/>
<rect x="386.00" y="220.00" width="26.00" height="26.00" fill="rgba(15,118,110,0.080)"/>
<rect x="414.00" y="220.00" width="26.00" height="26.00" fill="rgba(15,118,110,0.080)"/>
<rect x="442.00" y="220.00" width="26.00" height="26.00" fill="rgba(15,118,110,0.080)"/>
<text x="180.00" y="266.00" font-family="system-ui, sans-serif" font-size="11" fill="#344054" text-anchor="end">News &amp; Politics</text>
<text x="372.00" y="70.00" font-family="system-ui, sans-serif" font-size="10" fill="#344054" text-anchor="middle">News &amp; Po…</text>
<rect x="190.00" y="248.00" width="26.00" height="26.00" fill="rgba(15,118,110,0.081)"/>
<rect x="218.00" y="248.00" width="26.00" height="26.00" fill="rgba(15,118,110,0.081)"/>
<rect x="246.00" y="248.00" width="26.00" height="26.00" fill="rgba(15,118,110,0.086)"/>
<rect x="274.00" y="248.00" width="26.00" height="26.00" fill="rgba(15,118,110,0.081)"/>
<rect x="302.00" y="248.00" width="26.00" height="26.00" fill="rgba(15,118,110,0.081)"/>
<rect x="330.00" y="248.00" width="26.00" height="26.00" fill="rgba(15,118,110,0.080)"/>
<rect x="358.00" y="248.00" width="26.00" height="26.00" fill="rgba(15,118,110,0.177)"/>
<rect x="386.00" y="248.00" width="26.00" height="26.00" fill="rgba(15,118,110,0.080)"/>
<rect x="414.00" y="248.00" width="26.00" height="26.00" fill="rgba(15,118,110,0.080)"/>
<rect x="442.00" y="248.00" width="26.00" height="26.00" fill="rgba(15,118,110,0.081)"/>
<text x="180.00" y="294.00" font-family="system-ui, sans-serif" font-size="11" fill="#344054" text-anchor="end">Other Games</text>
<text x="400.00" y="70.00" font-family="system-ui, sans-serif" font-size="10" fill="#344054" text-anchor="middle">Other Gam…</text>
<rect x="190.00" y="276.00" width="26.00" height="26.00" fill="rgba(15,118,110,0.080)"/>
<rect x="218.00" y="276.00" width="26.00" height="26.00" fill="rgba(15,118,110,0.080)"/>
<rect x="246.00" y="276.00" width="26.00" height="26.00" fill="rgba(15,118,110,0.080)"/>
<rect x="274.00" y="276.00" width="26.00" height="26.00" fill="rgba(15,118,110,0.080)"/>
<rect x="302.00" y="276.00" width="26.00" height="26.00" fill="rgba(15,118,110,0.080)"/>
<rect x="330.00" y="276.00" width="26.00" height="26.00" fill="rgba(15,118,110,0.080)"/>
<rect x="358.00" y="276.00" width="26.00" height="26.00" fill="rgba(15,118,110,0.080)"/>
<rect x="386.00" y="276.00" width="26.00" height="26.00" fill="rgba(15,118,110,0.082)"/>
<rect x="414.00" y="276.00" width="26.00" height="26.00" fill="rgba(15,118,110,0.080)"/>
<rect x="442.00" y="276.00" width="26.00" height="26.00" fill="rgba(15,118,110,0.080)"/>
<text x="180.00" y="322.00" font-family="system-ui, sans-serif" font-size="11" fill="#344054" text-anchor="end">Religion &amp; Spirituali…</text>
<text x="428.00" y="70.00" font-family="system-ui, sans-serif" font-size="10" fill="#344054" text-anchor="middle">Religion …</text>
<rect x="190.00" y="304.00" width="26.00" height="26.00" fill="rgba(15,118,110,0.080)"/>
<rect x="218.00" y="304.00" width="26.00" height="26.00" fill="rgba(15,118,110,0.080)"/>
<rect x="246.00" y="304.00" width="26.00" height="26.00" fill="rgba(15,118,110,0.081)"/>
<rect x="274.00" y="304.00" width="26.00" height="26.00" fill="rgba(15,118,110,0.080)"/>
<rect x="302.00" y="304.00" width="26.00" height="26.00" fill="rgba(15,118,110,0.080)"/>
<rect x="330.00" y="304.00" width="26.00" height="26.00" fill="rgba(15,118,110,0.080)"/>
<rect x="358.00" y="304.00" width="26.00" height="26.00" fill="rgba(15,118,110,0.080)"/>
<rect x="386.00" y="304.00" width="26.00" height="26.00" fill="rgba(15,118,110,0.080)"/>
<rect x="414.00" y="304.00" width="26.00" height="26.00" fill="rgba(15,118,110,0.095)"/>
<rect x="442.00" y="304.00" width="26.00" height="26.00" fill="rgba(15,118,110,0.080)"/>
<text x="180.00" y="350.00" font-family="system-ui, sans-serif" font-size="11" fill="#344054" text-anchor="end">Science &amp; Medicine</text>
<text x="456.00" y="70.00" font-family="system-ui, sans-serif" font-size="10" fill="#344054" text-anchor="middle">Science &amp;…</text>
<rect x="190.00" y="332.00" width="26.00" height="26.00" fill="rgba(15,118,110,0.081)"/>
<rect x="218.00" y="332.00" width="26.00" height="26.00" fill="rgba(15,118,110,0.080)"/>
<rect x="246.00" y="332.00" width="26.00" height="26.00" fill="rgba(15,118,110,0.082)"/>
<rect x="274.00" y="332.00" width="26.00" height="26.00" fill="rgba(15,118,110,0.080)"/>
<rect x="302.00" y="332.00" width="26.00" height="26.00" fill="rgba(15,118,110,0.081)"/>
<rect x="330.00" y="332.00" width="26.00" height="26.00" fill="rgba(15,118,110,0.080)"/>
<rect x="358.00" y="332.00" width="26.00" height="26.00" fill="rgba(15,118,110,0.083)"/>
<rect x="386.00" y="332.00" width="26.00" height="26.00" fill="rgba(15,118,110,0.080)"/>
<rect x="414.00" y="332.00" width="26.00" height="26.00" fill="rgba(15,118,110,0.081)"/>
<rect x="442.00" y="332.00" width="26.00" height="26.00" fill="rgba(15,118,110,0.139)"/>
</svg>