<svg xmlns="http://www.w3.org/2000/svg" viewBox="0 0 920 430" role="img">
<title>Closeness Distribution</title>
<rect width="100%" height="100%" fill="#ffffff"/>
<text x="30.00" y="34.00" font-family="system-ui, sans-serif" font-size="22" fill="#1f2937" text-anchor="start">Closeness Distribution</text>
<line x1="80" y1="340" x2="840" y2="340" stroke="#475467"/><line x1="80" y1="70" x2="80" y2="340" stroke="#475467"/><text x="460.00" y="386.00" font-family="system-ui, sans-serif" font-size="12" fill="#667085" text-anchor="middle">Closeness</text>
<rect x="81.00" y="271.02" width="29.67" height="68.98" fill="#0f766e"/>
<rect x="112.67" y="336.06" width="29.67" height="3.94" fill="#b45309"/>
<rect x="144.33" y="328.18" width="29.67" height="11.82" fill="#1d4ed8"/>
<rect x="176.00" y="297.63" width="29.67" height="42.37" fill="#be123c"/>
<rect x="207.67" y="258.21" width="29.67" height="81.79" fill="#6d28d9"/>
<rect x="239.33" y="233.58" width="29.67" height="106.42" fill="#15803d"/>
<rect x="271.00" y="216.82" width="29.67" height="123.18" fill="#c2410c"/>
<rect x="302.67" y="169.53" width="29.67" height="170.47" fill="#0369a1"/>
<rect x="334.33" y="70.00" width="29.67" height="270.00" fill="#7c2d12"/>
<rect x="366.00" y="97.59" width="29.67" height="242.41" fill="#4338ca"/>
<rect x="397.67" y="154.74" width="29.67" height="185.26" fill="#0f766e"/>
<rect x="429.33" y="191.20" width="29.67" height="148.80" fill="#b45309"/>
<rect x="461.00" y="272.99" width="29.67" height="67.01" fill="#1d4ed8"/>
<rect x="492.67" y="281.86" width="29.67" height="58.14" fill="#be123c"/>
<rect x="524.33" y="312.41" width="29.67" height="27.59" fill="#6d28d9"/>
<rect x="556.00" y="313.39" width="29.67" height="26.61" fill="#15803d"/>
<rect x="587.67" y="325.22" width="29.67" height="14.78" fill="#c2410c"/>
<rect x="619.33" y="331.13" width="29.67" height="8.87" fill="#0369a1"/>
<rect x="651.00" y="335.07" width="29.67" height="4.93" fill="#7c2d12"/>
<rect x="682.67" y="335.07" width="29.67" height="4.93" fill="#4338ca"/>
<rect x="714.33" y="338.03" width="29.67" height="1.97" fill="#0f766e"/>
<rect x="746.00" y="340.00" width="29.67" height="0.00" fill="#b45309"/>
<rect x="777.67" y="339.01" width="29.67" height="0.99" fill="#1d4ed8"/>
<rect x="809.33" y="339.01" width="29.67" height="0.99" fill="#be123c"/>
</svg>