<svg xmlns="http://www.w3.org/2000/svg" viewBox="0 0 920 430" role="img">
<title>PageRank Evolution</title>
<rect width="100%" height="100%" fill="#ffffff"/>
<text x="30.00" y="34.00" font-family="system-ui, sans-serif" font-size="22" fill="#1f2937" text-anchor="start">PageRank Evolution</text>
<line x1="80" y1="340" x2="840" y2="340" stroke="#475467"/><line x1="80" y1="70" x2="80" y2="340" stroke="#475467"/><text x="460.00" y="386.00" font-family="system-ui, sans-serif" font-size="12" fill="#667085" text-anchor="middle">value</text>
<polyline points="80.00,340.00 87.60,336.05 95.20,334.56 102.80,333.33 110.40,333.93 118.00,334.44 125.60,330.77 133.20,328.31 140.80,325.53 148.40,292.08 156.00,288.34 163.60,282.52 171.20,277.07 178.80,272.66 186.40,266.54 194.00,123.68 201.60,117.54 209.20,136.74 216.80,132.52 224.40,130.94 232.00,130.99 239.60,123.85 247.20,149.58 254.80,146.56 262.40,136.37 270.00,136.29 277.60,132.14 285.20,133.50 292.80,129.65 300.40,126.10 308.00,122.94 315.60,102.27 323.20,99.77 330.80,96.70 338.40,108.12 346.00,105.72 353.60,78.44 361.20,75.37 368.80,70.00 376.40,73.37 384.00,80.67 391.60,80.54 399.20,82.49 406.80,88.18 414.40,87.79 422.00,95.76 429.60,96.21 437.20,82.78 444.80,79.12 452.40,78.50 460.00,85.42 467.60,86.40 475.20,87.77 482.80,90.03 490.40,93.95 498.00,98.30 505.60,103.13 513.20,100.15 520.80,103.66 528.40,131.83 536.00,128.78 543.60,132.19 551.20,133.19 558.80,135.35 566.40,133.80 574.00,135.78 581.60,134.67 589.20,134.60 596.80,140.83 604.40,141.85 612.00,139.33 619.60,138.97 627.20,139.98 634.80,145.12 642.40,145.89 650.00,144.93 657.60,148.86 665.20,144.70 672.80,146.63 680.40,148.37 688.00,143.08 695.60,143.77 703.20,143.18 710.80,144.13 718.40,142.79 726.00,144.11 733.60,143.66 741.20,144.14 748.80,141.87 756.40,145.09 764.00,146.51 771.60,150.10 779.20,151.28 786.80,154.43 794.40,152.96 802.00,155.77 809.60,156.62 817.20,163.26 824.80,165.04 832.40,168.59 840.00,171.05" fill="none" stroke="#0f766e" stroke-width="2" stroke-linejoin="round" stroke-linecap="round"/>
<text x="852.00" y="88.00" font-family="system-ui, sans-serif" font-size="12" fill="#0f766e" text-anchor="start">Joe Rogan</text>
<polyline points="80.00,340.00 87.60,333.74 95.20,325.64 102.80,322.25 110.40,320.88 118.00,319.30 125.60,317.20 133.20,312.73 140.80,307.87 148.40,307.62 156.00,307.75 163.60,305.39 171.20,304.31 178.80,303.84 186.40,302.72 194.00,134.45 201.60,128.14 209.20,149.27 216.80,145.94 224.40,144.60 232.00,144.85 239.60,140.37 247.20,190.23 254.80,189.47 262.40,183.75 270.00,186.14 277.60,185.33 285.20,159.33 292.80,157.03 300.40,153.17 308.00,143.84 315.60,121.42 323.20,121.99 330.80,114.43 338.40,113.16 346.00,110.33 353.60,75.97 361.20,70.73 368.80,70.00 376.40,72.92 384.00,77.82 391.60,77.58 399.20,76.30 406.80,83.89 414.40,105.59 422.00,132.97 429.60,133.73 437.20,116.73 444.80,115.01 452.40,105.08 460.00,115.18 467.60,121.36 475.20,113.89 482.80,116.08 490.40,118.00 498.00,126.60 505.60,136.10 513.20,139.77 520.80,142.49 528.40,183.62 536.00,182.60 543.60,185.78 551.20,193.79 558.80,198.10 566.40,194.64 574.00,196.15 581.60,196.82 589.20,197.57 596.80,198.29 604.40,199.65 612.00,198.26 619.60,199.17 627.20,200.88 634.80,202.95 642.40,204.36 650.00,203.81 657.60,206.37 665.20,206.16 672.80,209.15 680.40,209.98 688.00,205.78 695.60,208.55 703.20,213.55 710.80,215.60 718.40,215.65 726.00,218.81 733.60,223.25 741.20,225.27 748.80,224.88 756.40,230.47 764.00,232.93 771.60,234.12 779.20,234.81 786.80,235.30 794.40,235.49 802.00,237.01 809.60,238.58 817.20,240.75 824.80,242.56 832.40,244.77 840.00,247.64" fill="none" stroke="#b45309" stroke-width="2" stroke-linejoin="round" stroke-linecap="round"/>
<text x="852.00" y="106.00" font-family="system-ui, sans-serif" font-size="12" fill="#b45309" text-anchor="start">Duncan Trussell</text>
<polyline points="80.00,340.00 87.60,329.22 95.20,329.83 102.80,330.46 110.40,330.96 118.00,331.38 125.60,331.86 133.20,332.20 140.80,332.67 148.40,333.17 156.00,333.52 163.60,333.80 171.20,334.01 178.80,334.27 186.40,334.54 194.00,335.95 201.60,336.19 209.20,336.23 216.80,336.37 224.40,336.50 232.00,336.70 239.60,331.79 247.20,177.14 254.80,162.80 262.40,144.36 270.00,131.46 277.60,122.91 285.20,181.34 292.80,179.07 300.40,178.71 308.00,192.15 315.60,186.24 323.20,187.16 330.80,173.53 338.40,178.95 346.00,182.78 353.60,169.85 361.20,163.85 368.80,156.35 376.40,159.85 384.00,161.19 391.60,161.81 399.20,166.15 406.80,172.11 414.40,70.00 422.00,77.50 429.60,82.45 437.20,79.81 444.80,80.08 452.40,108.10 460.00,93.26 467.60,98.37 475.20,114.71 482.80,113.48 490.40,119.79 498.00,124.34 505.60,119.91 513.20,133.61 520.80,136.58 528.40,107.30 536.00,105.04 543.60,108.35 551.20,117.44 558.80,120.82 566.40,118.86 574.00,120.88 581.60,122.08 589.20,123.39 596.80,130.69 604.40,129.97 612.00,129.00 619.60,131.06 627.20,134.61 634.80,140.71 642.40,140.85 650.00,131.03 657.60,133.65 665.20,132.77 672.80,136.54 680.40,138.48 688.00,146.65 695.60,150.08 703.20,155.38 710.80,153.06 718.40,137.36 726.00,142.95 733.60,146.42 741.20,151.54 748.80,152.65 756.40,157.53 764.00,161.84 771.60,165.41 779.20,166.74 786.80,169.28 794.40,165.90 802.00,167.98 809.60,174.18 817.20,177.33 824.80,179.45 832.40,180.26 840.00,182.64" fill="none" stroke="#1d4ed8" stroke-width="2" stroke-linejoin="round" stroke-linecap="round"/>
<text x="852.00" y="124.00" font-family="system-ui, sans-serif" font-size="12" fill="#1d4ed8" text-anchor="start">Ari Shaffir</text>
<polyline points="80.00,340.00 87.60,340.00 95.20,310.19 102.80,271.85 110.40,252.99 118.00,232.89 125.60,221.64 133.20,208.16 140.80,165.66 148.40,164.49 156.00,158.51 163.60,160.35 171.20,155.55 178.80,151.00 186.40,136.01 194.00,180.94 201.60,159.56 209.20,150.49 216.80,143.53 224.40,131.00 232.00,123.87 239.60,78.84 247.20,72.52 254.80,75.21 262.40,76.72 270.00,78.24 277.60,75.50 285.20,70.00 292.80,74.00 300.40,80.60 308.00,82.52 315.60,88.21 323.20,90.37 330.80,85.59 338.40,106.78 346.00,108.46 353.60,122.61 361.20,159.32 368.80,163.89 376.40,169.90 384.00,174.10 391.60,176.14 399.20,161.26 406.80,164.91 414.40,167.03 422.00,164.21 429.60,167.30 437.20,185.78 444.80,188.45 452.40,189.36 460.00,192.83 467.60,195.53 475.20,187.78 482.80,195.64 490.40,196.99 498.00,194.55 505.60,192.54 513.20,194.38 520.80,195.26 528.40,162.35 536.00,171.21 543.60,172.99 551.20,175.13 558.80,170.25 566.40,171.75 574.00,166.06 581.60,163.78 589.20,154.67 596.80,158.91 604.40,157.27 612.00,156.36 619.60,147.00 627.20,148.38 634.80,145.74 642.40,146.34 650.00,148.45 657.60,149.13 665.20,154.57 672.80,158.49 680.40,159.73 688.00,165.39 695.60,168.56 703.20,175.16 710.80,173.18 718.40,180.43 726.00,181.58 733.60,184.91 741.20,186.24 748.80,191.45 756.40,195.62 764.00,189.81 771.60,191.12 779.20,192.64 786.80,198.79 794.40,213.46 802.00,215.27 809.60,218.52 817.20,220.98 824.80,223.25 832.40,224.53 840.00,224.75" fill="none" stroke="#be123c" stroke-width="2" stroke-linejoin="round" stroke-linecap="round"/>
<text x="852.00" y="142.00" font-family="system-ui, sans-serif" font-size="12" fill="#be123c" text-anchor="start">Chris Hardwick</text>
<polyline points="80.00,335.70 87.60,337.87 95.20,340.00 102.80,300.96 110.40,274.61 118.00,263.49 125.60,234.14 133.20,220.13 140.80,184.35 148.40,173.62 156.00,162.14 163.60,161.33 171.20,152.45 178.80,146.93 186.40,139.26 194.00,191.52 201.60,187.41 209.20,152.10 216.80,146.94 224.40,137.70 232.00,109.97 239.60,110.65 247.20,89.79 254.80,93.33 262.40,88.41 270.00,105.74 277.60,125.69 285.20,125.40 292.80,127.93 300.40,118.99 308.00,117.37 315.60,122.95 323.20,117.17 330.80,138.93 338.40,70.00 346.00,73.71 353.60,134.17 361.20,160.15 368.80,181.24 376.40,165.41 384.00,158.10 391.60,159.59 399.20,116.24 406.80,107.81 414.40,108.69 422.00,85.29 429.60,98.12 437.20,122.78 444.80,120.60 452.40,121.70 460.00,123.20 467.60,127.63 475.20,127.41 482.80,128.65 490.40,100.37 498.00,105.36 505.60,102.97 513.20,125.74 520.80,129.28 528.40,109.18 536.00,115.77 543.60,134.36 551.20,138.52 558.80,117.48 566.40,122.47 574.00,123.29 581.60,129.61 589.20,141.00 596.80,135.86 604.40,137.63 612.00,139.46 619.60,137.82 627.20,140.41 634.80,131.38 642.40,134.30 650.00,145.56 657.60,148.87 665.20,155.35 672.80,158.92 680.40,153.38 688.00,159.69 695.60,161.95 703.20,161.59 710.80,169.41 718.40,173.21 726.00,171.02 733.60,172.07 741.20,177.01 748.80,186.32 756.40,169.78 764.00,166.74 771.60,168.80 779.20,164.61 786.80,166.53 794.40,174.20 802.00,183.47 809.60,185.50 817.20,183.30 824.80,181.23 832.40,183.76 840.00,194.59" fill="none" stroke="#6d28d9" stroke-width="2" stroke-linejoin="round" stroke-linecap="round"/>
<text x="852.00" y="160.00" font-family="system-ui, sans-serif" font-size="12" fill="#6d28d9" text-anchor="start">Jesse Thorn</text>
<polyline points="80.00,340.00 87.60,340.00 95.20,340.00 102.80,340.00 110.40,340.00 118.00,340.00 125.60,340.00 133.20,340.00 140.80,340.00 148.40,340.00 156.00,340.00 163.60,340.00 171.20,340.00 178.80,340.00 186.40,340.00 194.00,340.00 201.60,340.00 209.20,340.00 216.80,340.00 224.40,340.00 232.00,340.00 239.60,340.00 247.20,340.00 254.80,340.00 262.40,340.00 270.00,340.00 277.60,315.30 285.20,317.36 292.80,309.28 300.40,301.02 308.00,293.05 315.60,300.26 323.20,292.54 330.80,263.53 338.40,158.12 346.00,154.83 353.60,175.80 361.20,180.38 368.80,191.37 376.40,185.91 384.00,178.23 391.60,174.18 399.20,180.46 406.80,181.23 414.40,183.87 422.00,180.94 429.60,190.41 437.20,91.20 444.80,90.85 452.40,83.90 460.00,87.59 467.60,92.17 475.20,88.85 482.80,82.04 490.40,70.00 498.00,115.45 505.60,145.43 513.20,150.16 520.80,166.53 528.40,152.33 536.00,157.87 543.60,158.60 551.20,165.38 558.80,165.18 566.40,169.68 574.00,171.11 581.60,162.39 589.20,165.39 596.80,165.59 604.40,166.53 612.00,157.76 619.60,161.52 627.20,161.34 634.80,158.19 642.40,161.38 650.00,166.44 657.60,169.23 665.20,172.64 672.80,184.59 680.40,184.92 688.00,192.28 695.60,189.57 703.20,197.75 710.80,202.31 718.40,205.13 726.00,201.17 733.60,200.02 741.20,204.81 748.80,212.10 756.40,215.85 764.00,216.60 771.60,218.75 779.20,219.67 786.80,218.43 794.40,217.67 802.00,221.46 809.60,223.61 817.20,223.06 824.80,220.87 832.40,223.75 840.00,226.76" fill="none" stroke="#15803d" stroke-width="2" stroke-linejoin="round" stroke-linecap="round"/>
<text x="852.00" y="178.00" font-family="system-ui, sans-serif" font-size="12" fill="#15803d" text-anchor="start">Alison Rosen</text>
<polyline points="80.00,70.00 87.60,107.46 95.20,89.67 102.80,130.40 110.40,162.59 118.00,190.38 125.60,134.06 133.20,159.78 140.80,195.58 148.40,197.33 156.00,156.70 163.60,182.29 171.20,169.27 178.80,164.83 186.40,133.50 194.00,227.79 201.60,218.83 209.20,183.20 216.80,204.21 224.40,224.07 232.00,254.28 239.60,277.26 247.20,292.02 254.80,264.85 262.40,259.53 270.00,255.27 277.60,235.54 285.20,223.65 292.80,201.83 300.40,167.58 308.00,169.24 315.60,195.50 323.20,198.13 330.80,229.09 338.40,313.81 346.00,310.83 353.60,340.00 361.20,326.66 368.80,318.77 376.40,323.09 384.00,322.23 391.60,325.40 399.20,317.84 406.80,292.76 414.40,297.21 422.00,288.32 429.60,292.50 437.20,313.70 444.80,318.97 452.40,312.20 460.00,302.52 467.60,302.65 475.20,301.72 482.80,295.88 490.40,305.44 498.00,306.21 505.60,308.43 513.20,314.16 520.80,310.74 528.40,295.92 536.00,298.12 543.60,295.43 551.20,295.71 558.80,297.45 566.40,297.84 574.00,286.90 581.60,280.42 589.20,277.84 596.80,279.83 604.40,279.82 612.00,294.31 619.60,294.90 627.20,294.26 634.80,299.13 642.40,299.76 650.00,304.74 657.60,294.10 665.20,298.19 672.80,295.23 680.40,294.12 688.00,293.66 695.60,289.60 703.20,290.81 710.80,287.94 718.40,291.35 726.00,286.13 733.60,287.53 741.20,287.06 748.80,287.75 756.40,280.89 764.00,273.18 771.60,257.18 779.20,245.49 786.80,237.74 794.40,231.95 802.00,219.46 809.60,211.98 817.20,197.86 824.80,181.01 832.40,166.67 840.00,148.24" fill="none" stroke="#c2410c" stroke-width="2" stroke-linejoin="round" stroke-linecap="round"/>
<text x="852.00" y="196.00" font-family="system-ui, sans-serif" font-size="12" fill="#c2410c" text-anchor="start">Marshall Poe</text>
<polyline points="80.00,335.70 87.60,337.87 95.20,340.00 102.80,300.96 110.40,274.61 118.00,263.49 125.60,234.14 133.20,220.13 140.80,184.35 148.40,173.62 156.00,162.14 163.60,161.33 171.20,152.45 178.80,146.93 186.40,139.26 194.00,191.52 201.60,187.41 209.20,152.10 216.80,146.94 224.40,137.70 232.00,109.97 239.60,110.65 247.20,89.79 254.80,93.33 262.40,88.41 270.00,105.74 277.60,125.69 285.20,125.40 292.80,127.93 300.40,118.99 308.00,117.37 315.60,122.95 323.20,117.17 330.80,138.93 338.40,70.00 346.00,73.71 353.60,134.17 361.20,160.15 368.80,181.24 376.40,165.41 384.00,158.10 391.60,159.59 399.20,116.24 406.80,107.81 414.40,108.69 422.00,85.29 429.60,98.12 437.20,122.78 444.80,120.60 452.40,121.70 460.00,123.20 467.60,127.63 475.20,127.41 482.80,128.65 490.40,100.37 498.00,105.36 505.60,102.97 513.20,125.74 520.80,129.28 528.40,109.18 536.00,115.77 543.60,134.36 551.20,138.52 558.80,117.48 566.40,122.47 574.00,123.29 581.60,129.61 589.20,141.00 596.80,135.86 604.40,137.63 612.00,139.46 619.60,137.82 627.20,140.41 634.80,131.38 642.40,134.30 650.00,145.56 657.60,148.87 665.20,155.94 672.80,160.76 680.40,156.44 688.00,163.87 695.60,167.87 703.20,176.20 710.80,184.73 718.40,189.57 726.00,187.79 733.60,191.98 741.20,197.33 748.80,206.30 756.40,190.41 764.00,188.96 771.60,194.95 779.20,190.56 786.80,195.58 794.40,203.67 802.00,212.74 809.60,214.41 817.20,213.42 824.80,211.34 832.40,214.25 840.00,222.19" fill="none" stroke="#0369a1" stroke-width="2" stroke-linejoin="round" stroke-linecap="round"/>
<text x="852.00" y="214.00" font-family="system-ui, sans-serif" font-size="12" fill="#0369a1" text-anchor="start">Jordan Morris</text>
<polyline points="80.00,340.00 87.60,340.00 95.20,340.00 102.80,340.00 110.40,340.00 118.00,340.00 125.60,340.00 133.20,340.00 140.80,340.00 148.40,340.00 156.00,340.00 163.60,340.00 171.20,340.00 178.80,326.58 186.40,327.20 194.00,330.50 201.60,331.08 209.20,331.16 216.80,331.49 224.40,331.80 232.00,332.26 239.60,332.88 247.20,333.10 254.80,333.47 262.40,333.96 270.00,334.23 277.60,334.57 285.20,334.93 292.80,335.15 300.40,335.48 308.00,335.79 315.60,336.11 323.20,336.31 330.80,336.57 338.40,337.13 346.00,337.27 353.60,319.74 361.20,311.34 368.80,259.40 376.40,245.15 384.00,236.82 391.60,231.83 399.20,235.59 406.80,221.78 414.40,213.75 422.00,210.43 429.60,208.09 437.20,161.31 444.80,135.47 452.40,131.84 460.00,130.70 467.60,116.33 475.20,113.28 482.80,75.30 490.40,75.54 498.00,95.17 505.60,86.29 513.20,78.68 520.80,76.41 528.40,70.00 536.00,75.58 543.60,81.02 551.20,72.51 558.80,95.90 566.40,91.78 574.00,88.71 581.60,86.07 589.20,71.32 596.80,79.92 604.40,78.26 612.00,80.54 619.60,84.10 627.20,82.52 634.80,92.25 642.40,80.35 650.00,79.63 657.60,83.13 665.20,85.74 672.80,76.82 680.40,78.96 688.00,80.45 695.60,85.49 703.20,91.34 710.80,84.06 718.40,89.31 726.00,95.05 733.60,98.46 741.20,97.86 748.80,105.13 756.40,100.00 764.00,103.77 771.60,94.59 779.20,99.47 786.80,98.12 794.40,80.59 802.00,86.39 809.60,93.86 817.20,97.96 824.80,104.24 832.40,104.70 840.00,109.22" fill="none" stroke="#7c2d12" stroke-width="2" stroke-linejoin="round" stroke-linecap="round"/>
<text x="852.00" y="232.00" font-family="system-ui, sans-serif" font-size="12" fill="#7c2d12" text-anchor="start">Bert Kreischer</text>
<polyline points="80.00,340.00 87.60,340.00 95.20,340.00 102.80,340.00 110.40,340.00 118.00,340.00 125.60,320.06 133.20,320.89 140.80,322.05 148.40,323.27 156.00,324.13 163.60,324.82 171.20,325.34 178.80,325.98 186.40,326.63 194.00,330.08 201.60,330.68 209.20,330.76 216.80,331.10 224.40,331.43 232.00,331.92 239.60,332.56 247.20,332.79 254.80,333.18 262.40,333.68 270.00,333.97 277.60,334.33 285.20,334.71 292.80,334.93 300.40,335.28 308.00,335.60 315.60,335.94 323.20,336.14 330.80,336.41 338.40,337.00 346.00,337.15 353.60,337.33 361.20,337.50 368.80,337.63 376.40,337.80 384.00,337.89 391.60,338.01 399.20,338.17 406.80,338.23 414.40,338.31 422.00,338.38 429.60,338.48 437.20,338.69 444.80,338.75 452.40,338.79 460.00,338.84 467.60,335.03 475.20,331.38 482.80,328.04 490.40,322.92 498.00,314.86 505.60,306.71 513.20,145.90 520.80,136.33 528.40,173.65 536.00,168.92 543.60,163.24 551.20,162.86 558.80,165.49 566.40,162.26 574.00,154.86 581.60,154.11 589.20,154.20 596.80,129.40 604.40,127.19 612.00,113.51 619.60,112.95 627.20,110.02 634.80,114.83 642.40,108.37 650.00,103.00 657.60,103.75 665.20,103.15 672.80,106.65 680.40,109.85 688.00,114.27 695.60,120.18 703.20,122.86 710.80,119.53 718.40,120.02 726.00,129.37 733.60,129.78 741.20,130.08 748.80,70.00 756.40,75.99 764.00,77.62 771.60,80.69 779.20,75.69 786.80,77.55 794.40,75.43 802.00,79.03 809.60,87.89 817.20,94.58 824.80,95.15 832.40,97.55 840.00,101.61" fill="none" stroke="#4338ca" stroke-width="2" stroke-linejoin="round" stroke-linecap="round"/>
<text x="852.00" y="250.00" font-family="system-ui, sans-serif" font-size="12" fill="#4338ca" text-anchor="start">Joey Diaz</text>
</svg>