<svg xmlns="http://www.w3.org/2000/svg" viewBox="0 0 920 430" role="img">
<title>Network Evolution</title>
<rect width="100%" height="100%" fill="#ffffff"/>
<text x="30.00" y="34.00" font-family="system-ui, sans-serif" font-size="22" fill="#1f2937" text-anchor="start">Network Evolution</text>
<line x1="80" y1="340" x2="840" y2="340" stroke="#475467"/><line x1="80" y1="70" x2="80" y2="340" stroke="#475467"/><text x="460.00" y="386.00" font-family="system-ui, sans-serif" font-size="12" fill="#667085" text-anchor="middle">value</text>
<polyline points="80.00,340.00 87.60,339.63 95.20,339.19 102.80,338.72 110.40,338.33 118.00,337.93 125.60,337.42 133.20,337.05 140.80,336.49 148.40,335.96 156.00,335.35 163.60,334.84 171.20,334.45 178.80,333.91 186.40,333.33 194.00,332.75 201.60,332.03 209.20,331.47 216.80,331.01 224.40,330.52 232.00,329.84 239.60,328.94 247.20,327.98 254.80,327.08 262.40,326.05 270.00,325.19 277.60,324.10 285.20,322.94 292.80,322.01 300.40,320.76 308.00,319.29 315.60,318.11 323.20,316.87 330.80,315.62 338.40,313.85 346.00,312.39 353.60,311.18 361.20,309.20 368.80,306.83 376.40,304.44 384.00,302.58 391.60,300.30 399.20,298.30 406.80,296.42 414.40,294.40 422.00,292.17 429.60,289.75 437.20,286.80 444.80,284.48 452.40,282.66 460.00,280.13 467.60,277.85 475.20,275.60 482.80,273.27 490.40,271.11 498.00,268.79 505.60,266.77 513.20,264.12 520.80,261.30 528.40,258.84 536.00,255.79 543.60,253.33 551.20,250.68 558.80,247.92 566.40,245.41 574.00,242.48 581.60,239.06 589.20,235.81 596.80,232.04 604.40,228.46 612.00,224.26 619.60,220.63 627.20,217.00 634.80,213.54 642.40,209.85 650.00,205.41 657.60,201.18 665.20,197.09 672.80,192.60 680.40,187.98 688.00,183.12 695.60,177.31 703.20,172.08 710.80,167.80 718.40,163.99 726.00,159.60 733.60,155.13 741.20,150.14 748.80,145.65 756.40,140.38 764.00,135.59 771.60,130.73 779.20,125.52 786.80,119.90 794.40,112.95 802.00,105.21 809.60,98.52 817.20,92.15 824.80,84.99 832.40,77.72 840.00,70.00" fill="none" stroke="#0f766e" stroke-width="2" stroke-linejoin="round" stroke-linecap="round"/>
<text x="852.00" y="88.00" font-family="system-ui, sans-serif" font-size="12" fill="#0f766e" text-anchor="start">num_people</text>
<polyline points="80.00,340.00 87.60,336.49 95.20,334.74 102.80,332.99 110.40,332.99 118.00,331.23 125.60,329.48 133.20,327.73 140.80,327.73 148.40,325.97 156.00,325.97 163.60,325.97 171.20,325.97 178.80,324.22 186.40,324.22 194.00,322.47 201.60,322.47 209.20,322.47 216.80,320.71 224.40,318.96 232.00,313.70 239.60,308.44 247.20,306.69 254.80,306.69 262.40,306.69 270.00,306.69 277.60,303.18 285.20,303.18 292.80,299.68 300.40,297.92 308.00,297.92 315.60,296.17 323.20,292.66 330.80,289.16 338.40,289.16 346.00,285.65 353.60,283.90 361.20,280.39 368.80,278.64 376.40,273.38 384.00,268.12 391.60,266.36 399.20,266.36 406.80,262.86 414.40,261.10 422.00,261.10 429.60,259.35 437.20,257.60 444.80,255.84 452.40,252.34 460.00,250.58 467.60,243.57 475.20,241.82 482.80,238.31 490.40,233.05 498.00,233.05 505.60,229.55 513.20,229.55 520.80,227.79 528.40,222.53 536.00,217.27 543.60,213.77 551.20,210.26 558.80,206.75 566.40,205.00 574.00,199.74 581.60,196.23 589.20,189.22 596.80,185.71 604.40,178.70 612.00,176.95 619.60,173.44 627.20,169.94 634.80,169.94 642.40,164.68 650.00,161.17 657.60,159.42 665.20,152.40 672.80,147.14 680.40,143.64 688.00,141.88 695.60,140.13 703.20,138.38 710.80,136.62 718.40,133.12 726.00,131.36 733.60,129.61 741.20,127.86 748.80,124.35 756.40,122.60 764.00,120.84 771.60,113.83 779.20,108.57 786.80,103.31 794.40,89.29 802.00,77.01 809.60,77.01 817.20,73.51 824.80,70.00 832.40,70.00 840.00,70.00" fill="none" stroke="#b45309" stroke-width="2" stroke-linejoin="round" stroke-linecap="round"/>
<text x="852.00" y="106.00" font-family="system-ui, sans-serif" font-size="12" fill="#b45309" text-anchor="start">num_podcasts</text>
<polyline points="80.00,340.00 87.60,339.95 95.20,339.90 102.80,339.84 110.40,152.15 118.00,149.12 125.60,134.97 133.20,134.09 140.80,147.47 148.40,146.76 156.00,145.72 163.60,98.10 171.20,98.85 178.80,96.52 186.40,100.42 194.00,104.00 201.60,106.51 209.20,108.36 216.80,109.21 224.40,109.85 232.00,110.50 239.60,112.66 247.20,129.84 254.80,115.10 262.40,114.29 270.00,118.57 277.60,117.71 285.20,120.10 292.80,118.01 300.40,113.14 308.00,111.22 315.60,113.52 323.20,113.60 330.80,115.10 338.40,112.48 346.00,112.15 353.60,112.90 361.20,112.80 368.80,110.28 376.40,109.25 384.00,70.00 391.60,70.61 399.20,72.34 406.80,72.72 414.40,73.04 422.00,73.41 429.60,73.84 437.20,70.92 444.80,71.02 452.40,72.83 460.00,71.88 467.60,72.03 475.20,71.30 482.80,71.57 490.40,70.92 498.00,70.90 505.60,83.58 513.20,84.71 520.80,84.39 528.40,86.40 536.00,87.54 543.60,88.75 551.20,89.11 558.80,90.83 566.40,85.36 574.00,84.51 581.60,83.87 589.20,86.15 596.80,84.24 604.40,85.16 612.00,85.84 619.60,93.17 627.20,91.94 634.80,100.33 642.40,99.68 650.00,99.76 657.60,99.19 665.20,100.75 672.80,99.44 680.40,99.28 688.00,98.78 695.60,99.35 703.20,98.88 710.80,98.36 718.40,99.23 726.00,99.55 733.60,100.55 741.20,102.61 748.80,102.96 756.40,103.58 764.00,104.16 771.60,103.84 779.20,104.41 786.80,104.40 794.40,104.54 802.00,104.11 809.60,105.17 817.20,105.73 824.80,106.43 832.40,106.54 840.00,106.70" fill="none" stroke="#1d4ed8" stroke-width="2" stroke-linejoin="round" stroke-linecap="round"/>
<text x="852.00" y="124.00" font-family="system-ui, sans-serif" font-size="12" fill="#1d4ed8" text-anchor="start">avg_path</text>
<polyline points="80.00,143.06 87.60,148.43 95.20,153.52 102.80,159.91 110.40,70.00 118.00,86.64 125.60,123.98 133.20,141.51 140.80,160.32 148.40,174.86 156.00,187.27 163.60,261.81 171.20,264.95 178.80,269.58 186.40,272.89 194.00,274.54 201.60,277.97 209.20,279.82 216.80,282.51 224.40,284.71 232.00,286.27 239.60,289.24 247.20,291.44 254.80,297.18 262.40,299.32 270.00,300.91 277.60,303.28 285.20,304.55 292.80,305.89 300.40,308.38 308.00,310.52 315.60,311.48 323.20,312.90 330.80,314.27 338.40,316.59 346.00,317.79 353.60,318.65 361.20,319.93 368.80,321.14 376.40,322.25 384.00,325.36 391.60,326.10 399.20,326.67 406.80,327.03 414.40,327.53 422.00,328.10 429.60,328.64 437.20,329.44 444.80,329.87 452.40,330.13 460.00,330.57 467.60,330.86 475.20,331.21 482.80,331.59 490.40,331.89 498.00,332.18 505.60,332.41 513.20,332.69 520.80,333.05 528.40,333.26 536.00,333.55 543.60,333.78 551.20,334.00 558.80,334.28 566.40,334.63 574.00,334.85 581.60,335.14 589.20,335.40 596.80,335.66 604.40,335.87 612.00,336.14 619.60,336.36 627.20,336.54 634.80,336.70 642.40,336.90 650.00,337.11 657.60,337.29 665.20,337.44 672.80,337.61 680.40,337.78 688.00,337.94 695.60,338.14 703.20,338.27 710.80,338.37 718.40,338.46 726.00,338.57 733.60,338.66 741.20,338.76 748.80,338.85 756.40,338.96 764.00,339.05 771.60,339.15 779.20,339.24 786.80,339.33 794.40,339.44 802.00,339.56 809.60,339.66 817.20,339.73 824.80,339.82 832.40,339.91 840.00,340.00" fill="none" stroke="#be123c" stroke-width="2" stroke-linejoin="round" stroke-linecap="round"/>
<text x="852.00" y="142.00" font-family="system-ui, sans-serif" font-size="12" fill="#be123c" text-anchor="start">density</text>
</svg>