<svg xmlns="http://www.w3.org/2000/svg" viewBox="0 0 920 430" role="img">
<title>Authority Evolution</title>
<rect width="100%" height="100%" fill="#ffffff"/>
<text x="30.00" y="34.00" font-family="system-ui, sans-serif" font-size="22" fill="#1f2937" text-anchor="start">Authority Evolution</text>
<line x1="80" y1="340" x2="840" y2="340" stroke="#475467"/><line x1="80" y1="70" x2="80" y2="340" stroke="#475467"/><text x="460.00" y="386.00" font-family="system-ui, sans-serif" font-size="12" fill="#667085" text-anchor="middle">value</text>
<polyline points="80.00,340.00 87.60,340.00 95.20,340.00 102.80,340.00 110.40,340.00 118.00,340.00 125.60,340.00 133.20,340.00 140.80,340.00 148.40,340.00 156.00,340.00 163.60,340.00 171.20,340.00 178.80,340.00 186.40,340.00 194.00,340.00 201.60,340.00 209.20,340.00 216.80,340.00 224.40,340.00 232.00,340.00 239.60,340.00 247.20,340.00 254.80,340.00 262.40,340.00 270.00,340.00 277.60,340.00 285.20,340.00 292.80,340.00 300.40,340.00 308.00,340.00 315.60,340.00 323.20,340.00 330.80,340.00 338.40,340.00 346.00,340.00 353.60,340.00 361.20,317.82 368.80,300.85 376.40,282.44 384.00,232.78 391.60,195.17 399.20,173.10 406.80,152.22 414.40,135.81 422.00,127.31 429.60,101.00 437.20,92.52 444.80,98.20 452.40,84.62 460.00,79.79 467.60,74.31 475.20,70.66 482.80,70.00 490.40,74.82 498.00,73.22 505.60,75.72 513.20,71.21 520.80,72.79 528.40,73.15 536.00,78.85 543.60,83.37 551.20,89.11 558.80,93.31 566.40,98.93 574.00,99.11 581.60,98.68 589.20,102.65 596.80,102.48 604.40,100.99 612.00,102.12 619.60,103.12 627.20,106.69 634.80,110.74 642.40,114.23 650.00,115.30 657.60,120.26 665.20,122.26 672.80,123.94 680.40,124.89 688.00,127.11 695.60,128.50 703.20,132.66 710.80,135.96 718.40,139.30 726.00,143.28 733.60,149.32 741.20,152.07 748.80,158.43 756.40,163.47 764.00,169.21 771.60,174.00 779.20,176.93 786.80,183.05 794.40,187.42 802.00,191.30 809.60,195.57 817.20,202.02 824.80,206.69 832.40,208.23 840.00,206.30" fill="none" stroke="#0f766e" stroke-width="2" stroke-linejoin="round" stroke-linecap="round"/>
<text x="852.00" y="88.00" font-family="system-ui, sans-serif" font-size="12" fill="#0f766e" text-anchor="start">Cameron Esposito</text>
<polyline points="80.00,340.00 87.60,340.00 95.20,340.00 102.80,340.00 110.40,340.00 118.00,340.00 125.60,340.00 133.20,340.00 140.80,340.00 148.40,340.00 156.00,340.00 163.60,340.00 171.20,340.00 178.80,340.00 186.40,340.00 194.00,340.00 201.60,340.00 209.20,340.00 216.80,340.00 224.40,340.00 232.00,340.00 239.60,340.00 247.20,340.00 254.80,340.00 262.40,340.00 270.00,340.00 277.60,340.00 285.20,340.00 292.80,340.00 300.40,340.00 308.00,340.00 315.60,340.00 323.20,340.00 330.80,340.00 338.40,340.00 346.00,340.00 353.60,340.00 361.20,317.82 368.80,300.85 376.40,282.44 384.00,232.78 391.60,195.17 399.20,173.10 406.80,152.22 414.40,135.81 422.00,127.31 429.60,101.00 437.20,92.52 444.80,98.20 452.40,84.62 460.00,79.79 467.60,74.31 475.20,70.66 482.80,70.00 490.40,74.82 498.00,73.22 505.60,75.72 513.20,71.21 520.80,72.79 528.40,73.15 536.00,78.85 543.60,83.37 551.20,89.11 558.80,93.31 566.40,98.93 574.00,99.11 581.60,98.68 589.20,102.65 596.80,102.48 604.40,100.99 612.00,102.12 619.60,103.12 627.20,106.69 634.80,110.74 642.40,114.23 650.00,115.30 657.60,120.26 665.20,122.26 672.80,123.94 680.40,124.89 688.00,127.11 695.60,128.50 703.20,132.66 710.80,135.96 718.40,139.30 726.00,143.28 733.60,149.32 741.20,152.07 748.80,158.43 756.40,163.47 764.00,169.21 771.60,174.00 779.20,178.10 786.80,184.52 794.40,189.54 802.00,193.56 809.60,198.05 817.20,204.36 824.80,208.92 832.40,210.77 840.00,209.55" fill="none" stroke="#b45309" stroke-width="2" stroke-linejoin="round" stroke-linecap="round"/>
<text x="852.00" y="106.00" font-family="system-ui, sans-serif" font-size="12" fill="#b45309" text-anchor="start">Rhea Butcher</text>
<polyline points="80.00,340.00 87.60,340.00 95.20,340.00 102.80,340.00 110.40,340.00 118.00,340.00 125.60,339.73 133.20,339.70 140.80,330.77 148.40,330.83 156.00,331.09 163.60,331.22 171.20,331.14 178.80,330.98 186.40,330.58 194.00,330.22 201.60,329.11 209.20,328.99 216.80,328.63 224.40,327.34 232.00,327.23 239.60,313.72 247.20,312.56 254.80,312.06 262.40,300.08 270.00,293.54 277.60,288.35 285.20,275.40 292.80,270.91 300.40,255.84 308.00,238.56 315.60,221.03 323.20,188.93 330.80,144.76 338.40,135.71 346.00,93.27 353.60,85.66 361.20,72.29 368.80,70.00 376.40,81.26 384.00,120.67 391.60,132.15 399.20,139.41 406.80,158.81 414.40,167.72 422.00,170.46 429.60,179.41 437.20,185.96 444.80,189.40 452.40,205.25 460.00,215.53 467.60,221.75 475.20,225.78 482.80,226.60 490.40,225.27 498.00,227.64 505.60,230.52 513.20,235.21 520.80,236.27 528.40,238.56 536.00,238.69 543.60,239.13 551.20,240.59 558.80,241.68 566.40,238.68 574.00,243.16 581.60,246.39 589.20,247.09 596.80,249.53 604.40,251.58 612.00,251.30 619.60,251.48 627.20,252.17 634.80,253.67 642.40,256.69 650.00,257.33 657.60,258.58 665.20,261.67 672.80,265.55 680.40,267.55 688.00,269.44 695.60,271.56 703.20,273.09 710.80,274.11 718.40,275.25 726.00,276.41 733.60,277.88 741.20,279.34 748.80,280.29 756.40,282.16 764.00,283.14 771.60,284.07 779.20,284.82 786.80,286.41 794.40,287.89 802.00,289.17 809.60,290.54 817.20,291.49 824.80,292.57 832.40,293.35 840.00,294.02" fill="none" stroke="#1d4ed8" stroke-width="2" stroke-linejoin="round" stroke-linecap="round"/>
<text x="852.00" y="124.00" font-family="system-ui, sans-serif" font-size="12" fill="#1d4ed8" text-anchor="start">Chris Hardwick</text>
<polyline points="80.00,340.00 87.60,340.00 95.20,340.00 102.80,340.00 110.40,340.00 118.00,340.00 125.60,340.00 133.20,340.00 140.80,340.00 148.40,340.00 156.00,340.00 163.60,340.00 171.20,340.00 178.80,340.00 186.40,340.00 194.00,340.00 201.60,340.00 209.20,340.00 216.80,340.00 224.40,340.00 232.00,340.00 239.60,340.00 247.20,339.17 254.80,324.05 262.40,322.42 270.00,316.83 277.60,297.30 285.20,276.59 292.80,268.06 300.40,258.33 308.00,251.94 315.60,217.76 323.20,206.53 330.80,177.92 338.40,155.90 346.00,127.66 353.60,105.26 361.20,86.69 368.80,84.30 376.40,79.23 384.00,72.29 391.60,71.07 399.20,70.00 406.80,78.25 414.40,88.24 422.00,86.06 429.60,87.19 437.20,94.60 444.80,100.15 452.40,100.11 460.00,104.15 467.60,107.09 475.20,110.53 482.80,114.55 490.40,117.58 498.00,124.38 505.60,126.93 513.20,131.52 520.80,133.05 528.40,138.12 536.00,140.81 543.60,143.65 551.20,144.88 558.80,147.58 566.40,147.69 574.00,151.75 581.60,153.40 589.20,154.34 596.80,156.64 604.40,157.71 612.00,158.86 619.60,158.58 627.20,158.39 634.80,160.32 642.40,163.51 650.00,165.07 657.60,164.91 665.20,167.64 672.80,168.58 680.40,169.37 688.00,171.79 695.60,173.48 703.20,175.77 710.80,176.83 718.40,178.69 726.00,180.08 733.60,182.55 741.20,186.10 748.80,188.60 756.40,190.99 764.00,192.96 771.60,194.79 779.20,195.82 786.80,199.19 794.40,200.94 802.00,203.82 809.60,205.69 817.20,207.88 824.80,210.15 832.40,212.78 840.00,213.73" fill="none" stroke="#be123c" stroke-width="2" stroke-linejoin="round" stroke-linecap="round"/>
<text x="852.00" y="142.00" font-family="system-ui, sans-serif" font-size="12" fill="#be123c" text-anchor="start">Pete Holmes</text>
<polyline points="80.00,340.00 87.60,340.00 95.20,340.00 102.80,340.00 110.40,315.24 118.00,314.86 125.60,313.23 133.20,311.87 140.80,310.15 148.40,309.92 156.00,310.23 163.60,310.41 171.20,309.03 178.80,308.80 186.40,308.39 194.00,306.68 201.60,305.89 209.20,306.54 216.80,306.20 224.40,304.68 232.00,303.51 239.60,299.49 247.20,295.67 254.80,295.71 262.40,291.00 270.00,254.48 277.60,226.63 285.20,221.71 292.80,216.14 300.40,204.88 308.00,175.59 315.60,141.21 323.20,131.11 330.80,119.85 338.40,100.22 346.00,75.99 353.60,70.00 361.20,76.07 368.80,72.39 376.40,72.67 384.00,74.59 391.60,82.14 399.20,91.08 406.80,102.40 414.40,107.09 422.00,113.49 429.60,125.76 437.20,137.64 444.80,137.31 452.40,147.53 460.00,154.97 467.60,165.46 475.20,170.36 482.80,176.50 490.40,182.67 498.00,187.20 505.60,192.22 513.20,196.23 520.80,198.82 528.40,201.02 536.00,202.20 543.60,202.79 551.20,201.51 558.80,205.91 566.40,206.08 574.00,204.60 581.60,206.17 589.20,208.10 596.80,211.35 604.40,215.69 612.00,217.35 619.60,219.19 627.20,220.61 634.80,223.26 642.40,222.61 650.00,224.67 657.60,223.29 665.20,222.16 672.80,221.05 680.40,218.68 688.00,217.26 695.60,217.41 703.20,214.88 710.80,213.71 718.40,215.71 726.00,215.86 733.60,214.07 741.20,216.66 748.80,219.00 756.40,219.50 764.00,219.93 771.60,219.60 779.20,219.14 786.80,222.92 794.40,224.16 802.00,224.73 809.60,225.06 817.20,224.90 824.80,226.62 832.40,228.05 840.00,228.02" fill="none" stroke="#6d28d9" stroke-width="2" stroke-linejoin="round" stroke-linecap="round"/>
<text x="852.00" y="160.00" font-family="system-ui, sans-serif" font-size="12" fill="#6d28d9" text-anchor="start">Jesse Thorn</text>
<polyline points="80.00,340.00 87.60,340.00 95.20,340.00 102.80,340.00 110.40,340.00 118.00,340.00 125.60,340.00 133.20,340.00 140.80,340.00 148.40,340.00 156.00,340.00 163.60,340.00 171.20,340.00 178.80,340.00 186.40,340.00 194.00,340.00 201.60,340.00 209.20,340.00 216.80,340.00 224.40,340.00 232.00,340.00 239.60,340.00 247.20,340.00 254.80,340.00 262.40,340.00 270.00,340.00 277.60,340.00 285.20,340.00 292.80,340.00 300.40,340.00 308.00,338.31 315.60,334.96 323.20,325.63 330.80,318.22 338.40,300.57 346.00,291.96 353.60,259.15 361.20,261.88 368.80,264.13 376.40,261.10 384.00,243.66 391.60,246.03 399.20,252.74 406.80,245.15 414.40,205.76 422.00,207.78 429.60,192.99 437.20,175.08 444.80,172.57 452.40,166.40 460.00,147.63 467.60,141.52 475.20,131.49 482.80,131.15 490.40,130.83 498.00,135.86 505.60,125.60 513.20,126.97 520.80,124.25 528.40,118.47 536.00,118.97 543.60,118.96 551.20,111.91 558.80,110.90 566.40,112.58 574.00,106.38 581.60,108.30 589.20,106.44 596.80,104.83 604.40,99.12 612.00,94.08 619.60,92.69 627.20,91.67 634.80,87.75 642.40,80.38 650.00,81.71 657.60,84.37 665.20,80.96 672.80,78.37 680.40,74.78 688.00,74.12 695.60,72.71 703.20,77.12 710.80,74.90 718.40,75.56 726.00,73.96 733.60,76.33 741.20,78.24 748.80,74.02 756.40,70.00 764.00,71.55 771.60,70.06 779.20,71.28 786.80,76.45 794.40,81.34 802.00,87.10 809.60,91.91 817.20,96.26 824.80,100.50 832.40,105.83 840.00,106.39" fill="none" stroke="#15803d" stroke-width="2" stroke-linejoin="round" stroke-linecap="round"/>
<text x="852.00" y="178.00" font-family="system-ui, sans-serif" font-size="12" fill="#15803d" text-anchor="start">Jay Larson</text>
<polyline points="80.00,340.00 87.60,340.00 95.20,340.00 102.80,340.00 110.40,340.00 118.00,340.00 125.60,340.00 133.20,340.00 140.80,340.00 148.40,340.00 156.00,340.00 163.60,340.00 171.20,340.00 178.80,340.00 186.40,340.00 194.00,340.00 201.60,340.00 209.20,340.00 216.80,340.00 224.40,340.00 232.00,340.00 239.60,340.00 247.20,340.00 254.80,340.00 262.40,340.00 270.00,340.00 277.60,340.00 285.20,340.00 292.80,340.00 300.40,340.00 308.00,338.31 315.60,334.96 323.20,325.63 330.80,318.22 338.40,300.57 346.00,291.96 353.60,259.15 361.20,261.88 368.80,264.13 376.40,261.10 384.00,243.66 391.60,246.03 399.20,252.74 406.80,245.15 414.40,205.76 422.00,207.78 429.60,192.99 437.20,175.08 444.80,172.57 452.40,166.40 460.00,147.63 467.60,141.52 475.20,131.49 482.80,131.15 490.40,130.83 498.00,135.86 505.60,125.60 513.20,126.97 520.80,124.25 528.40,118.47 536.00,118.97 543.60,118.96 551.20,111.91 558.80,110.90 566.40,112.58 574.00,106.38 581.60,108.30 589.20,106.44 596.80,104.83 604.40,99.12 612.00,94.08 619.60,92.69 627.20,91.67 634.80,87.75 642.40,80.38 650.00,81.71 657.60,84.37 665.20,80.96 672.80,78.37 680.40,74.78 688.00,74.12 695.60,72.71 703.20,77.12 710.80,74.90 718.40,75.56 726.00,73.96 733.60,76.33 741.20,78.24 748.80,74.02 756.40,70.00 764.00,71.55 771.60,70.06 779.20,71.28 786.80,76.45 794.40,81.34 802.00,87.10 809.60,91.91 817.20,96.26 824.80,100.50 832.40,105.83 840.00,106.39" fill="none" stroke="#c2410c" stroke-width="2" stroke-linejoin="round" stroke-linecap="round"/>
<text x="852.00" y="196.00" font-family="system-ui, sans-serif" font-size="12" fill="#c2410c" text-anchor="start">Ryan Sickler</text>
<polyline points="80.00,340.00 87.60,340.00 95.20,340.00 102.80,340.00 110.40,315.24 118.00,314.86 125.60,313.23 133.20,311.87 140.80,310.15 148.40,309.92 156.00,310.23 163.60,310.41 171.20,309.03 178.80,308.80 186.40,308.39 194.00,306.68 201.60,305.89 209.20,306.54 216.80,306.20 224.40,304.68 232.00,303.51 239.60,299.49 247.20,295.67 254.80,295.71 262.40,291.00 270.00,254.48 277.60,226.63 285.20,221.71 292.80,216.14 300.40,204.88 308.00,175.59 315.60,141.21 323.20,131.11 330.80,119.85 338.40,100.22 346.00,75.99 353.60,70.00 361.20,76.07 368.80,72.39 376.40,72.67 384.00,74.59 391.60,82.14 399.20,91.08 406.80,102.40 414.40,107.09 422.00,113.49 429.60,125.76 437.20,137.64 444.80,137.31 452.40,147.53 460.00,154.97 467.60,165.46 475.20,170.36 482.80,176.50 490.40,182.67 498.00,187.20 505.60,192.22 513.20,196.23 520.80,198.82 528.40,201.02 536.00,202.20 543.60,202.79 551.20,201.51 558.80,205.91 566.40,206.08 574.00,204.60 581.60,206.17 589.20,208.10 596.80,211.35 604.40,215.69 612.00,217.35 619.60,219.19 627.20,220.61 634.80,223.26 642.40,222.61 650.00,224.67 657.60,223.29 665.20,222.39 672.80,222.33 680.40,222.43 688.00,223.71 695.60,224.62 703.20,223.78 710.80,224.06 718.40,226.54 726.00,226.97 733.60,227.90 741.20,230.95 748.80,233.37 756.40,236.10 764.00,237.39 771.60,238.26 779.20,239.17 786.80,242.67 794.40,245.11 802.00,246.30 809.60,246.92 817.20,248.95 824.80,251.03 832.40,252.35 840.00,252.51" fill="none" stroke="#0369a1" stroke-width="2" stroke-linejoin="round" stroke-linecap="round"/>
<text x="852.00" y="214.00" font-family="system-ui, sans-serif" font-size="12" fill="#0369a1" text-anchor="start">Jordan Morris</text>
<polyline points="80.00,340.00 87.60,340.00 95.20,340.00 102.80,340.00 110.40,340.00 118.00,340.00 125.60,340.00 133.20,340.00 140.80,340.00 148.40,340.00 156.00,340.00 163.60,340.00 171.20,340.00 178.80,340.00 186.40,340.00 194.00,340.00 201.60,340.00 209.20,340.00 216.80,340.00 224.40,340.00 232.00,340.00 239.60,340.00 247.20,340.00 254.80,340.00 262.40,340.00 270.00,340.00 277.60,334.32 285.20,322.38 292.80,317.16 300.40,309.56 308.00,299.87 315.60,273.55 323.20,247.64 330.80,215.78 338.40,178.08 346.00,137.26 353.60,98.10 361.20,85.38 368.80,73.71 376.40,76.51 384.00,70.00 391.60,71.84 399.20,78.24 406.80,73.70 414.40,74.97 422.00,77.23 429.60,87.80 437.20,94.24 444.80,87.53 452.40,83.74 460.00,91.34 467.60,83.52 475.20,86.23 482.80,88.72 490.40,80.65 498.00,85.12 505.60,83.90 513.20,91.47 520.80,95.26 528.40,100.95 536.00,103.52 543.60,100.82 551.20,100.44 558.80,98.75 566.40,97.24 574.00,103.39 581.60,97.06 589.20,91.13 596.80,96.08 604.40,97.88 612.00,100.09 619.60,96.18 627.20,98.41 634.80,93.26 642.40,94.45 650.00,96.34 657.60,95.70 665.20,97.89 672.80,103.80 680.40,106.16 688.00,106.47 695.60,103.67 703.20,108.30 710.80,111.76 718.40,113.33 726.00,113.52 733.60,112.95 741.20,111.45 748.80,111.94 756.40,111.20 764.00,112.71 771.60,114.91 779.20,117.82 786.80,122.66 794.40,123.88 802.00,127.42 809.60,129.11 817.20,129.54 824.80,133.81 832.40,135.26 840.00,134.50" fill="none" stroke="#7c2d12" stroke-width="2" stroke-linejoin="round" stroke-linecap="round"/>
<text x="852.00" y="232.00" font-family="system-ui, sans-serif" font-size="12" fill="#7c2d12" text-anchor="start">Alison Rosen</text>
<polyline points="80.00,340.00 87.60,340.00 95.20,340.00 102.80,340.00 110.40,340.00 118.00,340.00 125.60,339.99 133.20,339.99 140.80,339.45 148.40,339.46 156.00,339.49 163.60,339.51 171.20,339.24 178.80,339.22 186.40,307.03 194.00,306.38 201.60,305.06 209.20,306.24 216.80,306.07 224.40,274.10 232.00,275.84 239.60,271.21 247.20,271.83 254.80,270.71 262.40,265.74 270.00,262.20 277.60,259.30 285.20,249.67 292.80,245.59 300.40,232.48 308.00,225.92 315.60,217.54 323.20,192.20 330.80,155.30 338.40,143.18 346.00,109.17 353.60,89.47 361.20,78.70 368.80,78.44 376.40,70.00 384.00,94.94 391.60,116.14 399.20,140.41 406.80,146.69 414.40,162.29 422.00,167.04 429.60,175.62 437.20,185.20 444.80,189.91 452.40,196.40 460.00,201.29 467.60,207.21 475.20,209.98 482.80,208.98 490.40,212.18 498.00,214.61 505.60,210.26 513.20,209.92 520.80,209.14 528.40,211.61 536.00,211.44 543.60,209.85 551.20,207.05 558.80,205.97 566.40,206.72 574.00,205.36 581.60,204.83 589.20,205.00 596.80,209.32 604.40,210.91 612.00,212.01 619.60,213.10 627.20,210.93 634.80,210.00 642.40,211.11 650.00,213.03 657.60,214.64 665.20,214.75 672.80,214.59 680.40,216.51 688.00,214.49 695.60,212.84 703.20,214.81 710.80,216.27 718.40,215.55 726.00,215.16 733.60,211.99 741.20,212.05 748.80,212.95 756.40,214.76 764.00,213.12 771.60,213.75 779.20,213.29 786.80,213.11 794.40,215.68 802.00,217.76 809.60,217.21 817.20,219.59 824.80,221.05 832.40,222.41 840.00,224.48" fill="none" stroke="#4338ca" stroke-width="2" stroke-linejoin="round" stroke-linecap="round"/>
<text x="852.00" y="250.00" font-family="system-ui, sans-serif" font-size="12" fill="#4338ca" text-anchor="start">Joe Rogan</text>
</svg>