<svg xmlns="http://www.w3.org/2000/svg" viewBox="0 0 920 430" role="img">
<title>Hub Evolution</title>
<rect width="100%" height="100%" fill="#ffffff"/>
<text x="30.00" y="34.00" font-family="system-ui, sans-serif" font-size="22" fill="#1f2937" text-anchor="start">Hub Evolution</text>
<line x1="80" y1="340" x2="840" y2="340" stroke="#475467"/><line x1="80" y1="70" x2="80" y2="340" stroke="#475467"/><text x="460.00" y="386.00" font-family="system-ui, sans-serif" font-size="12" fill="#667085" text-anchor="middle">value</text>
<polyline points="80.00,340.00 87.60,340.00 95.20,340.00 102.80,340.00 110.40,340.00 118.00,340.00 125.60,340.00 133.20,340.00 140.80,340.00 148.40,340.00 156.00,340.00 163.60,340.00 171.20,340.00 178.80,340.00 186.40,340.00 194.00,340.00 201.60,340.00 209.20,340.00 216.80,340.00 224.40,339.90 232.00,322.19 239.60,322.03 247.20,321.89 254.80,321.99 262.40,321.88 270.00,319.78 277.60,318.85 285.20,307.12 292.80,306.60 300.40,299.00 308.00,298.25 315.60,295.24 323.20,290.54 330.80,269.98 338.40,265.48 346.00,262.54 353.60,243.25 361.20,246.91 368.80,248.88 376.40,249.98 384.00,245.07 391.60,249.93 399.20,256.91 406.80,239.35 414.40,234.62 422.00,236.69 429.60,240.00 437.20,239.35 444.80,238.52 452.40,237.18 460.00,235.36 467.60,235.81 475.20,235.28 482.80,117.99 490.40,71.22 498.00,70.00 505.60,76.11 513.20,82.71 520.80,89.06 528.40,93.32 536.00,98.98 543.60,102.74 551.20,96.98 558.80,93.80 566.40,99.49 574.00,102.85 581.60,106.90 589.20,110.62 596.80,113.59 604.40,117.84 612.00,113.14 619.60,116.32 627.20,120.63 634.80,122.13 642.40,116.35 650.00,119.67 657.60,122.48 665.20,125.64 672.80,129.25 680.40,131.99 688.00,134.33 695.60,137.08 703.20,141.36 710.80,143.56 718.40,141.58 726.00,143.72 733.60,120.54 741.20,117.35 748.80,117.38 756.40,119.08 764.00,121.26 771.60,122.94 779.20,126.22 786.80,128.51 794.40,131.52 802.00,134.08 809.60,136.30 817.20,136.43 824.80,131.29 832.40,133.56 840.00,134.47" fill="none" stroke="#0f766e" stroke-width="2" stroke-linejoin="round" stroke-linecap="round"/>
<text x="852.00" y="88.00" font-family="system-ui, sans-serif" font-size="12" fill="#0f766e" text-anchor="start">Pete Holmes</text>
<polyline points="80.00,340.00 87.60,340.00 95.20,340.00 102.80,340.00 110.40,339.87 118.00,339.86 125.60,339.86 133.20,339.70 140.80,339.70 148.40,339.72 156.00,339.75 163.60,313.58 171.20,306.68 178.80,307.54 186.40,307.74 194.00,307.00 201.60,306.53 209.20,308.62 216.80,309.70 224.40,308.81 232.00,307.31 239.60,305.51 247.20,304.04 254.80,291.83 262.40,288.97 270.00,259.99 277.60,238.15 285.20,228.37 292.80,205.00 300.40,189.59 308.00,173.36 315.60,135.57 323.20,125.98 330.80,113.18 338.40,103.62 346.00,87.05 353.60,74.76 361.20,81.16 368.80,83.19 376.40,85.57 384.00,81.99 391.60,96.19 399.20,113.23 406.80,122.09 414.40,132.41 422.00,141.77 429.60,155.95 437.20,159.09 444.80,137.91 452.40,141.14 460.00,145.94 467.60,153.45 475.20,157.14 482.80,162.54 490.40,159.55 498.00,92.21 505.60,95.55 513.20,104.23 520.80,109.22 528.40,114.02 536.00,117.31 543.60,120.32 551.20,122.83 558.80,110.81 566.40,113.07 574.00,115.40 581.60,119.83 589.20,122.00 596.80,126.59 604.40,131.26 612.00,134.51 619.60,137.82 627.20,140.52 634.80,141.94 642.40,142.64 650.00,145.72 657.60,146.56 665.20,70.00 672.80,72.69 680.40,75.73 688.00,78.48 695.60,81.74 703.20,85.84 710.80,88.04 718.40,90.80 726.00,89.50 733.60,91.29 741.20,93.66 748.80,95.03 756.40,97.31 764.00,99.57 771.60,101.68 779.20,105.25 786.80,106.73 794.40,110.61 802.00,113.92 809.60,116.50 817.20,119.19 824.80,122.81 832.40,118.11 840.00,119.20" fill="none" stroke="#b45309" stroke-width="2" stroke-linejoin="round" stroke-linecap="round"/>
<text x="852.00" y="106.00" font-family="system-ui, sans-serif" font-size="12" fill="#b45309" text-anchor="start">Nick Thune</text>
<polyline points="80.00,340.00 87.60,340.00 95.20,340.00 102.80,340.00 110.40,340.00 118.00,340.00 125.60,340.00 133.20,340.00 140.80,340.00 148.40,340.00 156.00,70.00 163.60,79.31 171.20,82.72 178.80,88.34 186.40,92.05 194.00,95.13 201.60,95.85 209.20,105.68 216.80,112.79 224.40,114.38 232.00,112.98 239.60,121.91 247.20,127.11 254.80,132.32 262.40,139.23 270.00,145.31 277.60,153.10 285.20,160.79 292.80,165.99 300.40,174.48 308.00,187.89 315.60,204.14 323.20,219.47 330.80,239.22 338.40,249.81 346.00,269.66 353.60,272.91 361.20,281.37 368.80,287.02 376.40,291.52 384.00,290.35 391.60,293.72 399.20,294.74 406.80,294.99 414.40,296.01 422.00,298.13 429.60,301.17 437.20,300.07 444.80,300.93 452.40,300.02 460.00,297.52 467.60,295.89 475.20,296.56 482.80,293.76 490.40,293.94 498.00,294.92 505.60,295.02 513.20,295.58 520.80,296.07 528.40,296.55 536.00,297.21 543.60,297.59 551.20,297.35 558.80,297.55 566.40,298.14 574.00,298.14 581.60,298.56 589.20,298.54 596.80,298.84 604.40,299.14 612.00,299.60 619.60,300.04 627.20,300.40 634.80,300.54 642.40,300.32 650.00,300.74 657.60,300.65 665.20,300.68 672.80,300.59 680.40,300.91 688.00,301.18 695.60,301.46 703.20,301.96 710.80,302.19 718.40,301.41 726.00,301.58 733.60,301.76 741.20,302.18 748.80,302.27 756.40,296.21 764.00,296.07 771.60,296.09 779.20,296.56 786.80,296.77 794.40,297.27 802.00,283.09 809.60,283.73 817.20,284.56 824.80,285.39 832.40,286.33 840.00,286.54" fill="none" stroke="#1d4ed8" stroke-width="2" stroke-linejoin="round" stroke-linecap="round"/>
<text x="852.00" y="124.00" font-family="system-ui, sans-serif" font-size="12" fill="#1d4ed8" text-anchor="start">Moshe Kasher</text>
<polyline points="80.00,340.00 87.60,340.00 95.20,340.00 102.80,340.00 110.40,324.63 118.00,324.40 125.60,323.82 133.20,322.64 140.80,321.91 148.40,322.44 156.00,323.65 163.60,319.07 171.20,313.61 178.80,314.30 186.40,314.36 194.00,313.73 201.60,313.30 209.20,314.98 216.80,315.85 224.40,315.12 232.00,313.93 239.60,312.16 247.20,310.75 254.80,311.60 262.40,309.47 270.00,291.45 277.60,264.33 285.20,261.54 292.80,258.13 300.40,248.38 308.00,235.84 315.60,215.39 323.20,211.07 330.80,208.47 338.40,197.87 346.00,190.14 353.60,183.93 361.20,193.48 368.80,195.99 376.40,107.06 384.00,78.56 391.60,74.67 399.20,79.13 406.80,77.07 414.40,73.35 422.00,81.63 429.60,82.93 437.20,87.50 444.80,94.34 452.40,73.58 460.00,70.00 467.60,75.72 475.20,80.35 482.80,87.80 490.40,77.30 498.00,83.69 505.60,86.97 513.20,91.97 520.80,97.87 528.40,101.09 536.00,106.10 543.60,110.50 551.20,115.31 558.80,117.53 566.40,122.62 574.00,124.18 581.60,127.42 589.20,130.68 596.80,105.62 604.40,110.83 612.00,115.01 619.60,118.53 627.20,122.50 634.80,125.06 642.40,126.52 650.00,130.20 657.60,132.17 665.20,134.53 672.80,137.67 680.40,140.14 688.00,142.65 695.60,143.03 703.20,146.25 710.80,148.21 718.40,150.18 726.00,152.14 733.60,154.89 741.20,158.25 748.80,160.66 756.40,163.04 764.00,165.49 771.60,167.76 779.20,171.23 786.80,158.50 794.40,161.22 802.00,163.01 809.60,165.00 817.20,167.06 824.80,169.43 832.40,171.03 840.00,171.63" fill="none" stroke="#be123c" stroke-width="2" stroke-linejoin="round" stroke-linecap="round"/>
<text x="852.00" y="142.00" font-family="system-ui, sans-serif" font-size="12" fill="#be123c" text-anchor="start">Jen Kirkman</text>
<polyline points="80.00,340.00 87.60,340.00 95.20,340.00 102.80,340.00 110.40,340.00 118.00,340.00 125.60,340.00 133.20,340.00 140.80,340.00 148.40,340.00 156.00,340.00 163.60,340.00 171.20,340.00 178.80,340.00 186.40,340.00 194.00,340.00 201.60,340.00 209.20,340.00 216.80,340.00 224.40,340.00 232.00,340.00 239.60,340.00 247.20,340.00 254.80,340.00 262.40,340.00 270.00,340.00 277.60,340.00 285.20,340.00 292.80,340.00 300.40,325.84 308.00,325.03 315.60,319.49 323.20,318.09 330.80,314.42 338.40,311.89 346.00,308.79 353.60,202.86 361.20,139.58 368.80,149.09 376.40,155.00 384.00,132.92 391.60,133.22 399.20,136.36 406.80,136.78 414.40,72.65 422.00,82.24 429.60,92.15 437.20,73.45 444.80,70.00 452.40,74.90 460.00,74.99 467.60,82.39 475.20,88.54 482.80,97.10 490.40,102.52 498.00,110.33 505.60,115.72 513.20,121.63 520.80,127.00 528.40,130.82 536.00,127.69 543.60,131.21 551.20,133.93 558.80,137.99 566.40,136.55 574.00,138.76 581.60,142.17 589.20,144.72 596.80,148.21 604.40,151.11 612.00,154.37 619.60,156.77 627.20,159.59 634.80,161.47 642.40,162.17 650.00,164.63 657.60,166.19 665.20,167.77 672.80,169.41 680.40,171.21 688.00,173.09 695.60,175.32 703.20,177.75 710.80,179.44 718.40,181.29 726.00,183.05 733.60,185.49 741.20,183.90 748.80,184.94 756.40,186.17 764.00,187.84 771.60,189.47 779.20,191.98 786.80,194.83 794.40,197.55 802.00,199.48 809.60,201.34 817.20,203.24 824.80,200.14 832.40,202.39 840.00,202.80" fill="none" stroke="#6d28d9" stroke-width="2" stroke-linejoin="round" stroke-linecap="round"/>
<text x="852.00" y="160.00" font-family="system-ui, sans-serif" font-size="12" fill="#6d28d9" text-anchor="start">Kurt Braunohler</text>
<polyline points="80.00,340.00 87.60,340.00 95.20,340.00 102.80,340.00 110.40,340.00 118.00,340.00 125.60,340.00 133.20,340.00 140.80,340.00 148.40,340.00 156.00,340.00 163.60,340.00 171.20,340.00 178.80,340.00 186.40,340.00 194.00,339.94 201.60,339.93 209.20,339.87 216.80,339.88 224.40,339.86 232.00,326.44 239.60,325.08 247.20,323.85 254.80,321.75 262.40,320.05 270.00,306.22 277.60,293.55 285.20,288.84 292.80,285.35 300.40,279.92 308.00,269.95 315.60,253.48 323.20,249.71 330.80,244.84 338.40,238.73 346.00,231.15 353.60,228.47 361.20,223.64 368.80,223.98 376.40,222.55 384.00,177.65 391.60,166.05 399.20,166.13 406.80,79.39 414.40,70.00 422.00,76.39 429.60,79.44 437.20,85.83 444.80,91.43 452.40,93.49 460.00,98.21 467.60,104.56 475.20,102.57 482.80,109.28 490.40,116.35 498.00,123.33 505.60,123.16 513.20,129.49 520.80,134.83 528.40,139.51 536.00,143.34 543.60,147.00 551.20,140.93 558.80,145.69 566.40,149.80 574.00,152.14 581.60,155.16 589.20,158.09 596.80,161.21 604.40,164.41 612.00,167.67 619.60,169.80 627.20,172.45 634.80,173.85 642.40,174.41 650.00,176.37 657.60,177.60 665.20,179.60 672.80,180.78 680.40,182.19 688.00,184.01 695.60,185.76 703.20,187.36 710.80,188.61 718.40,190.20 726.00,191.11 733.60,192.33 741.20,193.79 748.80,194.66 756.40,195.98 764.00,196.34 771.60,197.76 779.20,199.99 786.80,201.48 794.40,203.98 802.00,205.97 809.60,206.50 817.20,208.21 824.80,210.26 832.40,212.70 840.00,213.04" fill="none" stroke="#15803d" stroke-width="2" stroke-linejoin="round" stroke-linecap="round"/>
<text x="852.00" y="178.00" font-family="system-ui, sans-serif" font-size="12" fill="#15803d" text-anchor="start">Kumail Nanjiani</text>
<polyline points="80.00,340.00 87.60,340.00 95.20,340.00 102.80,340.00 110.40,340.00 118.00,340.00 125.60,340.00 133.20,340.00 140.80,340.00 148.40,340.00 156.00,70.00 163.60,79.31 171.20,82.72 178.80,88.34 186.40,92.05 194.00,95.13 201.60,95.85 209.20,105.68 216.80,112.79 224.40,114.38 232.00,117.69 239.60,124.53 247.20,129.80 254.80,136.16 262.40,144.35 270.00,138.31 277.60,142.74 285.20,151.51 292.80,156.37 300.40,160.91 308.00,171.25 315.60,185.00 323.20,200.61 330.80,221.81 338.40,233.23 346.00,253.49 353.60,261.76 361.20,272.76 368.80,278.99 376.40,284.21 384.00,270.03 391.60,275.79 399.20,256.23 406.80,256.60 414.40,227.13 422.00,231.42 429.60,233.56 437.20,237.31 444.80,240.35 452.40,242.04 460.00,244.59 467.60,247.66 475.20,250.00 482.80,253.03 490.40,254.41 498.00,256.48 505.60,258.10 513.20,260.26 520.80,260.66 528.40,261.87 536.00,263.47 543.60,265.00 551.20,266.48 558.80,267.40 566.40,268.94 574.00,269.77 581.60,271.17 589.20,272.36 596.80,273.75 604.40,275.13 612.00,276.27 619.60,277.28 627.20,276.83 634.80,277.68 642.40,278.18 650.00,279.25 657.60,279.89 665.20,280.59 672.80,280.98 680.40,281.60 688.00,282.36 695.60,283.16 703.20,284.07 710.80,284.53 718.40,285.13 726.00,285.71 733.60,286.44 741.20,287.48 748.80,288.31 756.40,289.16 764.00,287.27 771.60,287.68 779.20,288.60 786.80,286.25 794.40,287.14 802.00,287.81 809.60,285.86 817.20,286.43 824.80,287.31 832.40,288.27 840.00,288.51" fill="none" stroke="#c2410c" stroke-width="2" stroke-linejoin="round" stroke-linecap="round"/>
<text x="852.00" y="196.00" font-family="system-ui, sans-serif" font-size="12" fill="#c2410c" text-anchor="start">Eddie Pepitone</text>
<polyline points="80.00,340.00 87.60,340.00 95.20,340.00 102.80,340.00 110.40,340.00 118.00,340.00 125.60,340.00 133.20,340.00 140.80,340.00 148.40,340.00 156.00,340.00 163.60,340.00 171.20,340.00 178.80,340.00 186.40,340.00 194.00,340.00 201.60,340.00 209.20,340.00 216.80,314.66 224.40,313.46 232.00,311.86 239.60,309.29 247.20,307.05 254.80,307.88 262.40,305.02 270.00,261.61 277.60,236.75 285.20,234.66 292.80,230.38 300.40,190.55 308.00,172.04 315.60,145.44 323.20,139.75 330.80,138.33 338.40,127.68 346.00,118.31 353.60,114.98 361.20,126.79 368.80,129.86 376.40,132.92 384.00,130.64 391.60,141.67 399.20,156.76 406.80,164.62 414.40,169.99 422.00,147.79 429.60,158.37 437.20,165.32 444.80,109.01 452.40,104.04 460.00,70.00 467.60,77.83 475.20,79.94 482.80,86.19 490.40,92.96 498.00,79.68 505.60,70.28 513.20,79.34 520.80,84.92 528.40,90.51 536.00,94.56 543.60,97.14 551.20,99.31 558.80,104.38 566.40,109.60 574.00,111.10 581.60,115.33 589.20,117.79 596.80,98.36 604.40,102.94 612.00,106.92 619.60,109.84 627.20,112.74 634.80,113.95 642.40,112.54 650.00,115.12 657.60,115.19 665.20,109.68 672.80,107.03 680.40,107.74 688.00,108.75 695.60,110.76 703.20,112.57 710.80,113.21 718.40,112.19 726.00,112.64 733.60,112.08 741.20,114.12 748.80,113.90 756.40,114.24 764.00,115.59 771.60,116.11 779.20,118.72 786.80,120.82 794.40,123.18 802.00,124.58 809.60,125.98 817.20,127.15 824.80,129.86 832.40,133.50 840.00,75.93" fill="none" stroke="#0369a1" stroke-width="2" stroke-linejoin="round" stroke-linecap="round"/>
<text x="852.00" y="214.00" font-family="system-ui, sans-serif" font-size="12" fill="#0369a1" text-anchor="start">Jonah Ray</text>
<polyline points="80.00,340.00 87.60,340.00 95.20,340.00 102.80,340.00 110.40,340.00 118.00,340.00 125.60,340.00 133.20,340.00 140.80,339.86 148.40,339.87 156.00,339.88 163.60,339.89 171.20,339.83 178.80,339.83 186.40,332.78 194.00,332.71 201.60,332.44 209.20,332.99 216.80,333.17 224.40,326.70 232.00,326.71 239.60,325.99 247.20,326.39 254.80,326.50 262.40,325.76 270.00,324.90 277.60,324.41 285.20,322.73 292.80,322.00 300.40,319.56 308.00,318.74 315.60,317.47 323.20,313.39 330.80,308.03 338.40,290.24 346.00,285.91 353.60,228.39 361.20,211.56 368.80,201.70 376.40,188.61 384.00,154.70 391.60,133.91 399.20,127.63 406.80,116.08 414.40,115.07 422.00,118.13 429.60,113.54 437.20,116.46 444.80,123.46 452.40,110.99 460.00,110.74 467.60,108.85 475.20,82.16 482.80,86.54 490.40,95.05 498.00,100.55 505.60,96.74 513.20,98.46 520.80,102.21 528.40,103.32 536.00,107.44 543.60,110.82 551.20,70.00 558.80,72.80 566.40,77.81 574.00,79.10 581.60,83.47 589.20,88.05 596.80,92.16 604.40,96.00 612.00,100.27 619.60,103.51 627.20,106.54 634.80,108.23 642.40,109.25 650.00,110.90 657.60,112.11 665.20,114.58 672.80,116.99 680.40,119.11 688.00,121.28 695.60,123.68 703.20,124.86 710.80,126.95 718.40,128.49 726.00,129.94 733.60,132.39 741.20,135.23 748.80,137.18 756.40,139.96 764.00,135.02 771.60,125.23 779.20,126.01 786.80,120.35 794.40,121.59 802.00,123.91 809.60,125.88 817.20,128.02 824.80,126.71 832.40,129.97 840.00,131.37" fill="none" stroke="#7c2d12" stroke-width="2" stroke-linejoin="round" stroke-linecap="round"/>
<text x="852.00" y="232.00" font-family="system-ui, sans-serif" font-size="12" fill="#7c2d12" text-anchor="start">Ari Shaffir</text>
<polyline points="80.00,340.00 87.60,340.00 95.20,340.00 102.80,340.00 110.40,340.00 118.00,340.00 125.60,340.00 133.20,340.00 140.80,340.00 148.40,340.00 156.00,340.00 163.60,340.00 171.20,323.68 178.80,323.92 186.40,323.83 194.00,323.13 201.60,322.75 209.20,323.77 216.80,324.10 224.40,323.35 232.00,322.35 239.60,320.73 247.20,319.32 254.80,319.85 262.40,318.05 270.00,301.23 277.60,288.83 285.20,287.17 292.80,284.83 300.40,280.00 308.00,268.40 315.60,254.56 323.20,252.13 330.80,250.99 338.40,246.20 346.00,240.59 353.60,240.20 361.20,246.02 368.80,227.87 376.40,218.96 384.00,191.81 391.60,176.10 399.20,175.09 406.80,164.97 414.40,156.24 422.00,156.88 429.60,136.44 437.20,70.00 444.80,75.40 452.40,77.18 460.00,74.02 467.60,80.14 475.20,82.57 482.80,83.65 490.40,91.71 498.00,98.59 505.60,104.13 513.20,109.92 520.80,115.16 528.40,115.19 536.00,118.93 543.60,122.91 551.20,127.03 558.80,130.90 566.40,135.99 574.00,138.26 581.60,142.62 589.20,146.82 596.80,144.06 604.40,148.10 612.00,151.76 619.60,154.88 627.20,158.27 634.80,160.36 642.40,161.32 650.00,164.20 657.60,166.16 665.20,168.47 672.80,170.29 680.40,172.05 688.00,166.80 695.60,169.19 703.20,171.94 710.80,173.73 718.40,175.73 726.00,177.41 733.60,179.95 741.20,172.77 748.80,167.89 756.40,167.15 764.00,168.61 771.60,169.69 779.20,172.10 786.80,174.62 794.40,163.84 802.00,166.39 809.60,168.42 817.20,170.27 824.80,173.31 832.40,176.39 840.00,176.93" fill="none" stroke="#4338ca" stroke-width="2" stroke-linejoin="round" stroke-linecap="round"/>
<text x="852.00" y="250.00" font-family="system-ui, sans-serif" font-size="12" fill="#4338ca" text-anchor="start">Jackie Kashian</text>
</svg>