<svg xmlns="http://www.w3.org/2000/svg" viewBox="0 0 920 430" role="img">
<title>Closeness Evolution</title>
<rect width="100%" height="100%" fill="#ffffff"/>
<text x="30.00" y="34.00" font-family="system-ui, sans-serif" font-size="22" fill="#1f2937" text-anchor="start">Closeness Evolution</text>
<line x1="80" y1="340" x2="840" y2="340" stroke="#475467"/><line x1="80" y1="70" x2="80" y2="340" stroke="#475467"/><text x="460.00" y="386.00" font-family="system-ui, sans-serif" font-size="12" fill="#667085" text-anchor="middle">value</text>
<polyline points="80.00,340.00 87.60,336.17 95.20,334.60 102.80,333.23 110.40,333.59 118.00,333.95 125.60,278.98 133.20,275.99 140.80,269.45 148.40,264.04 156.00,261.57 163.60,219.16 171.20,216.90 178.80,214.30 186.40,205.20 194.00,202.46 201.60,202.11 209.20,202.07 216.80,199.58 224.40,198.51 232.00,197.22 239.60,193.58 247.20,179.92 254.80,175.66 262.40,173.17 270.00,162.25 277.60,160.23 285.20,159.31 292.80,157.77 300.40,157.15 308.00,151.71 315.60,149.41 323.20,146.55 330.80,144.49 338.40,136.10 346.00,134.39 353.60,132.20 361.20,129.78 368.80,128.83 376.40,126.80 384.00,126.03 391.60,125.08 399.20,124.93 406.80,124.59 414.40,123.52 422.00,122.24 429.60,120.09 437.20,119.65 444.80,119.03 452.40,118.76 460.00,118.16 467.60,117.39 475.20,117.08 482.80,116.92 490.40,116.64 498.00,116.27 505.60,106.53 513.20,106.34 520.80,106.18 528.40,96.22 536.00,97.00 543.60,97.65 551.20,98.44 558.80,98.84 566.40,98.57 574.00,99.92 581.60,100.05 589.20,100.35 596.80,100.69 604.40,100.60 612.00,99.82 619.60,88.50 627.20,88.07 634.80,88.13 642.40,88.33 650.00,88.80 657.60,89.56 665.20,84.69 672.80,85.62 680.40,85.96 688.00,86.47 695.60,82.97 703.20,82.60 710.80,83.04 718.40,82.96 726.00,78.49 733.60,77.30 741.20,77.00 748.80,76.55 756.40,75.69 764.00,75.39 771.60,76.05 779.20,75.17 786.80,75.15 794.40,75.94 802.00,76.97 809.60,70.00 817.20,70.49 824.80,70.97 832.40,71.19 840.00,71.67" fill="none" stroke="#0f766e" stroke-width="2" stroke-linejoin="round" stroke-linecap="round"/>
<text x="852.00" y="88.00" font-family="system-ui, sans-serif" font-size="12" fill="#0f766e" text-anchor="start">Joe Rogan</text>
<polyline points="80.00,340.00 87.60,340.00 95.20,340.00 102.80,340.00 110.40,340.00 118.00,340.00 125.60,340.00 133.20,340.00 140.80,340.00 148.40,340.00 156.00,340.00 163.60,340.00 171.20,340.00 178.80,340.00 186.40,340.00 194.00,340.00 201.60,340.00 209.20,340.00 216.80,340.00 224.40,244.59 232.00,226.43 239.60,223.70 247.20,202.90 254.80,175.72 262.40,172.93 270.00,170.78 277.60,163.77 285.20,159.63 292.80,158.49 300.40,150.36 308.00,147.25 315.60,144.52 323.20,142.27 330.80,126.05 338.40,120.45 346.00,118.87 353.60,114.35 361.20,113.61 368.80,112.34 376.40,110.15 384.00,109.12 391.60,107.71 399.20,106.91 406.80,106.00 414.40,105.31 422.00,104.71 429.60,104.76 437.20,105.33 444.80,104.49 452.40,104.50 460.00,104.83 467.60,103.94 475.20,104.03 482.80,101.26 490.40,100.95 498.00,100.94 505.60,94.45 513.20,94.19 520.80,94.35 528.40,95.14 536.00,95.29 543.60,95.37 551.20,96.15 558.80,91.84 566.40,91.46 574.00,92.69 581.60,91.99 589.20,92.28 596.80,93.03 604.40,92.15 612.00,91.24 619.60,91.82 627.20,91.97 634.80,80.96 642.40,81.78 650.00,82.26 657.60,82.70 665.20,82.98 672.80,83.58 680.40,84.54 688.00,85.15 695.60,86.06 703.20,86.62 710.80,86.76 718.40,87.32 726.00,88.18 733.60,80.61 741.20,74.63 748.80,73.99 756.40,74.04 764.00,74.42 771.60,74.38 779.20,73.43 786.80,73.86 794.40,73.94 802.00,74.12 809.60,74.23 817.20,70.88 824.80,70.00 832.40,70.37 840.00,70.24" fill="none" stroke="#b45309" stroke-width="2" stroke-linejoin="round" stroke-linecap="round"/>
<text x="852.00" y="106.00" font-family="system-ui, sans-serif" font-size="12" fill="#b45309" text-anchor="start">Pete Holmes</text>
<polyline points="80.00,340.00 87.60,340.00 95.20,330.76 102.80,313.03 110.40,244.99 118.00,242.72 125.60,232.51 133.20,227.70 140.80,213.73 148.40,209.14 156.00,206.17 163.60,148.13 171.20,145.74 178.80,142.92 186.40,141.49 194.00,141.69 201.60,139.91 209.20,138.56 216.80,135.39 224.40,133.69 232.00,131.79 239.60,127.60 247.20,126.66 254.80,123.48 262.40,122.42 270.00,118.70 277.60,117.83 285.20,112.97 292.80,113.56 300.40,111.41 308.00,110.20 315.60,107.81 323.20,106.42 330.80,101.70 338.40,97.93 346.00,97.51 353.60,96.87 361.20,96.43 368.80,97.48 376.40,97.34 384.00,94.81 391.60,94.65 399.20,94.07 406.80,94.57 414.40,94.56 422.00,94.30 429.60,94.79 437.20,95.50 444.80,95.65 452.40,93.54 460.00,94.59 467.60,94.44 475.20,94.55 482.80,94.71 490.40,94.85 498.00,95.05 505.60,87.91 513.20,87.81 520.80,88.03 528.40,80.71 536.00,81.36 543.60,81.97 551.20,80.38 558.80,80.14 566.40,79.04 574.00,80.01 581.60,79.04 589.20,75.98 596.80,76.64 604.40,77.19 612.00,76.93 619.60,77.65 627.20,78.72 634.80,72.70 642.40,73.10 650.00,70.00 657.60,71.44 665.20,71.85 672.80,72.98 680.40,73.48 688.00,74.69 695.60,74.83 703.20,75.54 710.80,75.84 718.40,76.38 726.00,77.35 733.60,77.01 741.20,77.43 748.80,77.81 756.40,78.59 764.00,79.03 771.60,79.79 779.20,79.81 786.80,80.38 794.40,80.11 802.00,80.79 809.60,81.18 817.20,81.63 824.80,82.04 832.40,82.32 840.00,82.97" fill="none" stroke="#1d4ed8" stroke-width="2" stroke-linejoin="round" stroke-linecap="round"/>
<text x="852.00" y="124.00" font-family="system-ui, sans-serif" font-size="12" fill="#1d4ed8" text-anchor="start">Chris Hardwick</text>
<polyline points="80.00,340.00 87.60,340.00 95.20,340.00 102.80,340.00 110.40,340.00 118.00,340.00 125.60,340.00 133.20,340.00 140.80,340.00 148.40,340.00 156.00,340.00 163.60,340.00 171.20,340.00 178.80,231.63 186.40,225.52 194.00,223.86 201.60,223.72 209.20,223.71 216.80,221.83 224.40,221.04 232.00,220.07 239.60,217.47 247.20,208.79 254.80,203.96 262.40,202.19 270.00,195.28 277.60,193.82 285.20,180.12 292.80,179.67 300.40,178.04 308.00,174.43 315.60,170.77 323.20,165.35 330.80,161.15 338.40,153.83 346.00,152.51 353.60,150.30 361.20,148.31 368.80,145.78 376.40,143.51 384.00,139.94 391.60,138.38 399.20,137.69 406.80,135.70 414.40,134.38 422.00,133.22 429.60,132.29 437.20,131.97 444.80,130.48 452.40,111.75 460.00,111.43 467.60,110.35 475.20,110.08 482.80,110.13 490.40,109.73 498.00,109.00 505.60,92.79 513.20,89.79 520.80,89.80 528.40,90.59 536.00,90.55 543.60,91.06 551.20,91.96 558.80,92.11 566.40,91.22 574.00,92.02 581.60,92.45 589.20,93.15 596.80,93.89 604.40,92.65 612.00,88.59 619.60,83.40 627.20,82.13 634.80,70.00 642.40,70.70 650.00,71.69 657.60,71.62 665.20,72.05 672.80,72.99 680.40,73.41 688.00,72.88 695.60,73.56 703.20,73.60 710.80,74.40 718.40,75.01 726.00,75.35 733.60,75.74 741.20,76.33 748.80,75.93 756.40,75.53 764.00,75.80 771.60,75.75 779.20,74.87 786.80,74.53 794.40,74.60 802.00,74.73 809.60,74.33 817.20,74.63 824.80,74.53 832.40,74.83 840.00,75.13" fill="none" stroke="#be123c" stroke-width="2" stroke-linejoin="round" stroke-linecap="round"/>
<text x="852.00" y="142.00" font-family="system-ui, sans-serif" font-size="12" fill="#be123c" text-anchor="start">Bert Kreischer</text>
<polyline points="80.00,340.00 87.60,336.13 95.20,335.34 102.80,334.64 110.40,334.85 118.00,335.07 125.60,283.83 133.20,281.31 140.80,276.08 148.40,271.86 156.00,269.86 163.60,232.67 171.20,230.94 178.80,228.88 186.40,222.62 194.00,220.91 201.60,220.78 209.20,220.77 216.80,218.84 224.40,218.03 232.00,217.03 239.60,214.18 247.20,204.01 254.80,185.01 262.40,176.58 270.00,166.82 277.60,164.70 285.20,149.85 292.80,149.46 300.40,148.49 308.00,143.16 315.60,139.12 323.20,136.68 330.80,134.13 338.40,126.00 346.00,124.35 353.60,118.38 361.20,116.58 368.80,113.96 376.40,110.84 384.00,106.97 391.60,105.21 399.20,104.57 406.80,104.07 414.40,102.94 422.00,102.03 429.60,101.44 437.20,101.36 444.80,100.55 452.40,100.20 460.00,99.90 467.60,98.52 475.20,97.66 482.80,97.78 490.40,97.68 498.00,97.42 505.60,92.18 513.20,92.25 520.80,92.54 528.40,93.59 536.00,93.83 543.60,94.20 551.20,85.49 558.80,85.75 566.40,85.42 574.00,86.90 581.60,87.19 589.20,83.95 596.80,84.76 604.40,84.65 612.00,84.44 619.60,79.32 627.20,80.16 634.80,74.59 642.40,75.16 650.00,72.18 657.60,72.45 665.20,72.91 672.80,70.00 680.40,70.70 688.00,71.67 695.60,72.09 703.20,72.98 710.80,73.95 718.40,74.84 726.00,75.93 733.60,76.30 741.20,77.13 748.80,76.77 756.40,76.93 764.00,77.57 771.60,77.90 779.20,76.06 786.80,75.48 794.40,74.78 802.00,75.70 809.60,76.42 817.20,76.29 824.80,75.62 832.40,74.65 840.00,74.83" fill="none" stroke="#6d28d9" stroke-width="2" stroke-linejoin="round" stroke-linecap="round"/>
<text x="852.00" y="160.00" font-family="system-ui, sans-serif" font-size="12" fill="#6d28d9" text-anchor="start">Ari Shaffir</text>
<polyline points="80.00,340.00 87.60,340.00 95.20,340.00 102.80,340.00 110.40,340.00 118.00,340.00 125.60,340.00 133.20,340.00 140.80,340.00 148.40,340.00 156.00,340.00 163.60,340.00 171.20,340.00 178.80,340.00 186.40,340.00 194.00,340.00 201.60,340.00 209.20,340.00 216.80,340.00 224.40,340.00 232.00,340.00 239.60,340.00 247.20,340.00 254.80,340.00 262.40,340.00 270.00,340.00 277.60,184.35 285.20,178.08 292.80,177.12 300.40,165.16 308.00,162.22 315.60,159.03 323.20,154.83 330.80,152.50 338.40,141.13 346.00,137.48 353.60,135.68 361.20,134.33 368.80,133.45 376.40,131.55 384.00,130.93 391.60,113.02 399.20,112.75 406.80,110.75 414.40,109.94 422.00,109.40 429.60,109.60 437.20,110.10 444.80,109.27 452.40,109.35 460.00,109.41 467.60,108.55 475.20,108.67 482.80,109.29 490.40,108.06 498.00,107.50 505.60,107.22 513.20,102.64 520.80,101.79 528.40,102.43 536.00,102.24 543.60,101.74 551.20,102.54 558.80,102.85 566.40,102.28 574.00,102.87 581.60,93.85 589.20,94.61 596.80,95.32 604.40,95.17 612.00,94.95 619.60,95.52 627.20,95.52 634.80,85.28 642.40,85.75 650.00,82.43 657.60,82.08 665.20,73.21 672.80,74.18 680.40,74.43 688.00,74.72 695.60,72.30 703.20,72.73 710.80,72.79 718.40,72.98 726.00,73.69 733.60,70.00 741.20,70.34 748.80,70.47 756.40,71.08 764.00,71.50 771.60,71.62 779.20,71.49 786.80,71.26 794.40,70.98 802.00,70.99 809.60,71.30 817.20,71.69 824.80,71.74 832.40,72.07 840.00,72.24" fill="none" stroke="#15803d" stroke-width="2" stroke-linejoin="round" stroke-linecap="round"/>
<text x="852.00" y="178.00" font-family="system-ui, sans-serif" font-size="12" fill="#15803d" text-anchor="start">Alison Rosen</text>
<polyline points="80.00,340.00 87.60,335.68 95.20,329.97 102.80,318.21 110.40,263.07 118.00,261.62 125.60,253.75 133.20,247.01 140.80,240.07 148.40,232.02 156.00,229.06 163.60,168.78 171.20,166.15 178.80,163.00 186.40,160.99 194.00,161.00 201.60,160.27 209.20,159.93 216.80,157.11 224.40,155.28 232.00,153.46 239.60,149.80 247.20,146.87 254.80,142.91 262.40,140.45 270.00,138.88 277.60,136.94 285.20,131.41 292.80,130.87 300.40,123.64 308.00,120.06 315.60,113.79 323.20,111.47 330.80,108.91 338.40,99.27 346.00,97.46 353.60,95.15 361.20,93.65 368.80,92.92 376.40,91.37 384.00,93.16 391.60,92.25 399.20,91.29 406.80,91.10 414.40,90.17 422.00,89.12 429.60,88.93 437.20,88.95 444.80,88.19 452.40,88.31 460.00,88.27 467.60,87.58 475.20,87.83 482.80,88.51 490.40,88.69 498.00,88.61 505.60,83.04 513.20,82.97 520.80,83.33 528.40,84.15 536.00,84.46 543.60,78.71 551.20,79.76 558.80,80.13 566.40,80.31 574.00,81.70 581.60,79.63 589.20,80.59 596.80,81.40 604.40,80.44 612.00,80.28 619.60,75.00 627.20,75.52 634.80,70.00 642.40,70.51 650.00,71.28 657.60,72.41 665.20,72.96 672.80,73.11 680.40,73.71 688.00,74.49 695.60,75.64 703.20,76.26 710.80,75.89 718.40,75.40 726.00,76.28 733.60,76.32 741.20,76.85 748.80,77.38 756.40,77.25 764.00,76.88 771.60,77.45 779.20,78.02 786.80,78.14 794.40,78.15 802.00,78.68 809.60,79.25 817.20,79.88 824.80,76.56 832.40,76.39 840.00,77.06" fill="none" stroke="#c2410c" stroke-width="2" stroke-linejoin="round" stroke-linecap="round"/>
<text x="852.00" y="196.00" font-family="system-ui, sans-serif" font-size="12" fill="#c2410c" text-anchor="start">Duncan Trussell</text>
<polyline points="80.00,340.00 87.60,340.00 95.20,340.00 102.80,340.00 110.40,340.00 118.00,340.00 125.60,253.36 133.20,249.74 140.80,237.18 148.40,232.72 156.00,229.58 163.60,180.62 171.20,178.18 178.80,175.18 186.40,173.04 194.00,173.36 201.60,172.15 209.20,172.03 216.80,169.17 224.40,167.70 232.00,165.71 239.60,161.82 247.20,160.73 254.80,155.50 262.40,151.35 270.00,149.31 277.60,146.61 285.20,144.46 292.80,143.55 300.40,140.68 308.00,136.98 315.60,134.20 323.20,131.23 330.80,128.28 338.40,121.31 346.00,119.95 353.60,118.55 361.20,116.74 368.80,112.36 376.40,109.76 384.00,107.39 391.60,106.23 399.20,105.77 406.80,105.60 414.40,104.92 422.00,104.08 429.60,103.82 437.20,102.35 444.80,101.53 452.40,97.43 460.00,96.91 467.60,95.78 475.20,95.93 482.80,93.65 490.40,92.40 498.00,92.51 505.60,87.37 513.20,87.00 520.80,87.16 528.40,88.08 536.00,88.29 543.60,86.52 551.20,87.35 558.80,87.25 566.40,86.39 574.00,86.47 581.60,86.22 589.20,86.78 596.80,87.46 604.40,86.48 612.00,85.41 619.60,80.28 627.20,78.76 634.80,72.73 642.40,73.09 650.00,70.00 657.60,70.93 665.20,71.36 672.80,72.41 680.40,72.86 688.00,73.65 695.60,74.07 703.20,74.93 710.80,74.98 718.40,75.57 726.00,76.47 733.60,76.44 741.20,77.00 748.80,75.51 756.40,75.51 764.00,75.65 771.60,75.82 779.20,75.01 786.80,74.72 794.40,75.05 802.00,75.11 809.60,75.06 817.20,75.59 824.80,75.90 832.40,75.72 840.00,76.36" fill="none" stroke="#0369a1" stroke-width="2" stroke-linejoin="round" stroke-linecap="round"/>
<text x="852.00" y="214.00" font-family="system-ui, sans-serif" font-size="12" fill="#0369a1" text-anchor="start">Doug Benson</text>
<polyline points="80.00,339.16 87.60,339.61 95.20,340.00 102.80,323.59 110.40,248.23 118.00,246.73 125.60,237.00 133.20,230.23 140.80,220.92 148.40,216.41 156.00,213.09 163.60,165.49 171.20,163.44 178.80,160.90 186.40,159.80 194.00,154.38 201.60,153.72 209.20,152.97 216.80,149.81 224.40,148.21 232.00,145.66 239.60,141.51 247.20,139.80 254.80,134.95 262.40,132.76 270.00,131.48 277.60,129.94 285.20,128.11 292.80,128.35 300.40,124.82 308.00,121.95 315.60,119.48 323.20,117.80 330.80,116.18 338.40,110.21 346.00,109.72 353.60,108.97 361.20,108.55 368.80,108.95 376.40,104.39 384.00,101.69 391.60,100.59 399.20,98.51 406.80,98.48 414.40,98.12 422.00,97.03 429.60,97.04 437.20,97.43 444.80,97.06 452.40,97.58 460.00,98.30 467.60,96.24 475.20,97.23 482.80,97.21 490.40,93.88 498.00,93.75 505.60,89.20 513.20,89.51 520.80,90.09 528.40,90.22 536.00,90.50 543.60,91.43 551.20,92.14 558.80,92.05 566.40,91.08 574.00,92.25 581.60,92.56 589.20,89.71 596.80,90.58 604.40,90.49 612.00,90.35 619.60,85.83 627.20,86.51 634.80,86.92 642.40,87.20 650.00,87.66 657.60,88.75 665.20,87.95 672.80,88.26 680.40,88.97 688.00,85.36 695.60,84.41 703.20,82.92 710.80,82.97 718.40,81.36 726.00,82.10 733.60,80.85 741.20,75.31 748.80,75.50 756.40,72.41 764.00,71.08 771.60,70.36 779.20,70.04 786.80,70.58 794.40,70.57 802.00,70.65 809.60,70.08 817.20,70.00 824.80,70.26 832.40,70.57 840.00,70.99" fill="none" stroke="#7c2d12" stroke-width="2" stroke-linejoin="round" stroke-linecap="round"/>
<text x="852.00" y="232.00" font-family="system-ui, sans-serif" font-size="12" fill="#7c2d12" text-anchor="start">Jesse Thorn</text>
<polyline points="80.00,340.00 87.60,340.00 95.20,340.00 102.80,340.00 110.40,340.00 118.00,340.00 125.60,340.00 133.20,340.00 140.80,340.00 148.40,340.00 156.00,240.97 163.60,211.83 171.20,210.70 178.80,209.29 186.40,206.38 194.00,206.77 201.60,207.38 209.20,207.21 216.80,205.45 224.40,205.19 232.00,202.41 239.60,199.87 247.20,164.92 254.80,157.81 262.40,148.91 270.00,131.38 277.60,128.40 285.20,126.74 292.80,126.39 300.40,123.89 308.00,120.62 315.60,117.80 323.20,116.51 330.80,113.92 338.40,107.01 346.00,106.25 353.60,104.60 361.20,104.32 368.80,103.92 376.40,102.21 384.00,93.81 391.60,93.05 399.20,91.27 406.80,86.99 414.40,87.00 422.00,85.09 429.60,85.64 437.20,85.48 444.80,85.14 452.40,83.37 460.00,83.12 467.60,80.96 475.20,81.47 482.80,77.05 490.40,77.10 498.00,77.43 505.60,77.48 513.20,77.10 520.80,77.36 528.40,78.53 536.00,79.44 543.60,79.80 551.20,81.00 558.80,77.58 566.40,76.94 574.00,78.30 581.60,77.86 589.20,78.58 596.80,79.57 604.40,80.57 612.00,80.50 619.60,79.98 627.20,80.93 634.80,75.71 642.40,76.15 650.00,74.01 657.60,74.27 665.20,70.00 672.80,71.09 680.40,72.02 688.00,72.88 695.60,72.92 703.20,73.69 710.80,74.13 718.40,74.70 726.00,75.26 733.60,75.83 741.20,76.30 748.80,75.76 756.40,73.94 764.00,74.56 771.60,74.99 779.20,74.68 786.80,74.34 794.40,75.08 802.00,73.03 809.60,73.20 817.20,73.78 824.80,73.66 832.40,74.29 840.00,74.88" fill="none" stroke="#4338ca" stroke-width="2" stroke-linejoin="round" stroke-linecap="round"/>
<text x="852.00" y="250.00" font-family="system-ui, sans-serif" font-size="12" fill="#4338ca" text-anchor="start">Moshe Kasher</text>
</svg>