<svg xmlns="http://www.w3.org/2000/svg" viewBox="0 0 920 430" role="img">
<title>Hub Distribution</title>
<rect width="100%" height="100%" fill="#ffffff"/>
<text x="30.00" y="34.00" font-family="system-ui, sans-serif" font-size="22" fill="#1f2937" text-anchor="start">Hub Distribution</text>
<line x1="80" y1="340" x2="840" y2="340" stroke="#475467"/><line x1="80" y1="70" x2="80" y2="340" stroke="#475467"/><text x="460.00" y="386.00" font-family="system-ui, sans-serif" font-size="12" fill="#667085" text-anchor="middle">log10(Hub)</text>
<rect x="81.00" y="338.96" width="29.67" height="1.04" fill="#0f766e"/>
<rect x="112.67" y="340.00" width="29.67" height="0.00" fill="#b45309"/>
<rect x="144.33" y="340.00" width="29.67" height="0.00" fill="#1d4ed8"/>
<rect x="176.00" y="338.96" width="29.67" height="1.04" fill="#be123c"/>
<rect x="207.67" y="340.00" width="29.67" height="0.00" fill="#6d28d9"/>
<rect x="239.33" y="340.00" width="29.67" height="0.00" fill="#15803d"/>
<rect x="271.00" y="340.00" width="29.67" height="0.00" fill="#c2410c"/>
<rect x="302.67" y="338.96" width="29.67" height="1.04" fill="#0369a1"/>
<rect x="334.33" y="330.65" width="29.67" height="9.35" fill="#7c2d12"/>
<rect x="366.00" y="335.85" width="29.67" height="4.15" fill="#4338ca"/>
<rect x="397.67" y="255.88" width="29.67" height="84.12" fill="#0f766e"/>
<rect x="429.33" y="317.15" width="29.67" height="22.85" fill="#b45309"/>
<rect x="461.00" y="295.35" width="29.67" height="44.65" fill="#1d4ed8"/>
<rect x="492.67" y="291.19" width="29.67" height="48.81" fill="#be123c"/>
<rect x="524.33" y="259.00" width="29.67" height="81.00" fill="#6d28d9"/>
<rect x="556.00" y="251.73" width="29.67" height="88.27" fill="#15803d"/>
<rect x="587.67" y="221.62" width="29.67" height="118.38" fill="#c2410c"/>
<rect x="619.33" y="111.54" width="29.67" height="228.46" fill="#0369a1"/>
<rect x="651.00" y="153.08" width="29.67" height="186.92" fill="#7c2d12"/>
<rect x="682.67" y="92.85" width="29.67" height="247.15" fill="#4338ca"/>
<rect x="714.33" y="70.00" width="29.67" height="270.00" fill="#0f766e"/>
<rect x="746.00" y="170.73" width="29.67" height="169.27" fill="#b45309"/>
<rect x="777.67" y="255.88" width="29.67" height="84.12" fill="#1d4ed8"/>
<rect x="809.33" y="302.62" width="29.67" height="37.38" fill="#be123c"/>
</svg>