<svg xmlns="http://www.w3.org/2000/svg" viewBox="0 0 920 430" role="img">
<title>Podcast Leadership Scores</title>
<rect width="100%" height="100%" fill="#ffffff"/>
<text x="30.00" y="34.00" font-family="system-ui, sans-serif" font-size="22" fill="#1f2937" text-anchor="start">Podcast Leadership Scores</text>
<line x1="80" y1="340" x2="840" y2="340" stroke="#475467"/><line x1="80" y1="70" x2="80" y2="340" stroke="#475467"/><text x="460.00" y="386.00" font-family="system-ui, sans-serif" font-size="12" fill="#667085" text-anchor="middle">Score</text>
<rect x="81.00" y="70.00" width="29.67" height="270.00" fill="#0f766e"/>
<rect x="112.67" y="323.42" width="29.67" height="16.58" fill="#b45309"/>
<rect x="144.33" y="321.05" width="29.67" height="18.95" fill="#1d4ed8"/>
<rect x="176.00" y="330.53" width="29.67" height="9.47" fill="#be123c"/>
<rect x="207.67" y="337.63" width="29.67" height="2.37" fill="#6d28d9"/>
<rect x="239.33" y="337.63" width="29.67" height="2.37" fill="#15803d"/>
<rect x="271.00" y="340.00" width="29.67" height="0.00" fill="#c2410c"/>
<rect x="302.67" y="337.63" width="29.67" height="2.37" fill="#0369a1"/>
<rect x="334.33" y="340.00" width="29.67" height="0.00" fill="#7c2d12"/>
<rect x="366.00" y="340.00" width="29.67" height="0.00" fill="#4338ca"/>
<rect x="397.67" y="337.63" width="29.67" height="2.37" fill="#0f766e"/>
<rect x="429.33" y="332.89" width="29.67" height="7.11" fill="#b45309"/>
<rect x="461.00" y="337.63" width="29.67" height="2.37" fill="#1d4ed8"/>
<rect x="492.67" y="340.00" width="29.67" height="0.00" fill="#be123c"/>
<rect x="524.33" y="340.00" width="29.67" height="0.00" fill="#6d28d9"/>
<rect x="556.00" y="340.00" width="29.67" height="0.00" fill="#15803d"/>
<rect x="587.67" y="340.00" width="29.67" height="0.00" fill="#c2410c"/>
<rect x="619.33" y="340.00" width="29.67" height="0.00" fill="#0369a1"/>
<rect x="651.00" y="340.00" width="29.67" height="0.00" fill="#7c2d12"/>
<rect x="682.67" y="340.00" width="29.67" height="0.00" fill="#4338ca"/>
<rect x="714.33" y="340.00" width="29.67" height="0.00" fill="#0f766e"/>
<rect x="746.00" y="340.00" width="29.67" height="0.00" fill="#b45309"/>
<rect x="777.67" y="340.00" width="29.67" height="0.00" fill="#1d4ed8"/>
<rect x="809.33" y="337.63" width="29.67" height="2.37" fill="#be123c"/>
</svg>