<svg xmlns="http://www.w3.org/2000/svg" viewBox="0 0 920 430" role="img">
<title>Podcast Similarity Graph</title>
<rect width="100%" height="100%" fill="#ffffff"/>
<text x="30.00" y="34.00" font-family="system-ui, sans-serif" font-size="22" fill="#1f2937" text-anchor="start">Podcast Similarity Graph</text>
<line x1="479.84" y1="336.60" x2="812.69" y2="179.10" stroke="#cbd5e1" stroke-opacity="0.55"/>
<line x1="479.84" y1="336.60" x2="689.06" y2="212.39" stroke="#cbd5e1" stroke-opacity="0.55"/>
<line x1="479.84" y1="336.60" x2="588.42" y2="292.60" stroke="#cbd5e1" stroke-opacity="0.55"/>
<line x1="479.84" y1="336.60" x2="554.21" y2="266.66" stroke="#cbd5e1" stroke-opacity="0.55"/>
<line x1="479.84" y1="336.60" x2="682.52" y2="295.23" stroke="#cbd5e1" stroke-opacity="0.55"/>
<line x1="479.84" y1="336.60" x2="579.10" y2="284.67" stroke="#cbd5e1" stroke-opacity="0.55"/>
<line x1="479.84" y1="336.60" x2="760.79" y2="211.41" stroke="#cbd5e1" stroke-opacity="0.55"/>
<line x1="479.84" y1="336.60" x2="723.25" y2="224.80" stroke="#cbd5e1" stroke-opacity="0.55"/>
<line x1="479.84" y1="336.60" x2="499.52" y2="324.84" stroke="#cbd5e1" stroke-opacity="0.55"/>
<line x1="479.84" y1="336.60" x2="724.29" y2="239.54" stroke="#cbd5e1" stroke-opacity="0.55"/>
<line x1="479.84" y1="336.60" x2="757.99" y2="212.84" stroke="#cbd5e1" stroke-opacity="0.55"/>
<line x1="479.84" y1="336.60" x2="737.07" y2="308.42" stroke="#cbd5e1" stroke-opacity="0.55"/>
<line x1="479.84" y1="336.60" x2="759.97" y2="245.27" stroke="#cbd5e1" stroke-opacity="0.55"/>
<line x1="479.84" y1="336.60" x2="644.00" y2="250.97" stroke="#cbd5e1" stroke-opacity="0.55"/>
<line x1="479.84" y1="336.60" x2="562.55" y2="269.56" stroke="#cbd5e1" stroke-opacity="0.55"/>
<line x1="479.84" y1="336.60" x2="761.24" y2="140.53" stroke="#cbd5e1" stroke-opacity="0.55"/>
<line x1="479.84" y1="336.60" x2="545.01" y2="280.99" stroke="#cbd5e1" stroke-opacity="0.55"/>
<line x1="479.84" y1="336.60" x2="378.76" y2="361.08" stroke="#cbd5e1" stroke-opacity="0.55"/>
<line x1="479.84" y1="336.60" x2="656.72" y2="244.85" stroke="#cbd5e1" stroke-opacity="0.55"/>
<line x1="479.84" y1="336.60" x2="443.28" y2="249.70" stroke="#cbd5e1" stroke-opacity="0.55"/>
<line x1="479.84" y1="336.60" x2="577.65" y2="282.39" stroke="#cbd5e1" stroke-opacity="0.55"/>
<line x1="479.84" y1="336.60" x2="519.19" y2="309.83" stroke="#cbd5e1" stroke-opacity="0.55"/>
<line x1="479.84" y1="336.60" x2="600.48" y2="271.41" stroke="#cbd5e1" stroke-opacity="0.55"/>
<line x1="479.84" y1="336.60" x2="305.41" y2="255.51" stroke="#cbd5e1" stroke-opacity="0.55"/>
<line x1="479.84" y1="336.60" x2="633.74" y2="242.15" stroke="#cbd5e1" stroke-opacity="0.55"/>
<line x1="479.84" y1="336.60" x2="620.48" y2="324.82" stroke="#cbd5e1" stroke-opacity="0.55"/>
<line x1="479.84" y1="336.60" x2="408.42" y2="370.00" stroke="#cbd5e1" stroke-opacity="0.55"/>
<line x1="479.84" y1="336.60" x2="714.22" y2="209.45" stroke="#cbd5e1" stroke-opacity="0.55"/>
<line x1="479.84" y1="336.60" x2="754.65" y2="350.22" stroke="#cbd5e1" stroke-opacity="0.55"/>
<line x1="479.84" y1="336.60" x2="311.01" y2="333.03" stroke="#cbd5e1" stroke-opacity="0.55"/>
<line x1="479.84" y1="336.60" x2="468.74" y2="349.81" stroke="#cbd5e1" stroke-opacity="0.55"/>
<line x1="479.84" y1="336.60" x2="708.29" y2="219.61" stroke="#cbd5e1" stroke-opacity="0.55"/>
<line x1="479.84" y1="336.60" x2="371.93" y2="338.58" stroke="#cbd5e1" stroke-opacity="0.55"/>
<line x1="479.84" y1="336.60" x2="688.30" y2="226.39" stroke="#cbd5e1" stroke-opacity="0.55"/>
<line x1="479.84" y1="336.60" x2="664.81" y2="200.15" stroke="#cbd5e1" stroke-opacity="0.55"/>
<line x1="479.84" y1="336.60" x2="588.54" y2="277.10" stroke="#cbd5e1" stroke-opacity="0.55"/>
<line x1="479.84" y1="336.60" x2="651.78" y2="246.82" stroke="#cbd5e1" stroke-opacity="0.55"/>
<line x1="479.84" y1="336.60" x2="638.10" y2="253.76" stroke="#cbd5e1" stroke-opacity="0.55"/>
<line x1="479.84" y1="336.60" x2="619.89" y2="223.07" stroke="#cbd5e1" stroke-opacity="0.55"/>
<line x1="479.84" y1="336.60" x2="731.31" y2="162.10" stroke="#cbd5e1" stroke-opacity="0.55"/>
<line x1="479.84" y1="336.60" x2="381.70" y2="304.11" stroke="#cbd5e1" stroke-opacity="0.55"/>
<line x1="812.69" y1="179.10" x2="554.21" y2="266.66" stroke="#cbd5e1" stroke-opacity="0.55"/>
<line x1="812.69" y1="179.10" x2="588.42" y2="292.60" stroke="#cbd5e1" stroke-opacity="0.55"/>
<line x1="812.69" y1="179.10" x2="545.01" y2="280.99" stroke="#cbd5e1" stroke-opacity="0.55"/>
<line x1="812.69" y1="179.10" x2="689.06" y2="212.39" stroke="#cbd5e1" stroke-opacity="0.55"/>
<line x1="812.69" y1="179.10" x2="579.10" y2="284.67" stroke="#cbd5e1" stroke-opacity="0.55"/>
<line x1="812.69" y1="179.10" x2="757.99" y2="212.84" stroke="#cbd5e1" stroke-opacity="0.55"/>
<line x1="812.69" y1="179.10" x2="724.29" y2="239.54" stroke="#cbd5e1" stroke-opacity="0.55"/>
<line x1="812.69" y1="179.10" x2="761.24" y2="140.53" stroke="#cbd5e1" stroke-opacity="0.55"/>
<line x1="812.69" y1="179.10" x2="562.55" y2="269.56" stroke="#cbd5e1" stroke-opacity="0.55"/>
<line x1="812.69" y1="179.10" x2="682.52" y2="295.23" stroke="#cbd5e1" stroke-opacity="0.55"/>
<line x1="689.06" y1="212.39" x2="652.47" y2="252.57" stroke="#cbd5e1" stroke-opacity="0.55"/>
<line x1="689.06" y1="212.39" x2="468.74" y2="349.81" stroke="#cbd5e1" stroke-opacity="0.55"/>
<line x1="689.06" y1="212.39" x2="554.21" y2="266.66" stroke="#cbd5e1" stroke-opacity="0.55"/>
<line x1="689.06" y1="212.39" x2="588.42" y2="292.60" stroke="#cbd5e1" stroke-opacity="0.55"/>
<line x1="689.06" y1="212.39" x2="759.97" y2="245.27" stroke="#cbd5e1" stroke-opacity="0.55"/>
<line x1="689.06" y1="212.39" x2="737.07" y2="308.42" stroke="#cbd5e1" stroke-opacity="0.55"/>
<line x1="689.06" y1="212.39" x2="724.29" y2="239.54" stroke="#cbd5e1" stroke-opacity="0.55"/>
<line x1="689.06" y1="212.39" x2="619.89" y2="223.07" stroke="#cbd5e1" stroke-opacity="0.55"/>
<line x1="689.06" y1="212.39" x2="761.24" y2="140.53" stroke="#cbd5e1" stroke-opacity="0.55"/>
<line x1="689.06" y1="212.39" x2="846.09" y2="219.44" stroke="#cbd5e1" stroke-opacity="0.55"/>
<line x1="689.06" y1="212.39" x2="443.28" y2="249.70" stroke="#cbd5e1" stroke-opacity="0.55"/>
<line x1="689.06" y1="212.39" x2="562.55" y2="269.56" stroke="#cbd5e1" stroke-opacity="0.55"/>
<line x1="689.06" y1="212.39" x2="682.52" y2="295.23" stroke="#cbd5e1" stroke-opacity="0.55"/>
<line x1="689.06" y1="212.39" x2="760.79" y2="211.41" stroke="#cbd5e1" stroke-opacity="0.55"/>
<line x1="588.42" y1="292.60" x2="554.21" y2="266.66" stroke="#cbd5e1" stroke-opacity="0.55"/>
<line x1="588.42" y1="292.60" x2="688.30" y2="226.39" stroke="#cbd5e1" stroke-opacity="0.55"/>
<line x1="588.42" y1="292.60" x2="724.29" y2="239.54" stroke="#cbd5e1" stroke-opacity="0.55"/>
<line x1="588.42" y1="292.60" x2="761.24" y2="140.53" stroke="#cbd5e1" stroke-opacity="0.55"/>
<line x1="588.42" y1="292.60" x2="757.99" y2="212.84" stroke="#cbd5e1" stroke-opacity="0.55"/>
<line x1="588.42" y1="292.60" x2="759.97" y2="245.27" stroke="#cbd5e1" stroke-opacity="0.55"/>
<line x1="554.21" y1="266.66" x2="724.29" y2="239.54" stroke="#cbd5e1" stroke-opacity="0.55"/>
<line x1="554.21" y1="266.66" x2="761.24" y2="140.53" stroke="#cbd5e1" stroke-opacity="0.55"/>
<line x1="554.21" y1="266.66" x2="759.97" y2="245.27" stroke="#cbd5e1" stroke-opacity="0.55"/>
<line x1="760.79" y1="211.41" x2="619.89" y2="223.07" stroke="#cbd5e1" stroke-opacity="0.55"/>
<line x1="723.25" y1="224.80" x2="724.29" y2="239.54" stroke="#cbd5e1" stroke-opacity="0.55"/>
<line x1="724.29" y1="239.54" x2="619.89" y2="223.07" stroke="#cbd5e1" stroke-opacity="0.55"/>
<line x1="724.29" y1="239.54" x2="761.24" y2="140.53" stroke="#cbd5e1" stroke-opacity="0.55"/>
<line x1="757.99" y1="212.84" x2="619.89" y2="223.07" stroke="#cbd5e1" stroke-opacity="0.55"/>
<line x1="759.97" y1="245.27" x2="846.09" y2="219.44" stroke="#cbd5e1" stroke-opacity="0.55"/>
<line x1="759.97" y1="245.27" x2="443.28" y2="249.70" stroke="#cbd5e1" stroke-opacity="0.55"/>
<line x1="759.97" y1="245.27" x2="619.89" y2="223.07" stroke="#cbd5e1" stroke-opacity="0.55"/>
<line x1="761.24" y1="140.53" x2="619.89" y2="223.07" stroke="#cbd5e1" stroke-opacity="0.55"/>
<line x1="619.89" y1="223.07" x2="846.09" y2="219.44" stroke="#cbd5e1" stroke-opacity="0.55"/>
<line x1="619.89" y1="223.07" x2="852.56" y2="192.43" stroke="#cbd5e1" stroke-opacity="0.55"/>
<line x1="619.89" y1="223.07" x2="633.74" y2="242.15" stroke="#cbd5e1" stroke-opacity="0.55"/>
<line x1="846.09" y1="219.44" x2="870.00" y2="70.00" stroke="#cbd5e1" stroke-opacity="0.55"/>
<line x1="846.09" y1="219.44" x2="854.20" y2="76.88" stroke="#cbd5e1" stroke-opacity="0.55"/>
<line x1="305.41" y1="255.51" x2="50.00" y2="262.25" stroke="#cbd5e1" stroke-opacity="0.55"/>
<line x1="305.41" y1="255.51" x2="311.01" y2="333.03" stroke="#cbd5e1" stroke-opacity="0.55"/>
<circle cx="479.84" cy="336.60" r="10.20" fill="#0f766e"/>
<text x="486.84" y="330.60" font-family="system-ui, sans-serif" font-size="10" fill="#344054" text-anchor="start">The Joe Rogan Exper…</text>
<circle cx="812.69" cy="179.10" r="9.60" fill="#b45309"/>
<text x="819.69" y="173.10" font-family="system-ui, sans-serif" font-size="10" fill="#344054" text-anchor="start">The Church of What&#x27;…</text>
<circle cx="689.06" cy="212.39" r="10.20" fill="#1d4ed8"/>
<text x="696.06" y="206.39" font-family="system-ui, sans-serif" font-size="10" fill="#344054" text-anchor="start">The Duncan Trussell…</text>
<circle cx="588.42" cy="292.60" r="8.40" fill="#be123c"/>
<text x="595.42" y="286.60" font-family="system-ui, sans-serif" font-size="10" fill="#344054" text-anchor="start">Bertcast&#x27;s podcast</text>
<circle cx="554.21" cy="266.66" r="7.20" fill="#6d28d9"/>
<text x="561.21" y="260.66" font-family="system-ui, sans-serif" font-size="10" fill="#344054" text-anchor="start">Ari Shaffir&#x27;s Skept…</text>
<circle cx="682.52" cy="295.23" r="4.80" fill="#15803d"/>
<circle cx="579.10" cy="284.67" r="4.20" fill="#c2410c"/>
<circle cx="760.79" cy="211.41" r="4.80" fill="#0369a1"/>
<circle cx="723.25" cy="224.80" r="4.20" fill="#7c2d12"/>
<circle cx="499.52" cy="324.84" r="3.60" fill="#4338ca"/>
<circle cx="724.29" cy="239.54" r="7.80" fill="#0f766e"/>
<text x="731.29" y="233.54" font-family="system-ui, sans-serif" font-size="10" fill="#344054" text-anchor="start">Kill Tony</text>
<circle cx="757.99" cy="212.84" r="5.40" fill="#b45309"/>
<text x="764.99" y="206.84" font-family="system-ui, sans-serif" font-size="10" fill="#344054" text-anchor="start">Getting Doug with H…</text>
<circle cx="737.07" cy="308.42" r="4.20" fill="#1d4ed8"/>
<circle cx="652.47" cy="252.57" r="3.60" fill="#be123c"/>
<circle cx="759.97" cy="245.27" r="7.20" fill="#6d28d9"/>
<text x="766.97" y="239.27" font-family="system-ui, sans-serif" font-size="10" fill="#344054" text-anchor="start">You Made It Weird w…</text>
<circle cx="468.74" cy="349.81" r="4.20" fill="#15803d"/>
<circle cx="644.00" cy="250.97" r="3.60" fill="#c2410c"/>
<circle cx="562.55" cy="269.56" r="4.80" fill="#0369a1"/>
<circle cx="761.24" cy="140.53" r="7.20" fill="#7c2d12"/>
<text x="768.24" y="134.53" font-family="system-ui, sans-serif" font-size="10" fill="#344054" text-anchor="start">The CrabFeast with …</text>
<circle cx="545.01" cy="280.99" r="4.20" fill="#4338ca"/>
<circle cx="619.89" cy="223.07" r="9.00" fill="#0f766e"/>
<text x="626.89" y="217.07" font-family="system-ui, sans-serif" font-size="10" fill="#344054" text-anchor="start">The Todd Glass Show</text>
<circle cx="846.09" cy="219.44" r="6.00" fill="#b45309"/>
<text x="853.09" y="213.44" font-family="system-ui, sans-serif" font-size="10" fill="#344054" text-anchor="start">Put Your Hands Toge…</text>
<circle cx="378.76" cy="361.08" r="3.60" fill="#1d4ed8"/>
<circle cx="656.72" cy="244.85" r="3.60" fill="#be123c"/>
<circle cx="443.28" cy="249.70" r="4.80" fill="#6d28d9"/>
<circle cx="688.30" cy="226.39" r="4.20" fill="#15803d"/>
<circle cx="577.65" cy="282.39" r="3.60" fill="#c2410c"/>
<circle cx="519.19" cy="309.83" r="3.60" fill="#0369a1"/>
<circle cx="600.48" cy="271.41" r="3.60" fill="#7c2d12"/>
<circle cx="305.41" cy="255.51" r="4.80" fill="#4338ca"/>
<circle cx="633.74" cy="242.15" r="4.20" fill="#0f766e"/>
<circle cx="620.48" cy="324.82" r="3.60" fill="#b45309"/>
<circle cx="408.42" cy="370.00" r="3.60" fill="#1d4ed8"/>
<circle cx="714.22" cy="209.45" r="3.60" fill="#be123c"/>
<circle cx="754.65" cy="350.22" r="3.60" fill="#6d28d9"/>
<circle cx="311.01" cy="333.03" r="4.20" fill="#15803d"/>
<circle cx="50.00" cy="262.25" r="3.60" fill="#c2410c"/>
<circle cx="708.29" cy="219.61" r="3.60" fill="#0369a1"/>
<circle cx="371.93" cy="338.58" r="3.60" fill="#7c2d12"/>
<circle cx="852.56" cy="192.43" r="3.60" fill="#4338ca"/>
<circle cx="664.81" cy="200.15" r="3.60" fill="#0f766e"/>
<circle cx="588.54" cy="277.10" r="3.60" fill="#b45309"/>
<circle cx="651.78" cy="246.82" r="3.60" fill="#1d4ed8"/>
<circle cx="870.00" cy="70.00" r="3.60" fill="#be123c"/>
<circle cx="638.10" cy="253.76" r="3.60" fill="#6d28d9"/>
<circle cx="731.31" cy="162.10" r="3.60" fill="#15803d"/>
<circle cx="381.70" cy="304.11" r="3.60" fill="#c2410c"/>
<circle cx="854.20" cy="76.88" r="3.60" fill="#0369a1"/>
</svg>