<svg xmlns="http://www.w3.org/2000/svg" viewBox="0 0 920 430" role="img">
<title>People Graph Sample</title>
<rect width="100%" height="100%" fill="#ffffff"/>
<text x="30.00" y="34.00" font-family="system-ui, sans-serif" font-size="22" fill="#1f2937" text-anchor="start">People Graph Sample</text>
<line x1="448.44" y1="220.73" x2="441.84" y2="216.15" stroke="#cbd5e1" stroke-opacity="0.55"/>
<line x1="448.44" y1="220.73" x2="453.56" y2="219.38" stroke="#cbd5e1" stroke-opacity="0.55"/>
<line x1="448.44" y1="220.73" x2="429.24" y2="222.78" stroke="#cbd5e1" stroke-opacity="0.55"/>
<line x1="448.44" y1="220.73" x2="426.93" y2="219.83" stroke="#cbd5e1" stroke-opacity="0.55"/>
<line x1="448.44" y1="220.73" x2="430.46" y2="217.76" stroke="#cbd5e1" stroke-opacity="0.55"/>
<line x1="448.44" y1="220.73" x2="482.72" y2="221.51" stroke="#cbd5e1" stroke-opacity="0.55"/>
<line x1="448.44" y1="220.73" x2="445.24" y2="221.79" stroke="#cbd5e1" stroke-opacity="0.55"/>
<line x1="448.44" y1="220.73" x2="451.68" y2="226.92" stroke="#cbd5e1" stroke-opacity="0.55"/>
<line x1="441.84" y1="216.15" x2="444.24" y2="213.97" stroke="#cbd5e1" stroke-opacity="0.55"/>
<line x1="441.84" y1="216.15" x2="448.92" y2="219.42" stroke="#cbd5e1" stroke-opacity="0.55"/>
<line x1="441.84" y1="216.15" x2="439.76" y2="213.49" stroke="#cbd5e1" stroke-opacity="0.55"/>
<line x1="441.84" y1="216.15" x2="430.71" y2="209.23" stroke="#cbd5e1" stroke-opacity="0.55"/>
<line x1="441.84" y1="216.15" x2="435.75" y2="220.87" stroke="#cbd5e1" stroke-opacity="0.55"/>
<line x1="441.84" y1="216.15" x2="445.64" y2="220.47" stroke="#cbd5e1" stroke-opacity="0.55"/>
<line x1="441.84" y1="216.15" x2="443.12" y2="212.74" stroke="#cbd5e1" stroke-opacity="0.55"/>
<line x1="441.84" y1="216.15" x2="460.16" y2="220.38" stroke="#cbd5e1" stroke-opacity="0.55"/>
<line x1="441.84" y1="216.15" x2="437.21" y2="217.96" stroke="#cbd5e1" stroke-opacity="0.55"/>
<line x1="441.84" y1="216.15" x2="434.14" y2="216.46" stroke="#cbd5e1" stroke-opacity="0.55"/>
<line x1="453.56" y1="219.38" x2="444.24" y2="213.97" stroke="#cbd5e1" stroke-opacity="0.55"/>
<line x1="453.56" y1="219.38" x2="440.48" y2="221.45" stroke="#cbd5e1" stroke-opacity="0.55"/>
<line x1="453.56" y1="219.38" x2="461.52" y2="222.77" stroke="#cbd5e1" stroke-opacity="0.55"/>
<line x1="453.56" y1="219.38" x2="463.90" y2="212.50" stroke="#cbd5e1" stroke-opacity="0.55"/>
<line x1="453.56" y1="219.38" x2="450.97" y2="224.96" stroke="#cbd5e1" stroke-opacity="0.55"/>
<line x1="453.56" y1="219.38" x2="448.92" y2="219.42" stroke="#cbd5e1" stroke-opacity="0.55"/>
<line x1="453.56" y1="219.38" x2="451.73" y2="221.60" stroke="#cbd5e1" stroke-opacity="0.55"/>
<line x1="453.56" y1="219.38" x2="444.82" y2="225.85" stroke="#cbd5e1" stroke-opacity="0.55"/>
<line x1="453.56" y1="219.38" x2="447.41" y2="211.23" stroke="#cbd5e1" stroke-opacity="0.55"/>
<line x1="453.56" y1="219.38" x2="439.76" y2="213.49" stroke="#cbd5e1" stroke-opacity="0.55"/>
<line x1="453.56" y1="219.38" x2="455.90" y2="227.22" stroke="#cbd5e1" stroke-opacity="0.55"/>
<line x1="453.56" y1="219.38" x2="443.43" y2="220.49" stroke="#cbd5e1" stroke-opacity="0.55"/>
<line x1="453.56" y1="219.38" x2="471.93" y2="224.23" stroke="#cbd5e1" stroke-opacity="0.55"/>
<line x1="453.56" y1="219.38" x2="434.62" y2="219.46" stroke="#cbd5e1" stroke-opacity="0.55"/>
<line x1="453.56" y1="219.38" x2="446.74" y2="226.71" stroke="#cbd5e1" stroke-opacity="0.55"/>
<line x1="453.56" y1="219.38" x2="464.94" y2="220.20" stroke="#cbd5e1" stroke-opacity="0.55"/>
<line x1="453.56" y1="219.38" x2="460.25" y2="211.89" stroke="#cbd5e1" stroke-opacity="0.55"/>
<line x1="453.56" y1="219.38" x2="455.79" y2="213.43" stroke="#cbd5e1" stroke-opacity="0.55"/>
<line x1="453.56" y1="219.38" x2="459.54" y2="227.20" stroke="#cbd5e1" stroke-opacity="0.55"/>
<line x1="453.56" y1="219.38" x2="456.38" y2="225.79" stroke="#cbd5e1" stroke-opacity="0.55"/>
<line x1="453.56" y1="219.38" x2="455.37" y2="224.21" stroke="#cbd5e1" stroke-opacity="0.55"/>
<line x1="453.56" y1="219.38" x2="444.78" y2="224.29" stroke="#cbd5e1" stroke-opacity="0.55"/>
<line x1="453.56" y1="219.38" x2="452.22" y2="210.93" stroke="#cbd5e1" stroke-opacity="0.55"/>
<line x1="453.56" y1="219.38" x2="448.34" y2="223.85" stroke="#cbd5e1" stroke-opacity="0.55"/>
<line x1="453.56" y1="219.38" x2="473.23" y2="221.74" stroke="#cbd5e1" stroke-opacity="0.55"/>
<line x1="453.56" y1="219.38" x2="441.62" y2="225.60" stroke="#cbd5e1" stroke-opacity="0.55"/>
<line x1="453.56" y1="219.38" x2="460.56" y2="213.84" stroke="#cbd5e1" stroke-opacity="0.55"/>
<line x1="453.56" y1="219.38" x2="459.84" y2="225.32" stroke="#cbd5e1" stroke-opacity="0.55"/>
<line x1="453.56" y1="219.38" x2="443.12" y2="212.74" stroke="#cbd5e1" stroke-opacity="0.55"/>
<line x1="453.56" y1="219.38" x2="445.64" y2="220.47" stroke="#cbd5e1" stroke-opacity="0.55"/>
<line x1="453.56" y1="219.38" x2="462.61" y2="222.04" stroke="#cbd5e1" stroke-opacity="0.55"/>
<line x1="453.56" y1="219.38" x2="436.93" y2="223.47" stroke="#cbd5e1" stroke-opacity="0.55"/>
<line x1="453.56" y1="219.38" x2="472.86" y2="219.43" stroke="#cbd5e1" stroke-opacity="0.55"/>
<line x1="453.56" y1="219.38" x2="434.14" y2="216.46" stroke="#cbd5e1" stroke-opacity="0.55"/>
<line x1="453.56" y1="219.38" x2="468.09" y2="223.10" stroke="#cbd5e1" stroke-opacity="0.55"/>
<line x1="453.56" y1="219.38" x2="467.62" y2="213.36" stroke="#cbd5e1" stroke-opacity="0.55"/>
<line x1="453.56" y1="219.38" x2="448.59" y2="212.71" stroke="#cbd5e1" stroke-opacity="0.55"/>
<line x1="453.56" y1="219.38" x2="452.86" y2="212.43" stroke="#cbd5e1" stroke-opacity="0.55"/>
<line x1="453.56" y1="219.38" x2="435.59" y2="214.78" stroke="#cbd5e1" stroke-opacity="0.55"/>
<line x1="453.56" y1="219.38" x2="451.20" y2="227.71" stroke="#cbd5e1" stroke-opacity="0.55"/>
<line x1="453.56" y1="219.38" x2="437.21" y2="217.96" stroke="#cbd5e1" stroke-opacity="0.55"/>
<line x1="453.56" y1="219.38" x2="436.44" y2="222.05" stroke="#cbd5e1" stroke-opacity="0.55"/>
<line x1="453.56" y1="219.38" x2="439.36" y2="222.27" stroke="#cbd5e1" stroke-opacity="0.55"/>
<line x1="453.56" y1="219.38" x2="472.27" y2="217.45" stroke="#cbd5e1" stroke-opacity="0.55"/>
<line x1="453.56" y1="219.38" x2="456.83" y2="211.23" stroke="#cbd5e1" stroke-opacity="0.55"/>
<line x1="453.56" y1="219.38" x2="466.34" y2="214.60" stroke="#cbd5e1" stroke-opacity="0.55"/>
<line x1="453.56" y1="219.38" x2="471.41" y2="215.73" stroke="#cbd5e1" stroke-opacity="0.55"/>
<line x1="453.56" y1="219.38" x2="466.12" y2="216.19" stroke="#cbd5e1" stroke-opacity="0.55"/>
<line x1="453.56" y1="219.38" x2="439.48" y2="223.40" stroke="#cbd5e1" stroke-opacity="0.55"/>
<line x1="453.56" y1="219.38" x2="468.32" y2="224.28" stroke="#cbd5e1" stroke-opacity="0.55"/>
<line x1="453.56" y1="219.38" x2="460.16" y2="220.38" stroke="#cbd5e1" stroke-opacity="0.55"/>
<line x1="453.56" y1="219.38" x2="462.28" y2="226.35" stroke="#cbd5e1" stroke-opacity="0.55"/>
<line x1="429.24" y1="222.78" x2="451.73" y2="221.60" stroke="#cbd5e1" stroke-opacity="0.55"/>
<line x1="429.24" y1="222.78" x2="408.85" y2="224.25" stroke="#cbd5e1" stroke-opacity="0.55"/>
<line x1="429.24" y1="222.78" x2="443.43" y2="220.49" stroke="#cbd5e1" stroke-opacity="0.55"/>
<line x1="429.24" y1="222.78" x2="434.62" y2="219.46" stroke="#cbd5e1" stroke-opacity="0.55"/>
<line x1="429.24" y1="222.78" x2="436.93" y2="223.47" stroke="#cbd5e1" stroke-opacity="0.55"/>
<line x1="429.24" y1="222.78" x2="436.44" y2="222.05" stroke="#cbd5e1" stroke-opacity="0.55"/>
<line x1="429.24" y1="222.78" x2="410.34" y2="225.99" stroke="#cbd5e1" stroke-opacity="0.55"/>
<line x1="426.93" y1="219.83" x2="443.43" y2="220.49" stroke="#cbd5e1" stroke-opacity="0.55"/>
<line x1="426.93" y1="219.83" x2="446.34" y2="217.85" stroke="#cbd5e1" stroke-opacity="0.55"/>
<line x1="426.93" y1="219.83" x2="436.44" y2="222.05" stroke="#cbd5e1" stroke-opacity="0.55"/>
<line x1="426.93" y1="219.83" x2="434.14" y2="216.46" stroke="#cbd5e1" stroke-opacity="0.55"/>
<line x1="426.93" y1="219.83" x2="436.93" y2="223.47" stroke="#cbd5e1" stroke-opacity="0.55"/>
<line x1="426.93" y1="219.83" x2="406.25" y2="220.70" stroke="#cbd5e1" stroke-opacity="0.55"/>
<line x1="426.93" y1="219.83" x2="439.48" y2="223.40" stroke="#cbd5e1" stroke-opacity="0.55"/>
<line x1="426.93" y1="219.83" x2="437.21" y2="217.96" stroke="#cbd5e1" stroke-opacity="0.55"/>
<line x1="426.93" y1="219.83" x2="406.71" y2="217.71" stroke="#cbd5e1" stroke-opacity="0.55"/>
<line x1="426.93" y1="219.83" x2="405.99" y2="219.18" stroke="#cbd5e1" stroke-opacity="0.55"/>
<line x1="430.46" y1="217.76" x2="440.48" y2="221.45" stroke="#cbd5e1" stroke-opacity="0.55"/>
<line x1="430.46" y1="217.76" x2="448.92" y2="219.42" stroke="#cbd5e1" stroke-opacity="0.55"/>
<line x1="430.46" y1="217.76" x2="451.73" y2="221.60" stroke="#cbd5e1" stroke-opacity="0.55"/>
<line x1="430.46" y1="217.76" x2="443.43" y2="220.49" stroke="#cbd5e1" stroke-opacity="0.55"/>
<line x1="430.46" y1="217.76" x2="434.62" y2="219.46" stroke="#cbd5e1" stroke-opacity="0.55"/>
<line x1="430.46" y1="217.76" x2="424.12" y2="219.28" stroke="#cbd5e1" stroke-opacity="0.55"/>
<line x1="430.46" y1="217.76" x2="416.77" y2="212.01" stroke="#cbd5e1" stroke-opacity="0.55"/>
<line x1="430.46" y1="217.76" x2="435.75" y2="220.87" stroke="#cbd5e1" stroke-opacity="0.55"/>
<line x1="430.46" y1="217.76" x2="410.89" y2="215.62" stroke="#cbd5e1" stroke-opacity="0.55"/>
<line x1="430.46" y1="217.76" x2="435.59" y2="214.78" stroke="#cbd5e1" stroke-opacity="0.55"/>
<line x1="430.46" y1="217.76" x2="436.44" y2="222.05" stroke="#cbd5e1" stroke-opacity="0.55"/>
<line x1="430.46" y1="217.76" x2="413.93" y2="213.07" stroke="#cbd5e1" stroke-opacity="0.55"/>
<line x1="430.46" y1="217.76" x2="439.36" y2="222.27" stroke="#cbd5e1" stroke-opacity="0.55"/>
<line x1="430.46" y1="217.76" x2="434.14" y2="216.46" stroke="#cbd5e1" stroke-opacity="0.55"/>
<line x1="430.46" y1="217.76" x2="411.86" y2="214.21" stroke="#cbd5e1" stroke-opacity="0.55"/>
<line x1="482.72" y1="221.51" x2="461.52" y2="222.77" stroke="#cbd5e1" stroke-opacity="0.55"/>
<line x1="482.72" y1="221.51" x2="451.73" y2="221.60" stroke="#cbd5e1" stroke-opacity="0.55"/>
<line x1="482.72" y1="221.51" x2="464.94" y2="220.20" stroke="#cbd5e1" stroke-opacity="0.55"/>
<line x1="482.72" y1="221.51" x2="549.15" y2="220.00" stroke="#cbd5e1" stroke-opacity="0.55"/>
<line x1="482.72" y1="221.51" x2="468.32" y2="224.28" stroke="#cbd5e1" stroke-opacity="0.55"/>
<line x1="482.72" y1="221.51" x2="468.09" y2="223.10" stroke="#cbd5e1" stroke-opacity="0.55"/>
<line x1="482.72" y1="221.51" x2="464.59" y2="224.42" stroke="#cbd5e1" stroke-opacity="0.55"/>
<line x1="482.72" y1="221.51" x2="462.61" y2="222.04" stroke="#cbd5e1" stroke-opacity="0.55"/>
<line x1="482.72" y1="221.51" x2="460.16" y2="220.38" stroke="#cbd5e1" stroke-opacity="0.55"/>
<line x1="445.24" y1="221.79" x2="456.91" y2="217.36" stroke="#cbd5e1" stroke-opacity="0.55"/>
<line x1="445.24" y1="221.79" x2="461.52" y2="222.77" stroke="#cbd5e1" stroke-opacity="0.55"/>
<line x1="445.24" y1="221.79" x2="448.92" y2="219.42" stroke="#cbd5e1" stroke-opacity="0.55"/>
<line x1="445.24" y1="221.79" x2="451.73" y2="221.60" stroke="#cbd5e1" stroke-opacity="0.55"/>
<line x1="445.24" y1="221.79" x2="434.62" y2="219.46" stroke="#cbd5e1" stroke-opacity="0.55"/>
<line x1="445.24" y1="221.79" x2="464.94" y2="220.20" stroke="#cbd5e1" stroke-opacity="0.55"/>
<line x1="445.24" y1="221.79" x2="424.12" y2="219.28" stroke="#cbd5e1" stroke-opacity="0.55"/>
<line x1="445.24" y1="221.79" x2="436.88" y2="227.58" stroke="#cbd5e1" stroke-opacity="0.55"/>
<line x1="445.24" y1="221.79" x2="444.78" y2="224.29" stroke="#cbd5e1" stroke-opacity="0.55"/>
<line x1="445.24" y1="221.79" x2="462.61" y2="222.04" stroke="#cbd5e1" stroke-opacity="0.55"/>
<line x1="445.24" y1="221.79" x2="437.21" y2="217.96" stroke="#cbd5e1" stroke-opacity="0.55"/>
<line x1="445.24" y1="221.79" x2="445.64" y2="220.47" stroke="#cbd5e1" stroke-opacity="0.55"/>
<line x1="445.24" y1="221.79" x2="448.34" y2="223.85" stroke="#cbd5e1" stroke-opacity="0.55"/>
<line x1="445.24" y1="221.79" x2="439.48" y2="223.40" stroke="#cbd5e1" stroke-opacity="0.55"/>
<line x1="445.24" y1="221.79" x2="446.34" y2="217.85" stroke="#cbd5e1" stroke-opacity="0.55"/>
<line x1="445.24" y1="221.79" x2="464.59" y2="224.42" stroke="#cbd5e1" stroke-opacity="0.55"/>
<line x1="445.24" y1="221.79" x2="436.44" y2="222.05" stroke="#cbd5e1" stroke-opacity="0.55"/>
<line x1="445.24" y1="221.79" x2="424.03" y2="224.26" stroke="#cbd5e1" stroke-opacity="0.55"/>
<line x1="445.24" y1="221.79" x2="436.93" y2="223.47" stroke="#cbd5e1" stroke-opacity="0.55"/>
<line x1="451.68" y1="226.92" x2="456.90" y2="234.70" stroke="#cbd5e1" stroke-opacity="0.55"/>
<line x1="451.68" y1="226.92" x2="440.48" y2="221.45" stroke="#cbd5e1" stroke-opacity="0.55"/>
<line x1="451.68" y1="226.92" x2="461.52" y2="222.77" stroke="#cbd5e1" stroke-opacity="0.55"/>
<line x1="451.68" y1="226.92" x2="444.21" y2="234.28" stroke="#cbd5e1" stroke-opacity="0.55"/>
<line x1="451.68" y1="226.92" x2="450.97" y2="224.96" stroke="#cbd5e1" stroke-opacity="0.55"/>
<line x1="451.68" y1="226.92" x2="448.92" y2="219.42" stroke="#cbd5e1" stroke-opacity="0.55"/>
<line x1="451.68" y1="226.92" x2="451.73" y2="221.60" stroke="#cbd5e1" stroke-opacity="0.55"/>
<line x1="451.68" y1="226.92" x2="444.82" y2="225.85" stroke="#cbd5e1" stroke-opacity="0.55"/>
<line x1="451.68" y1="226.92" x2="453.83" y2="233.71" stroke="#cbd5e1" stroke-opacity="0.55"/>
<line x1="451.68" y1="226.92" x2="455.90" y2="227.22" stroke="#cbd5e1" stroke-opacity="0.55"/>
<line x1="451.68" y1="226.92" x2="440.29" y2="234.42" stroke="#cbd5e1" stroke-opacity="0.55"/>
<line x1="451.68" y1="226.92" x2="443.43" y2="220.49" stroke="#cbd5e1" stroke-opacity="0.55"/>
<line x1="451.68" y1="226.92" x2="500.98" y2="223.76" stroke="#cbd5e1" stroke-opacity="0.55"/>
<line x1="451.68" y1="226.92" x2="446.74" y2="226.71" stroke="#cbd5e1" stroke-opacity="0.55"/>
<line x1="451.68" y1="226.92" x2="436.88" y2="227.58" stroke="#cbd5e1" stroke-opacity="0.55"/>
<line x1="451.68" y1="226.92" x2="441.81" y2="232.81" stroke="#cbd5e1" stroke-opacity="0.55"/>
<line x1="451.68" y1="226.92" x2="459.54" y2="227.20" stroke="#cbd5e1" stroke-opacity="0.55"/>
<line x1="451.68" y1="226.92" x2="456.38" y2="225.79" stroke="#cbd5e1" stroke-opacity="0.55"/>
<line x1="451.68" y1="226.92" x2="455.37" y2="224.21" stroke="#cbd5e1" stroke-opacity="0.55"/>
<line x1="451.68" y1="226.92" x2="444.78" y2="224.29" stroke="#cbd5e1" stroke-opacity="0.55"/>
<line x1="451.68" y1="226.92" x2="436.94" y2="231.99" stroke="#cbd5e1" stroke-opacity="0.55"/>
<line x1="451.68" y1="226.92" x2="459.84" y2="225.32" stroke="#cbd5e1" stroke-opacity="0.55"/>
<line x1="451.68" y1="226.92" x2="436.93" y2="223.47" stroke="#cbd5e1" stroke-opacity="0.55"/>
<line x1="451.68" y1="226.92" x2="433.26" y2="231.30" stroke="#cbd5e1" stroke-opacity="0.55"/>
<line x1="451.68" y1="226.92" x2="435.75" y2="220.87" stroke="#cbd5e1" stroke-opacity="0.55"/>
<line x1="451.68" y1="226.92" x2="448.41" y2="233.52" stroke="#cbd5e1" stroke-opacity="0.55"/>
<line x1="451.68" y1="226.92" x2="439.48" y2="223.40" stroke="#cbd5e1" stroke-opacity="0.55"/>
<line x1="451.68" y1="226.92" x2="468.32" y2="224.28" stroke="#cbd5e1" stroke-opacity="0.55"/>
<line x1="451.68" y1="226.92" x2="448.34" y2="223.85" stroke="#cbd5e1" stroke-opacity="0.55"/>
<line x1="451.68" y1="226.92" x2="441.62" y2="225.60" stroke="#cbd5e1" stroke-opacity="0.55"/>
<line x1="451.68" y1="226.92" x2="445.64" y2="220.47" stroke="#cbd5e1" stroke-opacity="0.55"/>
<line x1="451.68" y1="226.92" x2="462.61" y2="222.04" stroke="#cbd5e1" stroke-opacity="0.55"/>
<line x1="451.68" y1="226.92" x2="451.81" y2="235.17" stroke="#cbd5e1" stroke-opacity="0.55"/>
<line x1="451.68" y1="226.92" x2="468.09" y2="223.10" stroke="#cbd5e1" stroke-opacity="0.55"/>
<line x1="451.68" y1="226.92" x2="451.20" y2="227.71" stroke="#cbd5e1" stroke-opacity="0.55"/>
<line x1="451.68" y1="226.92" x2="447.36" y2="235.19" stroke="#cbd5e1" stroke-opacity="0.55"/>
<line x1="451.68" y1="226.92" x2="436.64" y2="233.35" stroke="#cbd5e1" stroke-opacity="0.55"/>
<line x1="451.68" y1="226.92" x2="436.44" y2="222.05" stroke="#cbd5e1" stroke-opacity="0.55"/>
<line x1="451.68" y1="226.92" x2="460.16" y2="220.38" stroke="#cbd5e1" stroke-opacity="0.55"/>
<line x1="451.68" y1="226.92" x2="460.34" y2="233.61" stroke="#cbd5e1" stroke-opacity="0.55"/>
<line x1="451.68" y1="226.92" x2="464.59" y2="224.42" stroke="#cbd5e1" stroke-opacity="0.55"/>
<line x1="451.68" y1="226.92" x2="439.36" y2="222.27" stroke="#cbd5e1" stroke-opacity="0.55"/>
<line x1="451.68" y1="226.92" x2="462.28" y2="226.35" stroke="#cbd5e1" stroke-opacity="0.55"/>
<line x1="448.92" y1="219.42" x2="469.10" y2="218.91" stroke="#cbd5e1" stroke-opacity="0.55"/>
<line x1="565.86" y1="223.23" x2="549.15" y2="220.00" stroke="#cbd5e1" stroke-opacity="0.55"/>
<line x1="549.15" y1="220.00" x2="572.77" y2="220.35" stroke="#cbd5e1" stroke-opacity="0.55"/>
<line x1="549.15" y1="220.00" x2="538.45" y2="216.95" stroke="#cbd5e1" stroke-opacity="0.55"/>
<line x1="549.15" y1="220.00" x2="540.43" y2="215.33" stroke="#cbd5e1" stroke-opacity="0.55"/>
<line x1="549.15" y1="220.00" x2="546.03" y2="212.69" stroke="#cbd5e1" stroke-opacity="0.55"/>
<line x1="549.15" y1="220.00" x2="540.16" y2="224.25" stroke="#cbd5e1" stroke-opacity="0.55"/>
<line x1="549.15" y1="220.00" x2="566.34" y2="225.49" stroke="#cbd5e1" stroke-opacity="0.55"/>
<line x1="549.15" y1="220.00" x2="552.52" y2="214.88" stroke="#cbd5e1" stroke-opacity="0.55"/>
<line x1="549.15" y1="220.00" x2="568.45" y2="219.69" stroke="#cbd5e1" stroke-opacity="0.55"/>
<line x1="549.15" y1="220.00" x2="559.69" y2="227.17" stroke="#cbd5e1" stroke-opacity="0.55"/>
<line x1="549.15" y1="220.00" x2="549.73" y2="213.31" stroke="#cbd5e1" stroke-opacity="0.55"/>
<line x1="549.15" y1="220.00" x2="555.44" y2="227.54" stroke="#cbd5e1" stroke-opacity="0.55"/>
<line x1="549.15" y1="220.00" x2="500.98" y2="223.76" stroke="#cbd5e1" stroke-opacity="0.55"/>
<line x1="549.15" y1="220.00" x2="542.55" y2="225.74" stroke="#cbd5e1" stroke-opacity="0.55"/>
<line x1="549.15" y1="220.00" x2="564.05" y2="220.66" stroke="#cbd5e1" stroke-opacity="0.55"/>
<line x1="549.15" y1="220.00" x2="547.14" y2="215.10" stroke="#cbd5e1" stroke-opacity="0.55"/>
<line x1="549.15" y1="220.00" x2="562.59" y2="213.22" stroke="#cbd5e1" stroke-opacity="0.55"/>
<line x1="549.15" y1="220.00" x2="546.12" y2="217.01" stroke="#cbd5e1" stroke-opacity="0.55"/>
<line x1="549.15" y1="220.00" x2="557.27" y2="223.12" stroke="#cbd5e1" stroke-opacity="0.55"/>
<line x1="549.15" y1="220.00" x2="572.51" y2="221.87" stroke="#cbd5e1" stroke-opacity="0.55"/>
<line x1="549.15" y1="220.00" x2="570.67" y2="223.17" stroke="#cbd5e1" stroke-opacity="0.55"/>
<line x1="549.15" y1="220.00" x2="547.62" y2="223.03" stroke="#cbd5e1" stroke-opacity="0.55"/>
<line x1="549.15" y1="220.00" x2="552.33" y2="212.04" stroke="#cbd5e1" stroke-opacity="0.55"/>
<line x1="549.15" y1="220.00" x2="555.31" y2="213.25" stroke="#cbd5e1" stroke-opacity="0.55"/>
<line x1="549.15" y1="220.00" x2="568.78" y2="215.37" stroke="#cbd5e1" stroke-opacity="0.55"/>
<line x1="549.15" y1="220.00" x2="569.98" y2="218.04" stroke="#cbd5e1" stroke-opacity="0.55"/>
<line x1="549.15" y1="220.00" x2="553.14" y2="226.10" stroke="#cbd5e1" stroke-opacity="0.55"/>
<line x1="549.15" y1="220.00" x2="563.34" y2="226.44" stroke="#cbd5e1" stroke-opacity="0.55"/>
<line x1="549.15" y1="220.00" x2="568.24" y2="221.53" stroke="#cbd5e1" stroke-opacity="0.55"/>
<line x1="549.15" y1="220.00" x2="561.39" y2="216.97" stroke="#cbd5e1" stroke-opacity="0.55"/>
<line x1="549.15" y1="220.00" x2="558.69" y2="220.08" stroke="#cbd5e1" stroke-opacity="0.55"/>
<line x1="549.15" y1="220.00" x2="555.97" y2="217.81" stroke="#cbd5e1" stroke-opacity="0.55"/>
<line x1="549.15" y1="220.00" x2="566.16" y2="214.12" stroke="#cbd5e1" stroke-opacity="0.55"/>
<line x1="549.15" y1="220.00" x2="556.53" y2="215.76" stroke="#cbd5e1" stroke-opacity="0.55"/>
<line x1="549.15" y1="220.00" x2="564.30" y2="218.66" stroke="#cbd5e1" stroke-opacity="0.55"/>
<line x1="549.15" y1="220.00" x2="539.57" y2="218.81" stroke="#cbd5e1" stroke-opacity="0.55"/>
<line x1="549.15" y1="220.00" x2="537.80" y2="220.73" stroke="#cbd5e1" stroke-opacity="0.55"/>
<line x1="549.15" y1="220.00" x2="547.66" y2="225.11" stroke="#cbd5e1" stroke-opacity="0.55"/>
<line x1="549.15" y1="220.00" x2="558.58" y2="212.42" stroke="#cbd5e1" stroke-opacity="0.55"/>
<line x1="549.15" y1="220.00" x2="509.46" y2="219.22" stroke="#cbd5e1" stroke-opacity="0.55"/>
<line x1="549.15" y1="220.00" x2="571.35" y2="216.66" stroke="#cbd5e1" stroke-opacity="0.55"/>
<line x1="549.15" y1="220.00" x2="566.44" y2="216.97" stroke="#cbd5e1" stroke-opacity="0.55"/>
<line x1="549.15" y1="220.00" x2="550.49" y2="227.48" stroke="#cbd5e1" stroke-opacity="0.55"/>
<line x1="549.15" y1="220.00" x2="542.65" y2="213.88" stroke="#cbd5e1" stroke-opacity="0.55"/>
<line x1="549.15" y1="220.00" x2="558.40" y2="225.51" stroke="#cbd5e1" stroke-opacity="0.55"/>
<line x1="549.15" y1="220.00" x2="553.37" y2="224.31" stroke="#cbd5e1" stroke-opacity="0.55"/>
<line x1="549.15" y1="220.00" x2="540.15" y2="222.49" stroke="#cbd5e1" stroke-opacity="0.55"/>
<line x1="549.15" y1="220.00" x2="562.28" y2="224.51" stroke="#cbd5e1" stroke-opacity="0.55"/>
<line x1="549.15" y1="220.00" x2="546.27" y2="226.87" stroke="#cbd5e1" stroke-opacity="0.55"/>
<line x1="549.15" y1="220.00" x2="573.21" y2="218.80" stroke="#cbd5e1" stroke-opacity="0.55"/>
<line x1="549.15" y1="220.00" x2="559.68" y2="214.38" stroke="#cbd5e1" stroke-opacity="0.55"/>
<line x1="549.15" y1="220.00" x2="563.75" y2="215.40" stroke="#cbd5e1" stroke-opacity="0.55"/>
<line x1="549.15" y1="220.00" x2="549.15" y2="220.00" stroke="#cbd5e1" stroke-opacity="0.55"/>
<line x1="549.15" y1="220.00" x2="569.17" y2="224.51" stroke="#cbd5e1" stroke-opacity="0.55"/>
<line x1="549.15" y1="220.00" x2="561.54" y2="222.34" stroke="#cbd5e1" stroke-opacity="0.55"/>
<line x1="456.91" y1="217.36" x2="469.10" y2="218.91" stroke="#cbd5e1" stroke-opacity="0.55"/>
<line x1="469.10" y1="218.91" x2="464.41" y2="223.14" stroke="#cbd5e1" stroke-opacity="0.55"/>
<line x1="469.10" y1="218.91" x2="443.43" y2="220.49" stroke="#cbd5e1" stroke-opacity="0.55"/>
<line x1="469.10" y1="218.91" x2="446.34" y2="217.85" stroke="#cbd5e1" stroke-opacity="0.55"/>
<line x1="469.10" y1="218.91" x2="509.46" y2="219.22" stroke="#cbd5e1" stroke-opacity="0.55"/>
<line x1="469.10" y1="218.91" x2="466.12" y2="216.19" stroke="#cbd5e1" stroke-opacity="0.55"/>
<circle cx="448.44" cy="220.73" r="7.80" fill="#0f766e"/>
<text x="455.44" y="214.73" font-family="system-ui, sans-serif" font-size="10" fill="#344054" text-anchor="start">Jessica St. Clair</text>
<circle cx="441.84" cy="216.15" r="9.60" fill="#b45309"/>
<text x="448.84" y="210.15" font-family="system-ui, sans-serif" font-size="10" fill="#344054" text-anchor="start">Who Charted?</text>
<circle cx="453.56" cy="219.38" r="10.20" fill="#1d4ed8"/>
<text x="460.56" y="213.38" font-family="system-ui, sans-serif" font-size="10" fill="#344054" text-anchor="start">You Made It Weird w…</text>
<circle cx="429.24" cy="222.78" r="7.80" fill="#be123c"/>
<text x="436.24" y="216.78" font-family="system-ui, sans-serif" font-size="10" fill="#344054" text-anchor="start">WOMP It Up!</text>
<circle cx="426.93" cy="219.83" r="9.60" fill="#6d28d9"/>
<text x="433.93" y="213.83" font-family="system-ui, sans-serif" font-size="10" fill="#344054" text-anchor="start">Bitch Sesh: A Real …</text>
<circle cx="430.46" cy="217.76" r="10.20" fill="#15803d"/>
<text x="437.46" y="211.76" font-family="system-ui, sans-serif" font-size="10" fill="#344054" text-anchor="start">Comedy Bang Bang</text>
<circle cx="482.72" cy="221.51" r="9.00" fill="#c2410c"/>
<text x="489.72" y="215.51" font-family="system-ui, sans-serif" font-size="10" fill="#344054" text-anchor="start">Bullseye with Jesse…</text>
<circle cx="445.24" cy="221.79" r="10.20" fill="#0369a1"/>
<text x="452.24" y="215.79" font-family="system-ui, sans-serif" font-size="10" fill="#344054" text-anchor="start">How Did This Get Ma…</text>
<circle cx="451.68" cy="226.92" r="10.20" fill="#7c2d12"/>
<text x="458.68" y="220.92" font-family="system-ui, sans-serif" font-size="10" fill="#344054" text-anchor="start">ID10T with Chris Ha…</text>
<circle cx="738.92" cy="338.35" r="3.00" fill="#4338ca"/>
<circle cx="509.61" cy="70.57" r="3.00" fill="#0f766e"/>
<circle cx="450.97" cy="224.96" r="4.20" fill="#b45309"/>
<circle cx="447.36" cy="235.19" r="3.60" fill="#1d4ed8"/>
<circle cx="444.24" cy="213.97" r="4.20" fill="#be123c"/>
<circle cx="434.14" cy="216.46" r="5.40" fill="#6d28d9"/>
<text x="441.14" y="210.46" font-family="system-ui, sans-serif" font-size="10" fill="#344054" text-anchor="start">Matt Besser</text>
<circle cx="439.76" cy="213.49" r="4.20" fill="#15803d"/>
<circle cx="436.88" cy="227.58" r="4.20" fill="#c2410c"/>
<circle cx="452.22" cy="210.93" r="3.60" fill="#0369a1"/>
<circle cx="468.32" cy="224.28" r="4.80" fill="#7c2d12"/>
<circle cx="433.26" cy="231.30" r="3.60" fill="#4338ca"/>
<circle cx="448.92" cy="219.42" r="6.60" fill="#0f766e"/>
<text x="455.92" y="213.42" font-family="system-ui, sans-serif" font-size="10" fill="#344054" text-anchor="start">Paul F. Tompkins</text>
<circle cx="464.59" cy="224.42" r="4.80" fill="#b45309"/>
<circle cx="446.74" cy="226.71" r="4.20" fill="#1d4ed8"/>
<circle cx="313.88" cy="81.17" r="3.00" fill="#be123c"/>
<circle cx="149.24" cy="125.01" r="3.00" fill="#6d28d9"/>
<circle cx="288.56" cy="342.17" r="3.00" fill="#15803d"/>
<circle cx="804.30" cy="160.04" r="3.00" fill="#c2410c"/>
<circle cx="472.27" cy="217.45" r="3.60" fill="#0369a1"/>
<circle cx="101.45" cy="147.41" r="3.00" fill="#7c2d12"/>
<circle cx="493.10" cy="80.11" r="3.00" fill="#4338ca"/>
<circle cx="455.37" cy="224.21" r="4.20" fill="#0f766e"/>
<circle cx="471.93" cy="224.23" r="3.60" fill="#b45309"/>
<circle cx="470.05" cy="363.72" r="3.00" fill="#1d4ed8"/>
<circle cx="565.86" cy="223.23" r="3.60" fill="#be123c"/>
<circle cx="549.15" cy="220.00" r="10.20" fill="#6d28d9"/>
<text x="556.15" y="214.00" font-family="system-ui, sans-serif" font-size="10" fill="#344054" text-anchor="start">Katie Couric</text>
<circle cx="456.90" cy="234.70" r="3.60" fill="#15803d"/>
<circle cx="92.89" cy="260.35" r="3.00" fill="#c2410c"/>
<circle cx="850.06" cy="229.80" r="3.00" fill="#0369a1"/>
<circle cx="456.91" cy="217.36" r="4.20" fill="#7c2d12"/>
<circle cx="469.10" cy="218.91" r="7.20" fill="#4338ca"/>
<text x="476.10" y="212.91" font-family="system-ui, sans-serif" font-size="10" fill="#344054" text-anchor="start">Throwing Shade</text>
<circle cx="473.23" cy="221.74" r="3.60" fill="#0f766e"/>
<circle cx="452.86" cy="212.43" r="3.60" fill="#b45309"/>
<circle cx="460.56" cy="213.84" r="3.60" fill="#1d4ed8"/>
<circle cx="447.41" cy="211.23" r="3.60" fill="#be123c"/>
<circle cx="439.36" cy="222.27" r="4.80" fill="#6d28d9"/>
<circle cx="443.12" cy="212.74" r="4.20" fill="#15803d"/>
<circle cx="430.71" cy="209.23" r="3.60" fill="#c2410c"/>
<circle cx="440.48" cy="221.45" r="4.80" fill="#0369a1"/>
<circle cx="461.52" cy="222.77" r="5.40" fill="#7c2d12"/>
<text x="468.52" y="216.77" font-family="system-ui, sans-serif" font-size="10" fill="#344054" text-anchor="start">Pete Holmes</text>
<circle cx="572.77" cy="220.35" r="3.60" fill="#4338ca"/>
<circle cx="62.30" cy="254.27" r="3.00" fill="#0f766e"/>
<circle cx="845.93" cy="255.28" r="3.00" fill="#b45309"/>
<circle cx="584.24" cy="84.02" r="3.00" fill="#1d4ed8"/>
<circle cx="732.38" cy="109.44" r="3.00" fill="#be123c"/>
<circle cx="50.00" cy="207.11" r="3.00" fill="#6d28d9"/>
<circle cx="369.06" cy="365.75" r="3.00" fill="#15803d"/>
<circle cx="538.45" cy="216.95" r="3.60" fill="#c2410c"/>
<circle cx="650.99" cy="83.49" r="3.00" fill="#0369a1"/>
<circle cx="500.98" cy="223.76" r="4.20" fill="#7c2d12"/>
<circle cx="524.58" cy="365.83" r="3.00" fill="#4338ca"/>
<circle cx="444.21" cy="234.28" r="3.60" fill="#0f766e"/>
<circle cx="540.43" cy="215.33" r="3.60" fill="#b45309"/>
<circle cx="657.48" cy="356.19" r="3.00" fill="#1d4ed8"/>
<circle cx="444.40" cy="75.46" r="3.00" fill="#be123c"/>
<circle cx="460.34" cy="233.61" r="3.60" fill="#6d28d9"/>
<circle cx="188.11" cy="105.67" r="3.00" fill="#15803d"/>
<circle cx="799.69" cy="307.07" r="3.00" fill="#c2410c"/>
<circle cx="463.90" cy="212.50" r="3.60" fill="#0369a1"/>
<circle cx="466.12" cy="216.19" r="4.20" fill="#7c2d12"/>
<circle cx="540.43" cy="76.66" r="3.00" fill="#4338ca"/>
<circle cx="424.08" cy="365.16" r="3.00" fill="#0f766e"/>
<circle cx="66.49" cy="266.95" r="3.00" fill="#b45309"/>
<circle cx="451.73" cy="221.60" r="6.60" fill="#1d4ed8"/>
<text x="458.73" y="215.60" font-family="system-ui, sans-serif" font-size="10" fill="#344054" text-anchor="start">Lennon Parham</text>
<circle cx="51.44" cy="243.73" r="3.00" fill="#be123c"/>
<circle cx="464.41" cy="223.14" r="3.60" fill="#6d28d9"/>
<circle cx="436.44" cy="222.05" r="6.60" fill="#15803d"/>
<text x="443.44" y="216.05" font-family="system-ui, sans-serif" font-size="10" fill="#344054" text-anchor="start">Paul Scheer</text>
<circle cx="795.83" cy="290.45" r="3.00" fill="#c2410c"/>
<circle cx="444.78" cy="224.29" r="4.80" fill="#0369a1"/>
<circle cx="466.91" cy="70.00" r="3.00" fill="#7c2d12"/>
<circle cx="854.35" cy="271.40" r="3.00" fill="#4338ca"/>
<circle cx="546.03" cy="212.69" r="3.60" fill="#0f766e"/>
<circle cx="444.82" cy="225.85" r="4.20" fill="#b45309"/>
<circle cx="436.64" cy="233.35" r="3.60" fill="#1d4ed8"/>
<circle cx="456.38" cy="225.79" r="4.20" fill="#be123c"/>
<circle cx="79.28" cy="280.96" r="3.00" fill="#6d28d9"/>
<circle cx="453.83" cy="233.71" r="3.60" fill="#15803d"/>
<circle cx="509.46" cy="219.22" r="4.20" fill="#c2410c"/>
<circle cx="462.61" cy="222.04" r="5.40" fill="#0369a1"/>
<text x="469.61" y="216.04" font-family="system-ui, sans-serif" font-size="10" fill="#344054" text-anchor="start">Cameron Esposito</text>
<circle cx="147.97" cy="299.98" r="3.00" fill="#7c2d12"/>
<circle cx="67.99" cy="197.55" r="3.00" fill="#4338ca"/>
<circle cx="540.16" cy="224.25" r="3.60" fill="#0f766e"/>
<circle cx="634.11" cy="354.19" r="3.00" fill="#b45309"/>
<circle cx="94.97" cy="278.61" r="3.00" fill="#1d4ed8"/>
<circle cx="467.62" cy="213.36" r="3.60" fill="#be123c"/>
<circle cx="805.07" cy="133.95" r="3.00" fill="#6d28d9"/>
<circle cx="445.64" cy="220.47" r="5.40" fill="#15803d"/>
<text x="452.64" y="214.47" font-family="system-ui, sans-serif" font-size="10" fill="#344054" text-anchor="start">Dan Harmon</text>
<circle cx="70.78" cy="235.27" r="3.00" fill="#c2410c"/>
<circle cx="460.25" cy="211.89" r="3.60" fill="#0369a1"/>
<circle cx="434.62" cy="219.46" r="5.40" fill="#7c2d12"/>
<text x="441.62" y="213.46" font-family="system-ui, sans-serif" font-size="10" fill="#344054" text-anchor="start">Jason Mantzoukas</text>
<circle cx="464.94" cy="220.20" r="4.80" fill="#4338ca"/>
<circle cx="424.12" cy="219.28" r="4.20" fill="#0f766e"/>
<circle cx="437.21" cy="217.96" r="5.40" fill="#b45309"/>
<text x="444.21" y="211.96" font-family="system-ui, sans-serif" font-size="10" fill="#344054" text-anchor="start">Kulap Vilaysack</text>
<circle cx="448.34" cy="223.85" r="4.80" fill="#1d4ed8"/>
<circle cx="439.48" cy="223.40" r="5.40" fill="#be123c"/>
<text x="446.48" y="217.40" font-family="system-ui, sans-serif" font-size="10" fill="#344054" text-anchor="start">June Diane Raphael</text>
<circle cx="446.34" cy="217.85" r="4.80" fill="#6d28d9"/>
<circle cx="424.03" cy="224.26" r="3.60" fill="#15803d"/>
<circle cx="436.93" cy="223.47" r="6.00" fill="#c2410c"/>
<text x="443.93" y="217.47" font-family="system-ui, sans-serif" font-size="10" fill="#344054" text-anchor="start">Casey Wilson</text>
<circle cx="408.85" cy="224.25" r="3.60" fill="#0369a1"/>
<circle cx="807.03" cy="146.60" r="3.00" fill="#7c2d12"/>
<circle cx="727.80" cy="331.52" r="3.00" fill="#4338ca"/>
<circle cx="216.57" cy="334.70" r="3.00" fill="#0f766e"/>
<circle cx="455.90" cy="227.22" r="4.20" fill="#b45309"/>
<circle cx="566.34" cy="225.49" r="3.60" fill="#1d4ed8"/>
<circle cx="341.59" cy="361.44" r="3.00" fill="#be123c"/>
<circle cx="617.89" cy="84.47" r="3.00" fill="#6d28d9"/>
<circle cx="440.29" cy="234.42" r="3.60" fill="#15803d"/>
<circle cx="678.67" cy="346.87" r="3.00" fill="#c2410c"/>
<circle cx="853.37" cy="194.04" r="3.00" fill="#0369a1"/>
<circle cx="435.59" cy="214.78" r="4.20" fill="#7c2d12"/>
<circle cx="604.53" cy="353.77" r="3.00" fill="#4338ca"/>
<circle cx="410.34" cy="225.99" r="3.60" fill="#0f766e"/>
<circle cx="765.56" cy="116.52" r="3.00" fill="#b45309"/>
<circle cx="64.14" cy="186.33" r="3.00" fill="#1d4ed8"/>
<circle cx="215.70" cy="105.06" r="3.00" fill="#be123c"/>
<circle cx="552.52" cy="214.88" r="3.60" fill="#6d28d9"/>
<circle cx="705.97" cy="345.63" r="3.00" fill="#15803d"/>
<circle cx="568.45" cy="219.69" r="3.60" fill="#c2410c"/>
<circle cx="443.43" cy="220.49" r="6.60" fill="#0369a1"/>
<text x="450.43" y="214.49" font-family="system-ui, sans-serif" font-size="10" fill="#344054" text-anchor="start">Lauren Lapkus</text>
<circle cx="456.83" cy="211.23" r="3.60" fill="#7c2d12"/>
<circle cx="563.30" cy="355.30" r="3.00" fill="#4338ca"/>
<circle cx="559.69" cy="227.17" r="3.60" fill="#0f766e"/>
<circle cx="83.41" cy="157.24" r="3.00" fill="#b45309"/>
<circle cx="448.41" cy="233.52" r="3.60" fill="#1d4ed8"/>
<circle cx="466.34" cy="214.60" r="3.60" fill="#be123c"/>
<circle cx="459.54" cy="227.20" r="4.20" fill="#6d28d9"/>
<circle cx="310.98" cy="360.31" r="3.00" fill="#15803d"/>
<circle cx="549.73" cy="213.31" r="3.60" fill="#c2410c"/>
<circle cx="555.44" cy="227.54" r="3.60" fill="#0369a1"/>
<circle cx="441.62" cy="225.60" r="4.20" fill="#7c2d12"/>
<circle cx="459.84" cy="225.32" r="4.20" fill="#4338ca"/>
<circle cx="221.33" cy="92.48" r="3.00" fill="#0f766e"/>
<circle cx="448.53" cy="370.00" r="3.00" fill="#b45309"/>
<circle cx="471.41" cy="215.73" r="3.60" fill="#1d4ed8"/>
<circle cx="468.09" cy="223.10" r="4.80" fill="#be123c"/>
<circle cx="129.61" cy="314.30" r="3.00" fill="#6d28d9"/>
<circle cx="172.50" cy="328.07" r="3.00" fill="#15803d"/>
<circle cx="155.97" cy="329.02" r="3.00" fill="#c2410c"/>
<circle cx="768.00" cy="326.60" r="3.00" fill="#0369a1"/>
<circle cx="396.32" cy="365.47" r="3.00" fill="#7c2d12"/>
<circle cx="171.99" cy="116.48" r="3.00" fill="#4338ca"/>
<circle cx="455.79" cy="213.43" r="3.60" fill="#0f766e"/>
<circle cx="435.75" cy="220.87" r="4.80" fill="#b45309"/>
<circle cx="51.65" cy="228.77" r="3.00" fill="#1d4ed8"/>
<circle cx="414.02" cy="72.96" r="3.00" fill="#be123c"/>
<circle cx="833.78" cy="167.53" r="3.00" fill="#6d28d9"/>
<circle cx="285.63" cy="88.12" r="3.00" fill="#15803d"/>
<circle cx="542.55" cy="225.74" r="3.60" fill="#c2410c"/>
<circle cx="460.16" cy="220.38" r="5.40" fill="#0369a1"/>
<text x="467.16" y="214.38" font-family="system-ui, sans-serif" font-size="10" fill="#344054" text-anchor="start">Moshe Kasher</text>
<circle cx="472.86" cy="219.43" r="3.60" fill="#7c2d12"/>
<circle cx="448.59" cy="212.71" r="3.60" fill="#4338ca"/>
<circle cx="129.17" cy="140.39" r="3.00" fill="#0f766e"/>
<circle cx="256.06" cy="95.51" r="3.00" fill="#b45309"/>
<circle cx="441.81" cy="232.81" r="3.60" fill="#1d4ed8"/>
<circle cx="114.62" cy="302.24" r="3.00" fill="#be123c"/>
<circle cx="564.05" cy="220.66" r="3.60" fill="#6d28d9"/>
<circle cx="547.14" cy="215.10" r="3.60" fill="#15803d"/>
<circle cx="562.59" cy="213.22" r="3.60" fill="#c2410c"/>
<circle cx="120.82" cy="130.01" r="3.00" fill="#0369a1"/>
<circle cx="63.15" cy="175.38" r="3.00" fill="#7c2d12"/>
<circle cx="462.28" cy="226.35" r="4.20" fill="#4338ca"/>
<circle cx="870.00" cy="218.10" r="3.00" fill="#0f766e"/>
<circle cx="659.69" cy="94.99" r="3.00" fill="#b45309"/>
<circle cx="436.94" cy="231.99" r="3.60" fill="#1d4ed8"/>
<circle cx="546.12" cy="217.01" r="3.60" fill="#be123c"/>
<circle cx="557.27" cy="223.12" r="3.60" fill="#6d28d9"/>
<circle cx="593.39" cy="364.33" r="3.00" fill="#15803d"/>
<circle cx="342.81" cy="82.42" r="3.00" fill="#c2410c"/>
<circle cx="416.77" cy="212.01" r="3.60" fill="#0369a1"/>
<circle cx="451.20" cy="227.71" r="4.20" fill="#7c2d12"/>
<circle cx="572.51" cy="221.87" r="3.60" fill="#4338ca"/>
<circle cx="405.99" cy="219.18" r="3.60" fill="#0f766e"/>
<circle cx="570.67" cy="223.17" r="3.60" fill="#b45309"/>
<circle cx="825.53" cy="292.95" r="3.00" fill="#1d4ed8"/>
<circle cx="234.90" cy="344.61" r="3.00" fill="#be123c"/>
<circle cx="406.25" cy="220.70" r="3.60" fill="#6d28d9"/>
<circle cx="406.71" cy="217.71" r="3.60" fill="#15803d"/>
<circle cx="546.27" cy="226.87" r="3.60" fill="#c2410c"/>
<circle cx="410.89" cy="215.62" r="3.60" fill="#0369a1"/>
<circle cx="413.93" cy="213.07" r="3.60" fill="#7c2d12"/>
<circle cx="86.72" cy="167.83" r="3.00" fill="#4338ca"/>
<circle cx="547.62" cy="223.03" r="3.60" fill="#0f766e"/>
<circle cx="372.13" cy="72.95" r="3.00" fill="#b45309"/>
<circle cx="411.86" cy="214.21" r="3.60" fill="#1d4ed8"/>
<circle cx="826.88" cy="279.96" r="3.00" fill="#be123c"/>
<circle cx="862.10" cy="182.15" r="3.00" fill="#6d28d9"/>
<circle cx="384.80" cy="81.15" r="3.00" fill="#15803d"/>
<circle cx="552.33" cy="212.04" r="3.60" fill="#c2410c"/>
<circle cx="555.31" cy="213.25" r="3.60" fill="#0369a1"/>
<circle cx="451.81" cy="235.17" r="3.60" fill="#7c2d12"/>
<circle cx="568.78" cy="215.37" r="3.60" fill="#4338ca"/>
<circle cx="569.98" cy="218.04" r="3.60" fill="#0f766e"/>
<circle cx="553.14" cy="226.10" r="3.60" fill="#b45309"/>
<circle cx="792.41" cy="316.85" r="3.00" fill="#1d4ed8"/>
<circle cx="720.76" cy="100.89" r="3.00" fill="#be123c"/>
<circle cx="563.34" cy="226.44" r="3.60" fill="#6d28d9"/>
<circle cx="568.24" cy="221.53" r="3.60" fill="#15803d"/>
<circle cx="561.39" cy="216.97" r="3.60" fill="#c2410c"/>
<circle cx="282.32" cy="351.97" r="3.00" fill="#0369a1"/>
<circle cx="558.69" cy="220.08" r="3.60" fill="#7c2d12"/>
<circle cx="496.21" cy="367.76" r="3.00" fill="#4338ca"/>
<circle cx="567.63" cy="75.12" r="3.00" fill="#0f766e"/>
<circle cx="555.97" cy="217.81" r="3.60" fill="#b45309"/>
<circle cx="699.25" cy="91.13" r="3.00" fill="#1d4ed8"/>
<circle cx="566.16" cy="214.12" r="3.60" fill="#be123c"/>
<circle cx="160.82" cy="313.95" r="3.00" fill="#6d28d9"/>
<circle cx="556.53" cy="215.76" r="3.60" fill="#15803d"/>
<circle cx="564.30" cy="218.66" r="3.60" fill="#c2410c"/>
<circle cx="539.57" cy="218.81" r="3.60" fill="#0369a1"/>
<circle cx="537.80" cy="220.73" r="3.60" fill="#7c2d12"/>
<circle cx="547.66" cy="225.11" r="3.60" fill="#4338ca"/>
<circle cx="558.58" cy="212.42" r="3.60" fill="#0f766e"/>
<circle cx="571.35" cy="216.66" r="3.60" fill="#b45309"/>
<circle cx="566.44" cy="216.97" r="3.60" fill="#1d4ed8"/>
<circle cx="550.49" cy="227.48" r="3.60" fill="#be123c"/>
<circle cx="542.65" cy="213.88" r="3.60" fill="#6d28d9"/>
<circle cx="558.40" cy="225.51" r="3.60" fill="#15803d"/>
<circle cx="553.37" cy="224.31" r="3.60" fill="#c2410c"/>
<circle cx="540.15" cy="222.49" r="3.60" fill="#0369a1"/>
<circle cx="562.28" cy="224.51" r="3.60" fill="#7c2d12"/>
<circle cx="573.21" cy="218.80" r="3.60" fill="#4338ca"/>
<circle cx="559.68" cy="214.38" r="3.60" fill="#0f766e"/>
<circle cx="563.75" cy="215.40" r="3.60" fill="#b45309"/>
<circle cx="569.17" cy="224.51" r="3.60" fill="#1d4ed8"/>
<circle cx="561.54" cy="222.34" r="3.60" fill="#be123c"/>
<circle cx="55.30" cy="217.54" r="3.00" fill="#6d28d9"/>
<circle cx="97.77" cy="292.81" r="3.00" fill="#15803d"/>
<circle cx="770.26" cy="126.95" r="3.00" fill="#c2410c"/>
<circle cx="555.16" cy="365.95" r="3.00" fill="#0369a1"/>
<circle cx="254.11" cy="354.40" r="3.00" fill="#7c2d12"/>
<circle cx="196.85" cy="339.33" r="3.00" fill="#4338ca"/>
</svg>