<svg xmlns="http://www.w3.org/2000/svg" viewBox="0 0 920 430" role="img">
<title>PageRank Distribution</title>
<rect width="100%" height="100%" fill="#ffffff"/>
<text x="30.00" y="34.00" font-family="system-ui, sans-serif" font-size="22" fill="#1f2937" text-anchor="start">PageRank Distribution</text>
<line x1="80" y1="340" x2="840" y2="340" stroke="#475467"/><line x1="80" y1="70" x2="80" y2="340" stroke="#475467"/><text x="460.00" y="386.00" font-family="system-ui, sans-serif" font-size="12" fill="#667085" text-anchor="middle">log10(PageRank)</text>
<rect x="81.00" y="70.00" width="29.67" height="270.00" fill="#0f766e"/>
<rect x="112.67" y="339.29" width="29.67" height="0.71" fill="#b45309"/>
<rect x="144.33" y="339.29" width="29.67" height="0.71" fill="#1d4ed8"/>
<rect x="176.00" y="338.76" width="29.67" height="1.24" fill="#be123c"/>
<rect x="207.67" y="339.11" width="29.67" height="0.89" fill="#6d28d9"/>
<rect x="239.33" y="338.58" width="29.67" height="1.42" fill="#15803d"/>
<rect x="271.00" y="337.16" width="29.67" height="2.84" fill="#c2410c"/>
<rect x="302.67" y="337.34" width="29.67" height="2.66" fill="#0369a1"/>
<rect x="334.33" y="336.98" width="29.67" height="3.02" fill="#7c2d12"/>
<rect x="366.00" y="336.09" width="29.67" height="3.91" fill="#4338ca"/>
<rect x="397.67" y="337.87" width="29.67" height="2.13" fill="#0f766e"/>
<rect x="429.33" y="335.74" width="29.67" height="4.26" fill="#b45309"/>
<rect x="461.00" y="338.58" width="29.67" height="1.42" fill="#1d4ed8"/>
<rect x="492.67" y="338.93" width="29.67" height="1.07" fill="#be123c"/>
<rect x="524.33" y="338.93" width="29.67" height="1.07" fill="#6d28d9"/>
<rect x="556.00" y="338.76" width="29.67" height="1.24" fill="#15803d"/>
<rect x="587.67" y="339.29" width="29.67" height="0.71" fill="#c2410c"/>
<rect x="619.33" y="339.47" width="29.67" height="0.53" fill="#0369a1"/>
<rect x="651.00" y="339.11" width="29.67" height="0.89" fill="#7c2d12"/>
<rect x="682.67" y="339.82" width="29.67" height="0.18" fill="#4338ca"/>
<rect x="714.33" y="339.82" width="29.67" height="0.18" fill="#0f766e"/>
<rect x="746.00" y="340.00" width="29.67" height="0.00" fill="#b45309"/>
<rect x="777.67" y="340.00" width="29.67" height="0.00" fill="#1d4ed8"/>
<rect x="809.33" y="339.82" width="29.67" height="0.18" fill="#be123c"/>
</svg>