<svg xmlns="http://www.w3.org/2000/svg" viewBox="0 0 920 430" role="img">
<title>Prediction Probabilities</title>
<rect width="100%" height="100%" fill="#ffffff"/>
<text x="30.00" y="34.00" font-family="system-ui, sans-serif" font-size="22" fill="#1f2937" text-anchor="start">Prediction Probabilities</text>
<line x1="80" y1="340" x2="840" y2="340" stroke="#475467"/><line x1="80" y1="70" x2="80" y2="340" stroke="#475467"/><text x="460.00" y="386.00" font-family="system-ui, sans-serif" font-size="12" fill="#667085" text-anchor="middle">Predicted Probability</text>
<rect x="81.00" y="70.00" width="29.67" height="270.00" fill="#0f766e"/>
<rect x="112.67" y="160.60" width="29.67" height="179.40" fill="#b45309"/>
<rect x="144.33" y="209.11" width="29.67" height="130.89" fill="#1d4ed8"/>
<rect x="176.00" y="255.05" width="29.67" height="84.95" fill="#be123c"/>
<rect x="207.67" y="281.48" width="29.67" height="58.52" fill="#6d28d9"/>
<rect x="239.33" y="289.95" width="29.67" height="50.05" fill="#15803d"/>
<rect x="271.00" y="302.02" width="29.67" height="37.98" fill="#c2410c"/>
<rect x="302.67" y="312.02" width="29.67" height="27.98" fill="#0369a1"/>
<rect x="334.33" y="315.87" width="29.67" height="24.13" fill="#7c2d12"/>
<rect x="366.00" y="324.60" width="29.67" height="15.40" fill="#4338ca"/>
<rect x="397.67" y="324.34" width="29.67" height="15.66" fill="#0f766e"/>
<rect x="429.33" y="328.71" width="29.67" height="11.29" fill="#b45309"/>
<rect x="461.00" y="331.27" width="29.67" height="8.73" fill="#1d4ed8"/>
<rect x="492.67" y="334.10" width="29.67" height="5.90" fill="#be123c"/>
<rect x="524.33" y="335.64" width="29.67" height="4.36" fill="#6d28d9"/>
<rect x="556.00" y="337.69" width="29.67" height="2.31" fill="#15803d"/>
<rect x="587.67" y="337.18" width="29.67" height="2.82" fill="#c2410c"/>
<rect x="619.33" y="337.95" width="29.67" height="2.05" fill="#0369a1"/>
<rect x="651.00" y="339.23" width="29.67" height="0.77" fill="#7c2d12"/>
<rect x="682.67" y="339.23" width="29.67" height="0.77" fill="#4338ca"/>
<rect x="714.33" y="338.72" width="29.67" height="1.28" fill="#0f766e"/>
<rect x="746.00" y="339.23" width="29.67" height="0.77" fill="#b45309"/>
<rect x="777.67" y="339.49" width="29.67" height="0.51" fill="#1d4ed8"/>
<rect x="809.33" y="339.74" width="29.67" height="0.26" fill="#be123c"/>
</svg>